%TF.GenerationSoftware,KiCad,Pcbnew,8.0.8*%
%TF.CreationDate,2025-06-27T13:45:21+02:00*%
%TF.ProjectId,OS-servo-decoder-8,4f532d73-6572-4766-9f2d-6465636f6465,rev?*%
%TF.SameCoordinates,Original*%
%TF.FileFunction,Legend,Top*%
%TF.FilePolarity,Positive*%
%FSLAX46Y46*%
G04 Gerber Fmt 4.6, Leading zero omitted, Abs format (unit mm)*
G04 Created by KiCad (PCBNEW 8.0.8) date 2025-06-27 13:45:21*
%MOMM*%
%LPD*%
G01*
G04 APERTURE LIST*
G04 Aperture macros list*
%AMRoundRect*
0 Rectangle with rounded corners*
0 $1 Rounding radius*
0 $2 $3 $4 $5 $6 $7 $8 $9 X,Y pos of 4 corners*
0 Add a 4 corners polygon primitive as box body*
4,1,4,$2,$3,$4,$5,$6,$7,$8,$9,$2,$3,0*
0 Add four circle primitives for the rounded corners*
1,1,$1+$1,$2,$3*
1,1,$1+$1,$4,$5*
1,1,$1+$1,$6,$7*
1,1,$1+$1,$8,$9*
0 Add four rect primitives between the rounded corners*
20,1,$1+$1,$2,$3,$4,$5,0*
20,1,$1+$1,$4,$5,$6,$7,0*
20,1,$1+$1,$6,$7,$8,$9,0*
20,1,$1+$1,$8,$9,$2,$3,0*%
%AMRotRect*
0 Rectangle, with rotation*
0 The origin of the aperture is its center*
0 $1 length*
0 $2 width*
0 $3 Rotation angle, in degrees counterclockwise*
0 Add horizontal line*
21,1,$1,$2,0,0,$3*%
G04 Aperture macros list end*
%ADD10C,0.150000*%
%ADD11C,0.075000*%
%ADD12C,0.300000*%
%ADD13C,0.120000*%
%ADD14RoundRect,0.237500X-0.250000X-0.237500X0.250000X-0.237500X0.250000X0.237500X-0.250000X0.237500X0*%
%ADD15RoundRect,0.250000X0.325000X0.450000X-0.325000X0.450000X-0.325000X-0.450000X0.325000X-0.450000X0*%
%ADD16R,1.700000X1.700000*%
%ADD17O,1.700000X1.700000*%
%ADD18RoundRect,0.140000X0.140000X0.170000X-0.140000X0.170000X-0.140000X-0.170000X0.140000X-0.170000X0*%
%ADD19RoundRect,0.237500X0.250000X0.237500X-0.250000X0.237500X-0.250000X-0.237500X0.250000X-0.237500X0*%
%ADD20R,0.610000X1.910000*%
%ADD21R,1.550000X1.205000*%
%ADD22RoundRect,0.225000X-0.225000X-0.250000X0.225000X-0.250000X0.225000X0.250000X-0.225000X0.250000X0*%
%ADD23RoundRect,0.250000X0.450000X-0.325000X0.450000X0.325000X-0.450000X0.325000X-0.450000X-0.325000X0*%
%ADD24RoundRect,0.135000X-0.135000X-0.185000X0.135000X-0.185000X0.135000X0.185000X-0.135000X0.185000X0*%
%ADD25R,1.550000X1.300000*%
%ADD26RoundRect,0.250000X-1.550000X0.650000X-1.550000X-0.650000X1.550000X-0.650000X1.550000X0.650000X0*%
%ADD27O,3.600000X1.800000*%
%ADD28RoundRect,0.140000X-0.219203X-0.021213X-0.021213X-0.219203X0.219203X0.021213X0.021213X0.219203X0*%
%ADD29RoundRect,0.237500X0.237500X-0.250000X0.237500X0.250000X-0.237500X0.250000X-0.237500X-0.250000X0*%
%ADD30RoundRect,0.237500X-0.237500X0.250000X-0.237500X-0.250000X0.237500X-0.250000X0.237500X0.250000X0*%
%ADD31RoundRect,0.135000X0.135000X0.185000X-0.135000X0.185000X-0.135000X-0.185000X0.135000X-0.185000X0*%
%ADD32C,3.200000*%
%ADD33RoundRect,0.200000X0.200000X0.275000X-0.200000X0.275000X-0.200000X-0.275000X0.200000X-0.275000X0*%
%ADD34RoundRect,0.160000X0.160000X-0.197500X0.160000X0.197500X-0.160000X0.197500X-0.160000X-0.197500X0*%
%ADD35R,2.200000X2.200000*%
%ADD36C,2.200000*%
%ADD37RoundRect,0.225000X-0.250000X0.225000X-0.250000X-0.225000X0.250000X-0.225000X0.250000X0.225000X0*%
%ADD38RoundRect,0.162500X-0.162500X1.012500X-0.162500X-1.012500X0.162500X-1.012500X0.162500X1.012500X0*%
%ADD39RoundRect,0.200000X-0.200000X-0.275000X0.200000X-0.275000X0.200000X0.275000X-0.200000X0.275000X0*%
%ADD40RoundRect,0.225000X0.225000X0.250000X-0.225000X0.250000X-0.225000X-0.250000X0.225000X-0.250000X0*%
%ADD41RotRect,1.600000X0.550000X225.000000*%
%ADD42RotRect,1.600000X0.550000X315.000000*%
%ADD43RoundRect,0.250000X0.650000X-1.000000X0.650000X1.000000X-0.650000X1.000000X-0.650000X-1.000000X0*%
%ADD44RoundRect,0.150000X0.875000X0.150000X-0.875000X0.150000X-0.875000X-0.150000X0.875000X-0.150000X0*%
%ADD45RoundRect,0.112500X0.187500X0.112500X-0.187500X0.112500X-0.187500X-0.112500X0.187500X-0.112500X0*%
%ADD46RoundRect,0.300000X0.300000X-0.400000X0.300000X0.400000X-0.300000X0.400000X-0.300000X-0.400000X0*%
%ADD47RoundRect,0.100000X0.637500X0.100000X-0.637500X0.100000X-0.637500X-0.100000X0.637500X-0.100000X0*%
%ADD48RoundRect,0.250000X0.650000X1.550000X-0.650000X1.550000X-0.650000X-1.550000X0.650000X-1.550000X0*%
%ADD49O,1.800000X3.600000*%
%ADD50RoundRect,0.140000X-0.140000X-0.170000X0.140000X-0.170000X0.140000X0.170000X-0.140000X0.170000X0*%
%ADD51R,2.600000X8.200000*%
%ADD52RoundRect,0.250000X-1.000000X1.950000X-1.000000X-1.950000X1.000000X-1.950000X1.000000X1.950000X0*%
G04 APERTURE END LIST*
D10*
X136156819Y-155606619D02*
X136156819Y-155797095D01*
X136156819Y-155797095D02*
X136204438Y-155892333D01*
X136204438Y-155892333D02*
X136252057Y-155939952D01*
X136252057Y-155939952D02*
X136394914Y-156035190D01*
X136394914Y-156035190D02*
X136585390Y-156082809D01*
X136585390Y-156082809D02*
X136966342Y-156082809D01*
X136966342Y-156082809D02*
X137061580Y-156035190D01*
X137061580Y-156035190D02*
X137109200Y-155987571D01*
X137109200Y-155987571D02*
X137156819Y-155892333D01*
X137156819Y-155892333D02*
X137156819Y-155701857D01*
X137156819Y-155701857D02*
X137109200Y-155606619D01*
X137109200Y-155606619D02*
X137061580Y-155559000D01*
X137061580Y-155559000D02*
X136966342Y-155511381D01*
X136966342Y-155511381D02*
X136728247Y-155511381D01*
X136728247Y-155511381D02*
X136633009Y-155559000D01*
X136633009Y-155559000D02*
X136585390Y-155606619D01*
X136585390Y-155606619D02*
X136537771Y-155701857D01*
X136537771Y-155701857D02*
X136537771Y-155892333D01*
X136537771Y-155892333D02*
X136585390Y-155987571D01*
X136585390Y-155987571D02*
X136633009Y-156035190D01*
X136633009Y-156035190D02*
X136728247Y-156082809D01*
X136156819Y-153082809D02*
X136156819Y-153558999D01*
X136156819Y-153558999D02*
X136633009Y-153606618D01*
X136633009Y-153606618D02*
X136585390Y-153558999D01*
X136585390Y-153558999D02*
X136537771Y-153463761D01*
X136537771Y-153463761D02*
X136537771Y-153225666D01*
X136537771Y-153225666D02*
X136585390Y-153130428D01*
X136585390Y-153130428D02*
X136633009Y-153082809D01*
X136633009Y-153082809D02*
X136728247Y-153035190D01*
X136728247Y-153035190D02*
X136966342Y-153035190D01*
X136966342Y-153035190D02*
X137061580Y-153082809D01*
X137061580Y-153082809D02*
X137109200Y-153130428D01*
X137109200Y-153130428D02*
X137156819Y-153225666D01*
X137156819Y-153225666D02*
X137156819Y-153463761D01*
X137156819Y-153463761D02*
X137109200Y-153558999D01*
X137109200Y-153558999D02*
X137061580Y-153606618D01*
X136712390Y-162369333D02*
X136664771Y-162464571D01*
X136664771Y-162464571D02*
X136617152Y-162512190D01*
X136617152Y-162512190D02*
X136521914Y-162559809D01*
X136521914Y-162559809D02*
X136474295Y-162559809D01*
X136474295Y-162559809D02*
X136379057Y-162512190D01*
X136379057Y-162512190D02*
X136331438Y-162464571D01*
X136331438Y-162464571D02*
X136283819Y-162369333D01*
X136283819Y-162369333D02*
X136283819Y-162178857D01*
X136283819Y-162178857D02*
X136331438Y-162083619D01*
X136331438Y-162083619D02*
X136379057Y-162036000D01*
X136379057Y-162036000D02*
X136474295Y-161988381D01*
X136474295Y-161988381D02*
X136521914Y-161988381D01*
X136521914Y-161988381D02*
X136617152Y-162036000D01*
X136617152Y-162036000D02*
X136664771Y-162083619D01*
X136664771Y-162083619D02*
X136712390Y-162178857D01*
X136712390Y-162178857D02*
X136712390Y-162369333D01*
X136712390Y-162369333D02*
X136760009Y-162464571D01*
X136760009Y-162464571D02*
X136807628Y-162512190D01*
X136807628Y-162512190D02*
X136902866Y-162559809D01*
X136902866Y-162559809D02*
X137093342Y-162559809D01*
X137093342Y-162559809D02*
X137188580Y-162512190D01*
X137188580Y-162512190D02*
X137236200Y-162464571D01*
X137236200Y-162464571D02*
X137283819Y-162369333D01*
X137283819Y-162369333D02*
X137283819Y-162178857D01*
X137283819Y-162178857D02*
X137236200Y-162083619D01*
X137236200Y-162083619D02*
X137188580Y-162036000D01*
X137188580Y-162036000D02*
X137093342Y-161988381D01*
X137093342Y-161988381D02*
X136902866Y-161988381D01*
X136902866Y-161988381D02*
X136807628Y-162036000D01*
X136807628Y-162036000D02*
X136760009Y-162083619D01*
X136760009Y-162083619D02*
X136712390Y-162178857D01*
X136283819Y-160131237D02*
X136283819Y-159464571D01*
X136283819Y-159464571D02*
X137283819Y-159893142D01*
X136283819Y-127968332D02*
X136283819Y-127301666D01*
X136283819Y-127301666D02*
X137283819Y-127730237D01*
X104762180Y-143179969D02*
X104762180Y-142703779D01*
X104762180Y-142703779D02*
X104285990Y-142656160D01*
X104285990Y-142656160D02*
X104333609Y-142703779D01*
X104333609Y-142703779D02*
X104381228Y-142799017D01*
X104381228Y-142799017D02*
X104381228Y-143037112D01*
X104381228Y-143037112D02*
X104333609Y-143132350D01*
X104333609Y-143132350D02*
X104285990Y-143179969D01*
X104285990Y-143179969D02*
X104190752Y-143227588D01*
X104190752Y-143227588D02*
X103952657Y-143227588D01*
X103952657Y-143227588D02*
X103857419Y-143179969D01*
X103857419Y-143179969D02*
X103809800Y-143132350D01*
X103809800Y-143132350D02*
X103762180Y-143037112D01*
X103762180Y-143037112D02*
X103762180Y-142799017D01*
X103762180Y-142799017D02*
X103809800Y-142703779D01*
X103809800Y-142703779D02*
X103857419Y-142656160D01*
X104762180Y-149418066D02*
X104762180Y-149227590D01*
X104762180Y-149227590D02*
X104714561Y-149132352D01*
X104714561Y-149132352D02*
X104666942Y-149084733D01*
X104666942Y-149084733D02*
X104524085Y-148989495D01*
X104524085Y-148989495D02*
X104333609Y-148941876D01*
X104333609Y-148941876D02*
X103952657Y-148941876D01*
X103952657Y-148941876D02*
X103857419Y-148989495D01*
X103857419Y-148989495D02*
X103809800Y-149037114D01*
X103809800Y-149037114D02*
X103762180Y-149132352D01*
X103762180Y-149132352D02*
X103762180Y-149322828D01*
X103762180Y-149322828D02*
X103809800Y-149418066D01*
X103809800Y-149418066D02*
X103857419Y-149465685D01*
X103857419Y-149465685D02*
X103952657Y-149513304D01*
X103952657Y-149513304D02*
X104190752Y-149513304D01*
X104190752Y-149513304D02*
X104285990Y-149465685D01*
X104285990Y-149465685D02*
X104333609Y-149418066D01*
X104333609Y-149418066D02*
X104381228Y-149322828D01*
X104381228Y-149322828D02*
X104381228Y-149132352D01*
X104381228Y-149132352D02*
X104333609Y-149037114D01*
X104333609Y-149037114D02*
X104285990Y-148989495D01*
X104285990Y-148989495D02*
X104190752Y-148941876D01*
D11*
X140730290Y-134266714D02*
X140754100Y-134290523D01*
X140754100Y-134290523D02*
X140777909Y-134361952D01*
X140777909Y-134361952D02*
X140777909Y-134409571D01*
X140777909Y-134409571D02*
X140754100Y-134480999D01*
X140754100Y-134480999D02*
X140706480Y-134528618D01*
X140706480Y-134528618D02*
X140658861Y-134552428D01*
X140658861Y-134552428D02*
X140563623Y-134576237D01*
X140563623Y-134576237D02*
X140492195Y-134576237D01*
X140492195Y-134576237D02*
X140396957Y-134552428D01*
X140396957Y-134552428D02*
X140349338Y-134528618D01*
X140349338Y-134528618D02*
X140301719Y-134480999D01*
X140301719Y-134480999D02*
X140277909Y-134409571D01*
X140277909Y-134409571D02*
X140277909Y-134361952D01*
X140277909Y-134361952D02*
X140301719Y-134290523D01*
X140301719Y-134290523D02*
X140325528Y-134266714D01*
X140277909Y-133957190D02*
X140277909Y-133861952D01*
X140277909Y-133861952D02*
X140301719Y-133814333D01*
X140301719Y-133814333D02*
X140349338Y-133766714D01*
X140349338Y-133766714D02*
X140444576Y-133742904D01*
X140444576Y-133742904D02*
X140611242Y-133742904D01*
X140611242Y-133742904D02*
X140706480Y-133766714D01*
X140706480Y-133766714D02*
X140754100Y-133814333D01*
X140754100Y-133814333D02*
X140777909Y-133861952D01*
X140777909Y-133861952D02*
X140777909Y-133957190D01*
X140777909Y-133957190D02*
X140754100Y-134004809D01*
X140754100Y-134004809D02*
X140706480Y-134052428D01*
X140706480Y-134052428D02*
X140611242Y-134076237D01*
X140611242Y-134076237D02*
X140444576Y-134076237D01*
X140444576Y-134076237D02*
X140349338Y-134052428D01*
X140349338Y-134052428D02*
X140301719Y-134004809D01*
X140301719Y-134004809D02*
X140277909Y-133957190D01*
X140777909Y-133528618D02*
X140277909Y-133528618D01*
X140277909Y-133528618D02*
X140635052Y-133361951D01*
X140635052Y-133361951D02*
X140277909Y-133195285D01*
X140277909Y-133195285D02*
X140777909Y-133195285D01*
D10*
X122494922Y-165747819D02*
X123066350Y-165747819D01*
X122780636Y-166747819D02*
X122780636Y-165747819D01*
X123590160Y-165747819D02*
X123780636Y-165747819D01*
X123780636Y-165747819D02*
X123875874Y-165795438D01*
X123875874Y-165795438D02*
X123971112Y-165890676D01*
X123971112Y-165890676D02*
X124018731Y-166081152D01*
X124018731Y-166081152D02*
X124018731Y-166414485D01*
X124018731Y-166414485D02*
X123971112Y-166604961D01*
X123971112Y-166604961D02*
X123875874Y-166700200D01*
X123875874Y-166700200D02*
X123780636Y-166747819D01*
X123780636Y-166747819D02*
X123590160Y-166747819D01*
X123590160Y-166747819D02*
X123494922Y-166700200D01*
X123494922Y-166700200D02*
X123399684Y-166604961D01*
X123399684Y-166604961D02*
X123352065Y-166414485D01*
X123352065Y-166414485D02*
X123352065Y-166081152D01*
X123352065Y-166081152D02*
X123399684Y-165890676D01*
X123399684Y-165890676D02*
X123494922Y-165795438D01*
X123494922Y-165795438D02*
X123590160Y-165747819D01*
X124971112Y-165795438D02*
X124875874Y-165747819D01*
X124875874Y-165747819D02*
X124733017Y-165747819D01*
X124733017Y-165747819D02*
X124590160Y-165795438D01*
X124590160Y-165795438D02*
X124494922Y-165890676D01*
X124494922Y-165890676D02*
X124447303Y-165985914D01*
X124447303Y-165985914D02*
X124399684Y-166176390D01*
X124399684Y-166176390D02*
X124399684Y-166319247D01*
X124399684Y-166319247D02*
X124447303Y-166509723D01*
X124447303Y-166509723D02*
X124494922Y-166604961D01*
X124494922Y-166604961D02*
X124590160Y-166700200D01*
X124590160Y-166700200D02*
X124733017Y-166747819D01*
X124733017Y-166747819D02*
X124828255Y-166747819D01*
X124828255Y-166747819D02*
X124971112Y-166700200D01*
X124971112Y-166700200D02*
X125018731Y-166652580D01*
X125018731Y-166652580D02*
X125018731Y-166319247D01*
X125018731Y-166319247D02*
X124828255Y-166319247D01*
X125971112Y-165795438D02*
X125875874Y-165747819D01*
X125875874Y-165747819D02*
X125733017Y-165747819D01*
X125733017Y-165747819D02*
X125590160Y-165795438D01*
X125590160Y-165795438D02*
X125494922Y-165890676D01*
X125494922Y-165890676D02*
X125447303Y-165985914D01*
X125447303Y-165985914D02*
X125399684Y-166176390D01*
X125399684Y-166176390D02*
X125399684Y-166319247D01*
X125399684Y-166319247D02*
X125447303Y-166509723D01*
X125447303Y-166509723D02*
X125494922Y-166604961D01*
X125494922Y-166604961D02*
X125590160Y-166700200D01*
X125590160Y-166700200D02*
X125733017Y-166747819D01*
X125733017Y-166747819D02*
X125828255Y-166747819D01*
X125828255Y-166747819D02*
X125971112Y-166700200D01*
X125971112Y-166700200D02*
X126018731Y-166652580D01*
X126018731Y-166652580D02*
X126018731Y-166319247D01*
X126018731Y-166319247D02*
X125828255Y-166319247D01*
X126923493Y-166747819D02*
X126447303Y-166747819D01*
X126447303Y-166747819D02*
X126447303Y-165747819D01*
X127256827Y-166224009D02*
X127590160Y-166224009D01*
X127733017Y-166747819D02*
X127256827Y-166747819D01*
X127256827Y-166747819D02*
X127256827Y-165747819D01*
X127256827Y-165747819D02*
X127733017Y-165747819D01*
D12*
X129673558Y-104239638D02*
X129673558Y-102239638D01*
X129673558Y-102239638D02*
X130149748Y-102239638D01*
X130149748Y-102239638D02*
X130435463Y-102334876D01*
X130435463Y-102334876D02*
X130625939Y-102525352D01*
X130625939Y-102525352D02*
X130721177Y-102715828D01*
X130721177Y-102715828D02*
X130816415Y-103096780D01*
X130816415Y-103096780D02*
X130816415Y-103382495D01*
X130816415Y-103382495D02*
X130721177Y-103763447D01*
X130721177Y-103763447D02*
X130625939Y-103953923D01*
X130625939Y-103953923D02*
X130435463Y-104144400D01*
X130435463Y-104144400D02*
X130149748Y-104239638D01*
X130149748Y-104239638D02*
X129673558Y-104239638D01*
X132816415Y-104049161D02*
X132721177Y-104144400D01*
X132721177Y-104144400D02*
X132435463Y-104239638D01*
X132435463Y-104239638D02*
X132244987Y-104239638D01*
X132244987Y-104239638D02*
X131959272Y-104144400D01*
X131959272Y-104144400D02*
X131768796Y-103953923D01*
X131768796Y-103953923D02*
X131673558Y-103763447D01*
X131673558Y-103763447D02*
X131578320Y-103382495D01*
X131578320Y-103382495D02*
X131578320Y-103096780D01*
X131578320Y-103096780D02*
X131673558Y-102715828D01*
X131673558Y-102715828D02*
X131768796Y-102525352D01*
X131768796Y-102525352D02*
X131959272Y-102334876D01*
X131959272Y-102334876D02*
X132244987Y-102239638D01*
X132244987Y-102239638D02*
X132435463Y-102239638D01*
X132435463Y-102239638D02*
X132721177Y-102334876D01*
X132721177Y-102334876D02*
X132816415Y-102430114D01*
X134816415Y-104049161D02*
X134721177Y-104144400D01*
X134721177Y-104144400D02*
X134435463Y-104239638D01*
X134435463Y-104239638D02*
X134244987Y-104239638D01*
X134244987Y-104239638D02*
X133959272Y-104144400D01*
X133959272Y-104144400D02*
X133768796Y-103953923D01*
X133768796Y-103953923D02*
X133673558Y-103763447D01*
X133673558Y-103763447D02*
X133578320Y-103382495D01*
X133578320Y-103382495D02*
X133578320Y-103096780D01*
X133578320Y-103096780D02*
X133673558Y-102715828D01*
X133673558Y-102715828D02*
X133768796Y-102525352D01*
X133768796Y-102525352D02*
X133959272Y-102334876D01*
X133959272Y-102334876D02*
X134244987Y-102239638D01*
X134244987Y-102239638D02*
X134435463Y-102239638D01*
X134435463Y-102239638D02*
X134721177Y-102334876D01*
X134721177Y-102334876D02*
X134816415Y-102430114D01*
D10*
X136379057Y-141604809D02*
X136331438Y-141557190D01*
X136331438Y-141557190D02*
X136283819Y-141461952D01*
X136283819Y-141461952D02*
X136283819Y-141223857D01*
X136283819Y-141223857D02*
X136331438Y-141128619D01*
X136331438Y-141128619D02*
X136379057Y-141081000D01*
X136379057Y-141081000D02*
X136474295Y-141033381D01*
X136474295Y-141033381D02*
X136569533Y-141033381D01*
X136569533Y-141033381D02*
X136712390Y-141081000D01*
X136712390Y-141081000D02*
X137283819Y-141652428D01*
X137283819Y-141652428D02*
X137283819Y-141033381D01*
X137283819Y-138557190D02*
X137283819Y-139128618D01*
X137283819Y-138842904D02*
X136283819Y-138842904D01*
X136283819Y-138842904D02*
X136426676Y-138938142D01*
X136426676Y-138938142D02*
X136521914Y-139033380D01*
X136521914Y-139033380D02*
X136569533Y-139128618D01*
X104889180Y-157848541D02*
X104889180Y-158515207D01*
X104889180Y-158515207D02*
X103889180Y-158086636D01*
X104460609Y-164372352D02*
X104508228Y-164277114D01*
X104508228Y-164277114D02*
X104555847Y-164229495D01*
X104555847Y-164229495D02*
X104651085Y-164181876D01*
X104651085Y-164181876D02*
X104698704Y-164181876D01*
X104698704Y-164181876D02*
X104793942Y-164229495D01*
X104793942Y-164229495D02*
X104841561Y-164277114D01*
X104841561Y-164277114D02*
X104889180Y-164372352D01*
X104889180Y-164372352D02*
X104889180Y-164562828D01*
X104889180Y-164562828D02*
X104841561Y-164658066D01*
X104841561Y-164658066D02*
X104793942Y-164705685D01*
X104793942Y-164705685D02*
X104698704Y-164753304D01*
X104698704Y-164753304D02*
X104651085Y-164753304D01*
X104651085Y-164753304D02*
X104555847Y-164705685D01*
X104555847Y-164705685D02*
X104508228Y-164658066D01*
X104508228Y-164658066D02*
X104460609Y-164562828D01*
X104460609Y-164562828D02*
X104460609Y-164372352D01*
X104460609Y-164372352D02*
X104412990Y-164277114D01*
X104412990Y-164277114D02*
X104365371Y-164229495D01*
X104365371Y-164229495D02*
X104270133Y-164181876D01*
X104270133Y-164181876D02*
X104079657Y-164181876D01*
X104079657Y-164181876D02*
X103984419Y-164229495D01*
X103984419Y-164229495D02*
X103936800Y-164277114D01*
X103936800Y-164277114D02*
X103889180Y-164372352D01*
X103889180Y-164372352D02*
X103889180Y-164562828D01*
X103889180Y-164562828D02*
X103936800Y-164658066D01*
X103936800Y-164658066D02*
X103984419Y-164705685D01*
X103984419Y-164705685D02*
X104079657Y-164753304D01*
X104079657Y-164753304D02*
X104270133Y-164753304D01*
X104270133Y-164753304D02*
X104365371Y-164705685D01*
X104365371Y-164705685D02*
X104412990Y-164658066D01*
X104412990Y-164658066D02*
X104460609Y-164562828D01*
X136283819Y-117681332D02*
X136283819Y-117062285D01*
X136283819Y-117062285D02*
X136664771Y-117395618D01*
X136664771Y-117395618D02*
X136664771Y-117252761D01*
X136664771Y-117252761D02*
X136712390Y-117157523D01*
X136712390Y-117157523D02*
X136760009Y-117109904D01*
X136760009Y-117109904D02*
X136855247Y-117062285D01*
X136855247Y-117062285D02*
X137093342Y-117062285D01*
X137093342Y-117062285D02*
X137188580Y-117109904D01*
X137188580Y-117109904D02*
X137236200Y-117157523D01*
X137236200Y-117157523D02*
X137283819Y-117252761D01*
X137283819Y-117252761D02*
X137283819Y-117538475D01*
X137283819Y-117538475D02*
X137236200Y-117633713D01*
X137236200Y-117633713D02*
X137188580Y-117681332D01*
X136617152Y-148240619D02*
X137283819Y-148240619D01*
X136236200Y-148478714D02*
X136950485Y-148716809D01*
X136950485Y-148716809D02*
X136950485Y-148097762D01*
X136283819Y-146288237D02*
X136283819Y-145669190D01*
X136283819Y-145669190D02*
X136664771Y-146002523D01*
X136664771Y-146002523D02*
X136664771Y-145859666D01*
X136664771Y-145859666D02*
X136712390Y-145764428D01*
X136712390Y-145764428D02*
X136760009Y-145716809D01*
X136760009Y-145716809D02*
X136855247Y-145669190D01*
X136855247Y-145669190D02*
X137093342Y-145669190D01*
X137093342Y-145669190D02*
X137188580Y-145716809D01*
X137188580Y-145716809D02*
X137236200Y-145764428D01*
X137236200Y-145764428D02*
X137283819Y-145859666D01*
X137283819Y-145859666D02*
X137283819Y-146145380D01*
X137283819Y-146145380D02*
X137236200Y-146240618D01*
X137236200Y-146240618D02*
X137188580Y-146288237D01*
X141755582Y-167591396D02*
X141719868Y-167662825D01*
X141719868Y-167662825D02*
X141684153Y-167698539D01*
X141684153Y-167698539D02*
X141612725Y-167734253D01*
X141612725Y-167734253D02*
X141398439Y-167734253D01*
X141398439Y-167734253D02*
X141327010Y-167698539D01*
X141327010Y-167698539D02*
X141291296Y-167662825D01*
X141291296Y-167662825D02*
X141255582Y-167591396D01*
X141255582Y-167591396D02*
X141255582Y-167484253D01*
X141255582Y-167484253D02*
X141291296Y-167412825D01*
X141291296Y-167412825D02*
X141327010Y-167377111D01*
X141327010Y-167377111D02*
X141398439Y-167341396D01*
X141398439Y-167341396D02*
X141612725Y-167341396D01*
X141612725Y-167341396D02*
X141684153Y-167377111D01*
X141684153Y-167377111D02*
X141719868Y-167412825D01*
X141719868Y-167412825D02*
X141755582Y-167484253D01*
X141755582Y-167484253D02*
X141755582Y-167591396D01*
X141755582Y-167019968D02*
X141255582Y-167019968D01*
X141398439Y-167019968D02*
X141327010Y-166984254D01*
X141327010Y-166984254D02*
X141291296Y-166948540D01*
X141291296Y-166948540D02*
X141255582Y-166877111D01*
X141255582Y-166877111D02*
X141255582Y-166805682D01*
X141755582Y-166234254D02*
X141362725Y-166234254D01*
X141362725Y-166234254D02*
X141291296Y-166269968D01*
X141291296Y-166269968D02*
X141255582Y-166341396D01*
X141255582Y-166341396D02*
X141255582Y-166484254D01*
X141255582Y-166484254D02*
X141291296Y-166555682D01*
X141719868Y-166234254D02*
X141755582Y-166305682D01*
X141755582Y-166305682D02*
X141755582Y-166484254D01*
X141755582Y-166484254D02*
X141719868Y-166555682D01*
X141719868Y-166555682D02*
X141648439Y-166591396D01*
X141648439Y-166591396D02*
X141577010Y-166591396D01*
X141577010Y-166591396D02*
X141505582Y-166555682D01*
X141505582Y-166555682D02*
X141469868Y-166484254D01*
X141469868Y-166484254D02*
X141469868Y-166305682D01*
X141469868Y-166305682D02*
X141434153Y-166234254D01*
X141255582Y-165877111D02*
X141755582Y-165877111D01*
X141327010Y-165877111D02*
X141291296Y-165841397D01*
X141291296Y-165841397D02*
X141255582Y-165769968D01*
X141255582Y-165769968D02*
X141255582Y-165662825D01*
X141255582Y-165662825D02*
X141291296Y-165591397D01*
X141291296Y-165591397D02*
X141362725Y-165555683D01*
X141362725Y-165555683D02*
X141755582Y-165555683D01*
X141255582Y-164877112D02*
X141862725Y-164877112D01*
X141862725Y-164877112D02*
X141934153Y-164912826D01*
X141934153Y-164912826D02*
X141969868Y-164948540D01*
X141969868Y-164948540D02*
X142005582Y-165019969D01*
X142005582Y-165019969D02*
X142005582Y-165127112D01*
X142005582Y-165127112D02*
X141969868Y-165198540D01*
X141719868Y-164877112D02*
X141755582Y-164948540D01*
X141755582Y-164948540D02*
X141755582Y-165091397D01*
X141755582Y-165091397D02*
X141719868Y-165162826D01*
X141719868Y-165162826D02*
X141684153Y-165198540D01*
X141684153Y-165198540D02*
X141612725Y-165234254D01*
X141612725Y-165234254D02*
X141398439Y-165234254D01*
X141398439Y-165234254D02*
X141327010Y-165198540D01*
X141327010Y-165198540D02*
X141291296Y-165162826D01*
X141291296Y-165162826D02*
X141255582Y-165091397D01*
X141255582Y-165091397D02*
X141255582Y-164948540D01*
X141255582Y-164948540D02*
X141291296Y-164877112D01*
X141719868Y-164234255D02*
X141755582Y-164305683D01*
X141755582Y-164305683D02*
X141755582Y-164448541D01*
X141755582Y-164448541D02*
X141719868Y-164519969D01*
X141719868Y-164519969D02*
X141648439Y-164555683D01*
X141648439Y-164555683D02*
X141362725Y-164555683D01*
X141362725Y-164555683D02*
X141291296Y-164519969D01*
X141291296Y-164519969D02*
X141255582Y-164448541D01*
X141255582Y-164448541D02*
X141255582Y-164305683D01*
X141255582Y-164305683D02*
X141291296Y-164234255D01*
X141291296Y-164234255D02*
X141362725Y-164198541D01*
X141362725Y-164198541D02*
X141434153Y-164198541D01*
X141434153Y-164198541D02*
X141505582Y-164555683D01*
X144170498Y-165662826D02*
X143670498Y-165662826D01*
X143813355Y-165662826D02*
X143741926Y-165627112D01*
X143741926Y-165627112D02*
X143706212Y-165591398D01*
X143706212Y-165591398D02*
X143670498Y-165519969D01*
X143670498Y-165519969D02*
X143670498Y-165448540D01*
X144134784Y-164912826D02*
X144170498Y-164984254D01*
X144170498Y-164984254D02*
X144170498Y-165127112D01*
X144170498Y-165127112D02*
X144134784Y-165198540D01*
X144134784Y-165198540D02*
X144063355Y-165234254D01*
X144063355Y-165234254D02*
X143777641Y-165234254D01*
X143777641Y-165234254D02*
X143706212Y-165198540D01*
X143706212Y-165198540D02*
X143670498Y-165127112D01*
X143670498Y-165127112D02*
X143670498Y-164984254D01*
X143670498Y-164984254D02*
X143706212Y-164912826D01*
X143706212Y-164912826D02*
X143777641Y-164877112D01*
X143777641Y-164877112D02*
X143849069Y-164877112D01*
X143849069Y-164877112D02*
X143920498Y-165234254D01*
X144170498Y-164234255D02*
X143420498Y-164234255D01*
X144134784Y-164234255D02*
X144170498Y-164305683D01*
X144170498Y-164305683D02*
X144170498Y-164448540D01*
X144170498Y-164448540D02*
X144134784Y-164519969D01*
X144134784Y-164519969D02*
X144099069Y-164555683D01*
X144099069Y-164555683D02*
X144027641Y-164591397D01*
X144027641Y-164591397D02*
X143813355Y-164591397D01*
X143813355Y-164591397D02*
X143741926Y-164555683D01*
X143741926Y-164555683D02*
X143706212Y-164519969D01*
X143706212Y-164519969D02*
X143670498Y-164448540D01*
X143670498Y-164448540D02*
X143670498Y-164305683D01*
X143670498Y-164305683D02*
X143706212Y-164234255D01*
X146585414Y-167162825D02*
X145835414Y-167162825D01*
X146121128Y-167162825D02*
X146085414Y-167091397D01*
X146085414Y-167091397D02*
X146085414Y-166948539D01*
X146085414Y-166948539D02*
X146121128Y-166877111D01*
X146121128Y-166877111D02*
X146156842Y-166841397D01*
X146156842Y-166841397D02*
X146228271Y-166805682D01*
X146228271Y-166805682D02*
X146442557Y-166805682D01*
X146442557Y-166805682D02*
X146513985Y-166841397D01*
X146513985Y-166841397D02*
X146549700Y-166877111D01*
X146549700Y-166877111D02*
X146585414Y-166948539D01*
X146585414Y-166948539D02*
X146585414Y-167091397D01*
X146585414Y-167091397D02*
X146549700Y-167162825D01*
X146585414Y-166484254D02*
X146085414Y-166484254D01*
X146228271Y-166484254D02*
X146156842Y-166448540D01*
X146156842Y-166448540D02*
X146121128Y-166412826D01*
X146121128Y-166412826D02*
X146085414Y-166341397D01*
X146085414Y-166341397D02*
X146085414Y-166269968D01*
X146585414Y-165912825D02*
X146549700Y-165984254D01*
X146549700Y-165984254D02*
X146513985Y-166019968D01*
X146513985Y-166019968D02*
X146442557Y-166055682D01*
X146442557Y-166055682D02*
X146228271Y-166055682D01*
X146228271Y-166055682D02*
X146156842Y-166019968D01*
X146156842Y-166019968D02*
X146121128Y-165984254D01*
X146121128Y-165984254D02*
X146085414Y-165912825D01*
X146085414Y-165912825D02*
X146085414Y-165805682D01*
X146085414Y-165805682D02*
X146121128Y-165734254D01*
X146121128Y-165734254D02*
X146156842Y-165698540D01*
X146156842Y-165698540D02*
X146228271Y-165662825D01*
X146228271Y-165662825D02*
X146442557Y-165662825D01*
X146442557Y-165662825D02*
X146513985Y-165698540D01*
X146513985Y-165698540D02*
X146549700Y-165734254D01*
X146549700Y-165734254D02*
X146585414Y-165805682D01*
X146585414Y-165805682D02*
X146585414Y-165912825D01*
X146085414Y-165412826D02*
X146585414Y-165269969D01*
X146585414Y-165269969D02*
X146228271Y-165127111D01*
X146228271Y-165127111D02*
X146585414Y-164984254D01*
X146585414Y-164984254D02*
X146085414Y-164841397D01*
X146085414Y-164555683D02*
X146585414Y-164555683D01*
X146156842Y-164555683D02*
X146121128Y-164519969D01*
X146121128Y-164519969D02*
X146085414Y-164448540D01*
X146085414Y-164448540D02*
X146085414Y-164341397D01*
X146085414Y-164341397D02*
X146121128Y-164269969D01*
X146121128Y-164269969D02*
X146192557Y-164234255D01*
X146192557Y-164234255D02*
X146585414Y-164234255D01*
X137283819Y-111982285D02*
X137283819Y-112553713D01*
X137283819Y-112267999D02*
X136283819Y-112267999D01*
X136283819Y-112267999D02*
X136426676Y-112363237D01*
X136426676Y-112363237D02*
X136521914Y-112458475D01*
X136521914Y-112458475D02*
X136569533Y-112553713D01*
X136712390Y-130143237D02*
X136664771Y-130238475D01*
X136664771Y-130238475D02*
X136617152Y-130286094D01*
X136617152Y-130286094D02*
X136521914Y-130333713D01*
X136521914Y-130333713D02*
X136474295Y-130333713D01*
X136474295Y-130333713D02*
X136379057Y-130286094D01*
X136379057Y-130286094D02*
X136331438Y-130238475D01*
X136331438Y-130238475D02*
X136283819Y-130143237D01*
X136283819Y-130143237D02*
X136283819Y-129952761D01*
X136283819Y-129952761D02*
X136331438Y-129857523D01*
X136331438Y-129857523D02*
X136379057Y-129809904D01*
X136379057Y-129809904D02*
X136474295Y-129762285D01*
X136474295Y-129762285D02*
X136521914Y-129762285D01*
X136521914Y-129762285D02*
X136617152Y-129809904D01*
X136617152Y-129809904D02*
X136664771Y-129857523D01*
X136664771Y-129857523D02*
X136712390Y-129952761D01*
X136712390Y-129952761D02*
X136712390Y-130143237D01*
X136712390Y-130143237D02*
X136760009Y-130238475D01*
X136760009Y-130238475D02*
X136807628Y-130286094D01*
X136807628Y-130286094D02*
X136902866Y-130333713D01*
X136902866Y-130333713D02*
X137093342Y-130333713D01*
X137093342Y-130333713D02*
X137188580Y-130286094D01*
X137188580Y-130286094D02*
X137236200Y-130238475D01*
X137236200Y-130238475D02*
X137283819Y-130143237D01*
X137283819Y-130143237D02*
X137283819Y-129952761D01*
X137283819Y-129952761D02*
X137236200Y-129857523D01*
X137236200Y-129857523D02*
X137188580Y-129809904D01*
X137188580Y-129809904D02*
X137093342Y-129762285D01*
X137093342Y-129762285D02*
X136902866Y-129762285D01*
X136902866Y-129762285D02*
X136807628Y-129809904D01*
X136807628Y-129809904D02*
X136760009Y-129857523D01*
X136760009Y-129857523D02*
X136712390Y-129952761D01*
X136283819Y-124904523D02*
X136283819Y-125094999D01*
X136283819Y-125094999D02*
X136331438Y-125190237D01*
X136331438Y-125190237D02*
X136379057Y-125237856D01*
X136379057Y-125237856D02*
X136521914Y-125333094D01*
X136521914Y-125333094D02*
X136712390Y-125380713D01*
X136712390Y-125380713D02*
X137093342Y-125380713D01*
X137093342Y-125380713D02*
X137188580Y-125333094D01*
X137188580Y-125333094D02*
X137236200Y-125285475D01*
X137236200Y-125285475D02*
X137283819Y-125190237D01*
X137283819Y-125190237D02*
X137283819Y-124999761D01*
X137283819Y-124999761D02*
X137236200Y-124904523D01*
X137236200Y-124904523D02*
X137188580Y-124856904D01*
X137188580Y-124856904D02*
X137093342Y-124809285D01*
X137093342Y-124809285D02*
X136855247Y-124809285D01*
X136855247Y-124809285D02*
X136760009Y-124856904D01*
X136760009Y-124856904D02*
X136712390Y-124904523D01*
X136712390Y-124904523D02*
X136664771Y-124999761D01*
X136664771Y-124999761D02*
X136664771Y-125190237D01*
X136664771Y-125190237D02*
X136712390Y-125285475D01*
X136712390Y-125285475D02*
X136760009Y-125333094D01*
X136760009Y-125333094D02*
X136855247Y-125380713D01*
X132734207Y-166398580D02*
X132686588Y-166446200D01*
X132686588Y-166446200D02*
X132543731Y-166493819D01*
X132543731Y-166493819D02*
X132448493Y-166493819D01*
X132448493Y-166493819D02*
X132305636Y-166446200D01*
X132305636Y-166446200D02*
X132210398Y-166350961D01*
X132210398Y-166350961D02*
X132162779Y-166255723D01*
X132162779Y-166255723D02*
X132115160Y-166065247D01*
X132115160Y-166065247D02*
X132115160Y-165922390D01*
X132115160Y-165922390D02*
X132162779Y-165731914D01*
X132162779Y-165731914D02*
X132210398Y-165636676D01*
X132210398Y-165636676D02*
X132305636Y-165541438D01*
X132305636Y-165541438D02*
X132448493Y-165493819D01*
X132448493Y-165493819D02*
X132543731Y-165493819D01*
X132543731Y-165493819D02*
X132686588Y-165541438D01*
X132686588Y-165541438D02*
X132734207Y-165589057D01*
X133353255Y-165493819D02*
X133543731Y-165493819D01*
X133543731Y-165493819D02*
X133638969Y-165541438D01*
X133638969Y-165541438D02*
X133734207Y-165636676D01*
X133734207Y-165636676D02*
X133781826Y-165827152D01*
X133781826Y-165827152D02*
X133781826Y-166160485D01*
X133781826Y-166160485D02*
X133734207Y-166350961D01*
X133734207Y-166350961D02*
X133638969Y-166446200D01*
X133638969Y-166446200D02*
X133543731Y-166493819D01*
X133543731Y-166493819D02*
X133353255Y-166493819D01*
X133353255Y-166493819D02*
X133258017Y-166446200D01*
X133258017Y-166446200D02*
X133162779Y-166350961D01*
X133162779Y-166350961D02*
X133115160Y-166160485D01*
X133115160Y-166160485D02*
X133115160Y-165827152D01*
X133115160Y-165827152D02*
X133162779Y-165636676D01*
X133162779Y-165636676D02*
X133258017Y-165541438D01*
X133258017Y-165541438D02*
X133353255Y-165493819D01*
X134210398Y-166493819D02*
X134210398Y-165493819D01*
X134210398Y-165493819D02*
X134781826Y-166493819D01*
X134781826Y-166493819D02*
X134781826Y-165493819D01*
X135591350Y-165970009D02*
X135258017Y-165970009D01*
X135258017Y-166493819D02*
X135258017Y-165493819D01*
X135258017Y-165493819D02*
X135734207Y-165493819D01*
X136115160Y-166493819D02*
X136115160Y-165493819D01*
X137115159Y-165541438D02*
X137019921Y-165493819D01*
X137019921Y-165493819D02*
X136877064Y-165493819D01*
X136877064Y-165493819D02*
X136734207Y-165541438D01*
X136734207Y-165541438D02*
X136638969Y-165636676D01*
X136638969Y-165636676D02*
X136591350Y-165731914D01*
X136591350Y-165731914D02*
X136543731Y-165922390D01*
X136543731Y-165922390D02*
X136543731Y-166065247D01*
X136543731Y-166065247D02*
X136591350Y-166255723D01*
X136591350Y-166255723D02*
X136638969Y-166350961D01*
X136638969Y-166350961D02*
X136734207Y-166446200D01*
X136734207Y-166446200D02*
X136877064Y-166493819D01*
X136877064Y-166493819D02*
X136972302Y-166493819D01*
X136972302Y-166493819D02*
X137115159Y-166446200D01*
X137115159Y-166446200D02*
X137162778Y-166398580D01*
X137162778Y-166398580D02*
X137162778Y-166065247D01*
X137162778Y-166065247D02*
X136972302Y-166065247D01*
X137591350Y-165493819D02*
X137591350Y-166303342D01*
X137591350Y-166303342D02*
X137638969Y-166398580D01*
X137638969Y-166398580D02*
X137686588Y-166446200D01*
X137686588Y-166446200D02*
X137781826Y-166493819D01*
X137781826Y-166493819D02*
X137972302Y-166493819D01*
X137972302Y-166493819D02*
X138067540Y-166446200D01*
X138067540Y-166446200D02*
X138115159Y-166398580D01*
X138115159Y-166398580D02*
X138162778Y-166303342D01*
X138162778Y-166303342D02*
X138162778Y-165493819D01*
X139210397Y-166493819D02*
X138877064Y-166017628D01*
X138638969Y-166493819D02*
X138638969Y-165493819D01*
X138638969Y-165493819D02*
X139019921Y-165493819D01*
X139019921Y-165493819D02*
X139115159Y-165541438D01*
X139115159Y-165541438D02*
X139162778Y-165589057D01*
X139162778Y-165589057D02*
X139210397Y-165684295D01*
X139210397Y-165684295D02*
X139210397Y-165827152D01*
X139210397Y-165827152D02*
X139162778Y-165922390D01*
X139162778Y-165922390D02*
X139115159Y-165970009D01*
X139115159Y-165970009D02*
X139019921Y-166017628D01*
X139019921Y-166017628D02*
X138638969Y-166017628D01*
X139638969Y-165970009D02*
X139972302Y-165970009D01*
X140115159Y-166493819D02*
X139638969Y-166493819D01*
X139638969Y-166493819D02*
X139638969Y-165493819D01*
X139638969Y-165493819D02*
X140115159Y-165493819D01*
X136283819Y-122189904D02*
X136283819Y-122666094D01*
X136283819Y-122666094D02*
X136760009Y-122713713D01*
X136760009Y-122713713D02*
X136712390Y-122666094D01*
X136712390Y-122666094D02*
X136664771Y-122570856D01*
X136664771Y-122570856D02*
X136664771Y-122332761D01*
X136664771Y-122332761D02*
X136712390Y-122237523D01*
X136712390Y-122237523D02*
X136760009Y-122189904D01*
X136760009Y-122189904D02*
X136855247Y-122142285D01*
X136855247Y-122142285D02*
X137093342Y-122142285D01*
X137093342Y-122142285D02*
X137188580Y-122189904D01*
X137188580Y-122189904D02*
X137236200Y-122237523D01*
X137236200Y-122237523D02*
X137283819Y-122332761D01*
X137283819Y-122332761D02*
X137283819Y-122570856D01*
X137283819Y-122570856D02*
X137236200Y-122666094D01*
X137236200Y-122666094D02*
X137188580Y-122713713D01*
X136617152Y-119824523D02*
X137283819Y-119824523D01*
X136236200Y-120062618D02*
X136950485Y-120300713D01*
X136950485Y-120300713D02*
X136950485Y-119681666D01*
D12*
X104595240Y-151676977D02*
X104976193Y-151676977D01*
X104976193Y-151676977D02*
X105166669Y-151772215D01*
X105166669Y-151772215D02*
X105357145Y-151962691D01*
X105357145Y-151962691D02*
X105452383Y-152343643D01*
X105452383Y-152343643D02*
X105452383Y-153010310D01*
X105452383Y-153010310D02*
X105357145Y-153391262D01*
X105357145Y-153391262D02*
X105166669Y-153581739D01*
X105166669Y-153581739D02*
X104976193Y-153676977D01*
X104976193Y-153676977D02*
X104595240Y-153676977D01*
X104595240Y-153676977D02*
X104404764Y-153581739D01*
X104404764Y-153581739D02*
X104214288Y-153391262D01*
X104214288Y-153391262D02*
X104119050Y-153010310D01*
X104119050Y-153010310D02*
X104119050Y-152343643D01*
X104119050Y-152343643D02*
X104214288Y-151962691D01*
X104214288Y-151962691D02*
X104404764Y-151772215D01*
X104404764Y-151772215D02*
X104595240Y-151676977D01*
X106214288Y-153581739D02*
X106500002Y-153676977D01*
X106500002Y-153676977D02*
X106976193Y-153676977D01*
X106976193Y-153676977D02*
X107166669Y-153581739D01*
X107166669Y-153581739D02*
X107261907Y-153486500D01*
X107261907Y-153486500D02*
X107357145Y-153296024D01*
X107357145Y-153296024D02*
X107357145Y-153105548D01*
X107357145Y-153105548D02*
X107261907Y-152915072D01*
X107261907Y-152915072D02*
X107166669Y-152819834D01*
X107166669Y-152819834D02*
X106976193Y-152724596D01*
X106976193Y-152724596D02*
X106595240Y-152629358D01*
X106595240Y-152629358D02*
X106404764Y-152534119D01*
X106404764Y-152534119D02*
X106309526Y-152438881D01*
X106309526Y-152438881D02*
X106214288Y-152248405D01*
X106214288Y-152248405D02*
X106214288Y-152057929D01*
X106214288Y-152057929D02*
X106309526Y-151867453D01*
X106309526Y-151867453D02*
X106404764Y-151772215D01*
X106404764Y-151772215D02*
X106595240Y-151676977D01*
X106595240Y-151676977D02*
X107071431Y-151676977D01*
X107071431Y-151676977D02*
X107357145Y-151772215D01*
X108214288Y-152915072D02*
X109738098Y-152915072D01*
X110595240Y-153581739D02*
X110880954Y-153676977D01*
X110880954Y-153676977D02*
X111357145Y-153676977D01*
X111357145Y-153676977D02*
X111547621Y-153581739D01*
X111547621Y-153581739D02*
X111642859Y-153486500D01*
X111642859Y-153486500D02*
X111738097Y-153296024D01*
X111738097Y-153296024D02*
X111738097Y-153105548D01*
X111738097Y-153105548D02*
X111642859Y-152915072D01*
X111642859Y-152915072D02*
X111547621Y-152819834D01*
X111547621Y-152819834D02*
X111357145Y-152724596D01*
X111357145Y-152724596D02*
X110976192Y-152629358D01*
X110976192Y-152629358D02*
X110785716Y-152534119D01*
X110785716Y-152534119D02*
X110690478Y-152438881D01*
X110690478Y-152438881D02*
X110595240Y-152248405D01*
X110595240Y-152248405D02*
X110595240Y-152057929D01*
X110595240Y-152057929D02*
X110690478Y-151867453D01*
X110690478Y-151867453D02*
X110785716Y-151772215D01*
X110785716Y-151772215D02*
X110976192Y-151676977D01*
X110976192Y-151676977D02*
X111452383Y-151676977D01*
X111452383Y-151676977D02*
X111738097Y-151772215D01*
X113357145Y-153581739D02*
X113166669Y-153676977D01*
X113166669Y-153676977D02*
X112785716Y-153676977D01*
X112785716Y-153676977D02*
X112595240Y-153581739D01*
X112595240Y-153581739D02*
X112500002Y-153391262D01*
X112500002Y-153391262D02*
X112500002Y-152629358D01*
X112500002Y-152629358D02*
X112595240Y-152438881D01*
X112595240Y-152438881D02*
X112785716Y-152343643D01*
X112785716Y-152343643D02*
X113166669Y-152343643D01*
X113166669Y-152343643D02*
X113357145Y-152438881D01*
X113357145Y-152438881D02*
X113452383Y-152629358D01*
X113452383Y-152629358D02*
X113452383Y-152819834D01*
X113452383Y-152819834D02*
X112500002Y-153010310D01*
X114309526Y-153676977D02*
X114309526Y-152343643D01*
X114309526Y-152724596D02*
X114404764Y-152534119D01*
X114404764Y-152534119D02*
X114500002Y-152438881D01*
X114500002Y-152438881D02*
X114690478Y-152343643D01*
X114690478Y-152343643D02*
X114880955Y-152343643D01*
X115357145Y-152343643D02*
X115833335Y-153676977D01*
X115833335Y-153676977D02*
X116309526Y-152343643D01*
X117357145Y-153676977D02*
X117166669Y-153581739D01*
X117166669Y-153581739D02*
X117071431Y-153486500D01*
X117071431Y-153486500D02*
X116976193Y-153296024D01*
X116976193Y-153296024D02*
X116976193Y-152724596D01*
X116976193Y-152724596D02*
X117071431Y-152534119D01*
X117071431Y-152534119D02*
X117166669Y-152438881D01*
X117166669Y-152438881D02*
X117357145Y-152343643D01*
X117357145Y-152343643D02*
X117642860Y-152343643D01*
X117642860Y-152343643D02*
X117833336Y-152438881D01*
X117833336Y-152438881D02*
X117928574Y-152534119D01*
X117928574Y-152534119D02*
X118023812Y-152724596D01*
X118023812Y-152724596D02*
X118023812Y-153296024D01*
X118023812Y-153296024D02*
X117928574Y-153486500D01*
X117928574Y-153486500D02*
X117833336Y-153581739D01*
X117833336Y-153581739D02*
X117642860Y-153676977D01*
X117642860Y-153676977D02*
X117357145Y-153676977D01*
X105547621Y-156896865D02*
X105547621Y-154896865D01*
X105547621Y-154896865D02*
X106023811Y-154896865D01*
X106023811Y-154896865D02*
X106309526Y-154992103D01*
X106309526Y-154992103D02*
X106500002Y-155182579D01*
X106500002Y-155182579D02*
X106595240Y-155373055D01*
X106595240Y-155373055D02*
X106690478Y-155754007D01*
X106690478Y-155754007D02*
X106690478Y-156039722D01*
X106690478Y-156039722D02*
X106595240Y-156420674D01*
X106595240Y-156420674D02*
X106500002Y-156611150D01*
X106500002Y-156611150D02*
X106309526Y-156801627D01*
X106309526Y-156801627D02*
X106023811Y-156896865D01*
X106023811Y-156896865D02*
X105547621Y-156896865D01*
X108309526Y-156801627D02*
X108119050Y-156896865D01*
X108119050Y-156896865D02*
X107738097Y-156896865D01*
X107738097Y-156896865D02*
X107547621Y-156801627D01*
X107547621Y-156801627D02*
X107452383Y-156611150D01*
X107452383Y-156611150D02*
X107452383Y-155849246D01*
X107452383Y-155849246D02*
X107547621Y-155658769D01*
X107547621Y-155658769D02*
X107738097Y-155563531D01*
X107738097Y-155563531D02*
X108119050Y-155563531D01*
X108119050Y-155563531D02*
X108309526Y-155658769D01*
X108309526Y-155658769D02*
X108404764Y-155849246D01*
X108404764Y-155849246D02*
X108404764Y-156039722D01*
X108404764Y-156039722D02*
X107452383Y-156230198D01*
X110119050Y-156801627D02*
X109928574Y-156896865D01*
X109928574Y-156896865D02*
X109547621Y-156896865D01*
X109547621Y-156896865D02*
X109357145Y-156801627D01*
X109357145Y-156801627D02*
X109261907Y-156706388D01*
X109261907Y-156706388D02*
X109166669Y-156515912D01*
X109166669Y-156515912D02*
X109166669Y-155944484D01*
X109166669Y-155944484D02*
X109261907Y-155754007D01*
X109261907Y-155754007D02*
X109357145Y-155658769D01*
X109357145Y-155658769D02*
X109547621Y-155563531D01*
X109547621Y-155563531D02*
X109928574Y-155563531D01*
X109928574Y-155563531D02*
X110119050Y-155658769D01*
X111261907Y-156896865D02*
X111071431Y-156801627D01*
X111071431Y-156801627D02*
X110976193Y-156706388D01*
X110976193Y-156706388D02*
X110880955Y-156515912D01*
X110880955Y-156515912D02*
X110880955Y-155944484D01*
X110880955Y-155944484D02*
X110976193Y-155754007D01*
X110976193Y-155754007D02*
X111071431Y-155658769D01*
X111071431Y-155658769D02*
X111261907Y-155563531D01*
X111261907Y-155563531D02*
X111547622Y-155563531D01*
X111547622Y-155563531D02*
X111738098Y-155658769D01*
X111738098Y-155658769D02*
X111833336Y-155754007D01*
X111833336Y-155754007D02*
X111928574Y-155944484D01*
X111928574Y-155944484D02*
X111928574Y-156515912D01*
X111928574Y-156515912D02*
X111833336Y-156706388D01*
X111833336Y-156706388D02*
X111738098Y-156801627D01*
X111738098Y-156801627D02*
X111547622Y-156896865D01*
X111547622Y-156896865D02*
X111261907Y-156896865D01*
X113642860Y-156896865D02*
X113642860Y-154896865D01*
X113642860Y-156801627D02*
X113452384Y-156896865D01*
X113452384Y-156896865D02*
X113071431Y-156896865D01*
X113071431Y-156896865D02*
X112880955Y-156801627D01*
X112880955Y-156801627D02*
X112785717Y-156706388D01*
X112785717Y-156706388D02*
X112690479Y-156515912D01*
X112690479Y-156515912D02*
X112690479Y-155944484D01*
X112690479Y-155944484D02*
X112785717Y-155754007D01*
X112785717Y-155754007D02*
X112880955Y-155658769D01*
X112880955Y-155658769D02*
X113071431Y-155563531D01*
X113071431Y-155563531D02*
X113452384Y-155563531D01*
X113452384Y-155563531D02*
X113642860Y-155658769D01*
X115357146Y-156801627D02*
X115166670Y-156896865D01*
X115166670Y-156896865D02*
X114785717Y-156896865D01*
X114785717Y-156896865D02*
X114595241Y-156801627D01*
X114595241Y-156801627D02*
X114500003Y-156611150D01*
X114500003Y-156611150D02*
X114500003Y-155849246D01*
X114500003Y-155849246D02*
X114595241Y-155658769D01*
X114595241Y-155658769D02*
X114785717Y-155563531D01*
X114785717Y-155563531D02*
X115166670Y-155563531D01*
X115166670Y-155563531D02*
X115357146Y-155658769D01*
X115357146Y-155658769D02*
X115452384Y-155849246D01*
X115452384Y-155849246D02*
X115452384Y-156039722D01*
X115452384Y-156039722D02*
X114500003Y-156230198D01*
X116309527Y-156896865D02*
X116309527Y-155563531D01*
X116309527Y-155944484D02*
X116404765Y-155754007D01*
X116404765Y-155754007D02*
X116500003Y-155658769D01*
X116500003Y-155658769D02*
X116690479Y-155563531D01*
X116690479Y-155563531D02*
X116880956Y-155563531D01*
D10*
X103762180Y-113128588D02*
X103762180Y-112557160D01*
X103762180Y-112842874D02*
X104762180Y-112842874D01*
X104762180Y-112842874D02*
X104619323Y-112747636D01*
X104619323Y-112747636D02*
X104524085Y-112652398D01*
X104524085Y-112652398D02*
X104476466Y-112557160D01*
X104666942Y-118842876D02*
X104714561Y-118890495D01*
X104714561Y-118890495D02*
X104762180Y-118985733D01*
X104762180Y-118985733D02*
X104762180Y-119223828D01*
X104762180Y-119223828D02*
X104714561Y-119319066D01*
X104714561Y-119319066D02*
X104666942Y-119366685D01*
X104666942Y-119366685D02*
X104571704Y-119414304D01*
X104571704Y-119414304D02*
X104476466Y-119414304D01*
X104476466Y-119414304D02*
X104333609Y-119366685D01*
X104333609Y-119366685D02*
X103762180Y-118795257D01*
X103762180Y-118795257D02*
X103762180Y-119414304D01*
D12*
X106673558Y-104239638D02*
X106673558Y-102239638D01*
X106673558Y-102239638D02*
X107435463Y-102239638D01*
X107435463Y-102239638D02*
X107625939Y-102334876D01*
X107625939Y-102334876D02*
X107721177Y-102430114D01*
X107721177Y-102430114D02*
X107816415Y-102620590D01*
X107816415Y-102620590D02*
X107816415Y-102906304D01*
X107816415Y-102906304D02*
X107721177Y-103096780D01*
X107721177Y-103096780D02*
X107625939Y-103192019D01*
X107625939Y-103192019D02*
X107435463Y-103287257D01*
X107435463Y-103287257D02*
X106673558Y-103287257D01*
X109054510Y-102239638D02*
X109435463Y-102239638D01*
X109435463Y-102239638D02*
X109625939Y-102334876D01*
X109625939Y-102334876D02*
X109816415Y-102525352D01*
X109816415Y-102525352D02*
X109911653Y-102906304D01*
X109911653Y-102906304D02*
X109911653Y-103572971D01*
X109911653Y-103572971D02*
X109816415Y-103953923D01*
X109816415Y-103953923D02*
X109625939Y-104144400D01*
X109625939Y-104144400D02*
X109435463Y-104239638D01*
X109435463Y-104239638D02*
X109054510Y-104239638D01*
X109054510Y-104239638D02*
X108864034Y-104144400D01*
X108864034Y-104144400D02*
X108673558Y-103953923D01*
X108673558Y-103953923D02*
X108578320Y-103572971D01*
X108578320Y-103572971D02*
X108578320Y-102906304D01*
X108578320Y-102906304D02*
X108673558Y-102525352D01*
X108673558Y-102525352D02*
X108864034Y-102334876D01*
X108864034Y-102334876D02*
X109054510Y-102239638D01*
X110578320Y-102239638D02*
X111054510Y-104239638D01*
X111054510Y-104239638D02*
X111435463Y-102811066D01*
X111435463Y-102811066D02*
X111816415Y-104239638D01*
X111816415Y-104239638D02*
X112292606Y-102239638D01*
D10*
X104762180Y-127622541D02*
X104762180Y-128241588D01*
X104762180Y-128241588D02*
X104381228Y-127908255D01*
X104381228Y-127908255D02*
X104381228Y-128051112D01*
X104381228Y-128051112D02*
X104333609Y-128146350D01*
X104333609Y-128146350D02*
X104285990Y-128193969D01*
X104285990Y-128193969D02*
X104190752Y-128241588D01*
X104190752Y-128241588D02*
X103952657Y-128241588D01*
X103952657Y-128241588D02*
X103857419Y-128193969D01*
X103857419Y-128193969D02*
X103809800Y-128146350D01*
X103809800Y-128146350D02*
X103762180Y-128051112D01*
X103762180Y-128051112D02*
X103762180Y-127765398D01*
X103762180Y-127765398D02*
X103809800Y-127670160D01*
X103809800Y-127670160D02*
X103857419Y-127622541D01*
X104428847Y-134432066D02*
X103762180Y-134432066D01*
X104809800Y-134193971D02*
X104095514Y-133955876D01*
X104095514Y-133955876D02*
X104095514Y-134574923D01*
D11*
X140603290Y-111406714D02*
X140627100Y-111430523D01*
X140627100Y-111430523D02*
X140650909Y-111501952D01*
X140650909Y-111501952D02*
X140650909Y-111549571D01*
X140650909Y-111549571D02*
X140627100Y-111620999D01*
X140627100Y-111620999D02*
X140579480Y-111668618D01*
X140579480Y-111668618D02*
X140531861Y-111692428D01*
X140531861Y-111692428D02*
X140436623Y-111716237D01*
X140436623Y-111716237D02*
X140365195Y-111716237D01*
X140365195Y-111716237D02*
X140269957Y-111692428D01*
X140269957Y-111692428D02*
X140222338Y-111668618D01*
X140222338Y-111668618D02*
X140174719Y-111620999D01*
X140174719Y-111620999D02*
X140150909Y-111549571D01*
X140150909Y-111549571D02*
X140150909Y-111501952D01*
X140150909Y-111501952D02*
X140174719Y-111430523D01*
X140174719Y-111430523D02*
X140198528Y-111406714D01*
X140150909Y-111097190D02*
X140150909Y-111001952D01*
X140150909Y-111001952D02*
X140174719Y-110954333D01*
X140174719Y-110954333D02*
X140222338Y-110906714D01*
X140222338Y-110906714D02*
X140317576Y-110882904D01*
X140317576Y-110882904D02*
X140484242Y-110882904D01*
X140484242Y-110882904D02*
X140579480Y-110906714D01*
X140579480Y-110906714D02*
X140627100Y-110954333D01*
X140627100Y-110954333D02*
X140650909Y-111001952D01*
X140650909Y-111001952D02*
X140650909Y-111097190D01*
X140650909Y-111097190D02*
X140627100Y-111144809D01*
X140627100Y-111144809D02*
X140579480Y-111192428D01*
X140579480Y-111192428D02*
X140484242Y-111216237D01*
X140484242Y-111216237D02*
X140317576Y-111216237D01*
X140317576Y-111216237D02*
X140222338Y-111192428D01*
X140222338Y-111192428D02*
X140174719Y-111144809D01*
X140174719Y-111144809D02*
X140150909Y-111097190D01*
X140650909Y-110668618D02*
X140150909Y-110668618D01*
X140150909Y-110668618D02*
X140508052Y-110501951D01*
X140508052Y-110501951D02*
X140150909Y-110335285D01*
X140150909Y-110335285D02*
X140650909Y-110335285D01*
D10*
X136379057Y-115093713D02*
X136331438Y-115046094D01*
X136331438Y-115046094D02*
X136283819Y-114950856D01*
X136283819Y-114950856D02*
X136283819Y-114712761D01*
X136283819Y-114712761D02*
X136331438Y-114617523D01*
X136331438Y-114617523D02*
X136379057Y-114569904D01*
X136379057Y-114569904D02*
X136474295Y-114522285D01*
X136474295Y-114522285D02*
X136569533Y-114522285D01*
X136569533Y-114522285D02*
X136712390Y-114569904D01*
X136712390Y-114569904D02*
X137283819Y-115141332D01*
X137283819Y-115141332D02*
X137283819Y-114522285D01*
X141210424Y-137378839D02*
X141258043Y-137235982D01*
X141258043Y-137235982D02*
X141258043Y-136997887D01*
X141258043Y-136997887D02*
X141210424Y-136902649D01*
X141210424Y-136902649D02*
X141162804Y-136855030D01*
X141162804Y-136855030D02*
X141067566Y-136807411D01*
X141067566Y-136807411D02*
X140972328Y-136807411D01*
X140972328Y-136807411D02*
X140877090Y-136855030D01*
X140877090Y-136855030D02*
X140829471Y-136902649D01*
X140829471Y-136902649D02*
X140781852Y-136997887D01*
X140781852Y-136997887D02*
X140734233Y-137188363D01*
X140734233Y-137188363D02*
X140686614Y-137283601D01*
X140686614Y-137283601D02*
X140638995Y-137331220D01*
X140638995Y-137331220D02*
X140543757Y-137378839D01*
X140543757Y-137378839D02*
X140448519Y-137378839D01*
X140448519Y-137378839D02*
X140353281Y-137331220D01*
X140353281Y-137331220D02*
X140305662Y-137283601D01*
X140305662Y-137283601D02*
X140258043Y-137188363D01*
X140258043Y-137188363D02*
X140258043Y-136950268D01*
X140258043Y-136950268D02*
X140305662Y-136807411D01*
X141258043Y-135855030D02*
X141258043Y-136426458D01*
X141258043Y-136140744D02*
X140258043Y-136140744D01*
X140258043Y-136140744D02*
X140400900Y-136235982D01*
X140400900Y-136235982D02*
X140496138Y-136331220D01*
X140496138Y-136331220D02*
X140543757Y-136426458D01*
X143477931Y-136855030D02*
X143477931Y-137331220D01*
X143477931Y-137331220D02*
X143954121Y-137378839D01*
X143954121Y-137378839D02*
X143906502Y-137331220D01*
X143906502Y-137331220D02*
X143858883Y-137235982D01*
X143858883Y-137235982D02*
X143858883Y-136997887D01*
X143858883Y-136997887D02*
X143906502Y-136902649D01*
X143906502Y-136902649D02*
X143954121Y-136855030D01*
X143954121Y-136855030D02*
X144049359Y-136807411D01*
X144049359Y-136807411D02*
X144287454Y-136807411D01*
X144287454Y-136807411D02*
X144382692Y-136855030D01*
X144382692Y-136855030D02*
X144430312Y-136902649D01*
X144430312Y-136902649D02*
X144477931Y-136997887D01*
X144477931Y-136997887D02*
X144477931Y-137235982D01*
X144477931Y-137235982D02*
X144430312Y-137331220D01*
X144430312Y-137331220D02*
X144382692Y-137378839D01*
X143477931Y-136521696D02*
X144477931Y-136188363D01*
X144477931Y-136188363D02*
X143477931Y-135855030D01*
X146697819Y-137140744D02*
X146697819Y-137045506D01*
X146697819Y-137045506D02*
X146745438Y-136950268D01*
X146745438Y-136950268D02*
X146793057Y-136902649D01*
X146793057Y-136902649D02*
X146888295Y-136855030D01*
X146888295Y-136855030D02*
X147078771Y-136807411D01*
X147078771Y-136807411D02*
X147316866Y-136807411D01*
X147316866Y-136807411D02*
X147507342Y-136855030D01*
X147507342Y-136855030D02*
X147602580Y-136902649D01*
X147602580Y-136902649D02*
X147650200Y-136950268D01*
X147650200Y-136950268D02*
X147697819Y-137045506D01*
X147697819Y-137045506D02*
X147697819Y-137140744D01*
X147697819Y-137140744D02*
X147650200Y-137235982D01*
X147650200Y-137235982D02*
X147602580Y-137283601D01*
X147602580Y-137283601D02*
X147507342Y-137331220D01*
X147507342Y-137331220D02*
X147316866Y-137378839D01*
X147316866Y-137378839D02*
X147078771Y-137378839D01*
X147078771Y-137378839D02*
X146888295Y-137331220D01*
X146888295Y-137331220D02*
X146793057Y-137283601D01*
X146793057Y-137283601D02*
X146745438Y-137235982D01*
X146745438Y-137235982D02*
X146697819Y-137140744D01*
X146697819Y-136521696D02*
X147697819Y-136188363D01*
X147697819Y-136188363D02*
X146697819Y-135855030D01*
D13*
%TO.C,R508*%
X135484776Y-130541500D02*
X135994224Y-130541500D01*
X135484776Y-131586500D02*
X135994224Y-131586500D01*
%TO.C,R507*%
X135484776Y-128031500D02*
X135994224Y-128031500D01*
X135484776Y-129076500D02*
X135994224Y-129076500D01*
%TO.C,R506*%
X135484776Y-125521500D02*
X135994224Y-125521500D01*
X135484776Y-126566500D02*
X135994224Y-126566500D01*
%TO.C,R505*%
X135484776Y-123011500D02*
X135994224Y-123011500D01*
X135484776Y-124056500D02*
X135994224Y-124056500D01*
%TO.C,R504*%
X135484776Y-120501500D02*
X135994224Y-120501500D01*
X135484776Y-121546500D02*
X135994224Y-121546500D01*
%TO.C,R503*%
X135484776Y-117991500D02*
X135994224Y-117991500D01*
X135484776Y-119036500D02*
X135994224Y-119036500D01*
%TO.C,R502*%
X135484776Y-116526500D02*
X135994224Y-116526500D01*
X135484776Y-115481500D02*
X135994224Y-115481500D01*
%TO.C,R501*%
X135484776Y-114016500D02*
X135994224Y-114016500D01*
X135484776Y-112971500D02*
X135994224Y-112971500D01*
%TO.C,D512*%
X138437000Y-132024000D02*
X141297000Y-132024000D01*
X141297000Y-130104000D02*
X138437000Y-130104000D01*
X141297000Y-132024000D02*
X141297000Y-130104000D01*
%TO.C,D511*%
X138310000Y-129484000D02*
X141170000Y-129484000D01*
X141170000Y-127564000D02*
X138310000Y-127564000D01*
X141170000Y-129484000D02*
X141170000Y-127564000D01*
%TO.C,D510*%
X138310000Y-126944000D02*
X141170000Y-126944000D01*
X141170000Y-125024000D02*
X138310000Y-125024000D01*
X141170000Y-126944000D02*
X141170000Y-125024000D01*
%TO.C,D509*%
X138310000Y-124404000D02*
X141170000Y-124404000D01*
X141170000Y-122484000D02*
X138310000Y-122484000D01*
X141170000Y-124404000D02*
X141170000Y-122484000D01*
%TO.C,D508*%
X138310000Y-121864000D02*
X141170000Y-121864000D01*
X141170000Y-119944000D02*
X138310000Y-119944000D01*
X141170000Y-121864000D02*
X141170000Y-119944000D01*
%TO.C,D507*%
X138310000Y-119324000D02*
X141170000Y-119324000D01*
X141170000Y-117404000D02*
X138310000Y-117404000D01*
X141170000Y-119324000D02*
X141170000Y-117404000D01*
%TO.C,D506*%
X138310000Y-116784000D02*
X141170000Y-116784000D01*
X141170000Y-114864000D02*
X138310000Y-114864000D01*
X141170000Y-116784000D02*
X141170000Y-114864000D01*
%TO.C,D505*%
X141184000Y-114244000D02*
X141184000Y-112324000D01*
X141184000Y-112324000D02*
X138324000Y-112324000D01*
X138324000Y-114244000D02*
X141184000Y-114244000D01*
%TO.C,J801*%
X140145000Y-144563000D02*
X147885000Y-144563000D01*
X140145000Y-147163000D02*
X140145000Y-144563000D01*
X140145000Y-149763000D02*
X140145000Y-148433000D01*
X141475000Y-149763000D02*
X140145000Y-149763000D01*
X142745000Y-147163000D02*
X140145000Y-147163000D01*
X142745000Y-149763000D02*
X142745000Y-147163000D01*
X142745000Y-149763000D02*
X147885000Y-149763000D01*
X147885000Y-149763000D02*
X147885000Y-144563000D01*
%TO.C,C1601*%
X122154836Y-164359000D02*
X121939164Y-164359000D01*
X122154836Y-165079000D02*
X121939164Y-165079000D01*
%TO.C,R1002*%
X131081474Y-128342250D02*
X130572026Y-128342250D01*
X131081474Y-129387250D02*
X130572026Y-129387250D01*
D10*
%TO.C,U901*%
X117488500Y-117876500D02*
X117688500Y-117876500D01*
X117488500Y-122026500D02*
X117488500Y-117876500D01*
X117488500Y-122026500D02*
X117688500Y-122026500D01*
X117688500Y-122026500D02*
X117688500Y-123326500D01*
X122638500Y-117876500D02*
X122438500Y-117876500D01*
X122638500Y-122026500D02*
X122438500Y-122026500D01*
X122638500Y-122026500D02*
X122638500Y-117876500D01*
D13*
%TO.C,R1001*%
X131335474Y-113864250D02*
X130826026Y-113864250D01*
X131335474Y-114909250D02*
X130826026Y-114909250D01*
%TO.C,C904*%
X115477920Y-119078000D02*
X115759080Y-119078000D01*
X115477920Y-120098000D02*
X115759080Y-120098000D01*
%TO.C,D201*%
X107498000Y-168000000D02*
X107498000Y-170860000D01*
X107498000Y-170860000D02*
X109418000Y-170860000D01*
X109418000Y-170860000D02*
X109418000Y-168000000D01*
%TO.C,R1607*%
X130507859Y-155880000D02*
X130815141Y-155880000D01*
X130507859Y-156640000D02*
X130815141Y-156640000D01*
%TO.C,D202*%
X109911000Y-168000000D02*
X109911000Y-170860000D01*
X109911000Y-170860000D02*
X111831000Y-170860000D01*
X111831000Y-170860000D02*
X111831000Y-168000000D01*
%TO.C,SW602*%
X133270000Y-167270000D02*
X133270000Y-167300000D01*
X133270000Y-171800000D02*
X133270000Y-169200000D01*
X133270000Y-173730000D02*
X133270000Y-173700000D01*
X139730000Y-167270000D02*
X133270000Y-167270000D01*
X139730000Y-167270000D02*
X139730000Y-167300000D01*
X139730000Y-171800000D02*
X139730000Y-169200000D01*
X139730000Y-173700000D02*
X139730000Y-173730000D01*
X139730000Y-173730000D02*
X133270000Y-173730000D01*
%TO.C,J401*%
X93322500Y-124440000D02*
X93322500Y-136560000D01*
X93322500Y-136560000D02*
X102742500Y-136560000D01*
X96632500Y-124440000D02*
X96632500Y-136560000D01*
X102742500Y-124440000D02*
X93322500Y-124440000D01*
X102742500Y-124440000D02*
X102742500Y-125950000D01*
X102742500Y-128050000D02*
X102742500Y-129450000D01*
X102742500Y-131550000D02*
X102742500Y-132950000D01*
X102742500Y-136560000D02*
X102742500Y-135050000D01*
X103432500Y-127000000D02*
X104032500Y-126700000D01*
X104032500Y-126700000D02*
X104032500Y-127300000D01*
X104032500Y-127300000D02*
X103432500Y-127000000D01*
%TO.C,C202*%
X131478601Y-141054718D02*
X131631104Y-141207221D01*
X131987718Y-140545601D02*
X132140221Y-140698104D01*
%TO.C,J1401*%
X93322500Y-139440000D02*
X93322500Y-151560000D01*
X93322500Y-151560000D02*
X102742500Y-151560000D01*
X96632500Y-139440000D02*
X96632500Y-151560000D01*
X102742500Y-139440000D02*
X93322500Y-139440000D01*
X102742500Y-139440000D02*
X102742500Y-140950000D01*
X102742500Y-143050000D02*
X102742500Y-144450000D01*
X102742500Y-146550000D02*
X102742500Y-147950000D01*
X102742500Y-151560000D02*
X102742500Y-150050000D01*
X103432500Y-142000000D02*
X104032500Y-141700000D01*
X104032500Y-141700000D02*
X104032500Y-142300000D01*
X104032500Y-142300000D02*
X103432500Y-142000000D01*
%TO.C,R1601*%
X119365500Y-163068724D02*
X119365500Y-162559276D01*
X120410500Y-163068724D02*
X120410500Y-162559276D01*
%TO.C,R702*%
X138034500Y-138257276D02*
X138034500Y-138766724D01*
X139079500Y-138257276D02*
X139079500Y-138766724D01*
%TO.C,R1605*%
X130507859Y-157912000D02*
X130815141Y-157912000D01*
X130507859Y-158672000D02*
X130815141Y-158672000D01*
%TO.C,R1602*%
X130507859Y-160960000D02*
X130815141Y-160960000D01*
X130507859Y-161720000D02*
X130815141Y-161720000D01*
%TO.C,R1615*%
X119912642Y-157100000D02*
X119605360Y-157100000D01*
X119912642Y-157860000D02*
X119605360Y-157860000D01*
%TO.C,R1609*%
X130507859Y-153848000D02*
X130815141Y-153848000D01*
X130507859Y-154608000D02*
X130815141Y-154608000D01*
%TO.C,J1001*%
X140145000Y-158563000D02*
X147885000Y-158563000D01*
X140145000Y-161163000D02*
X140145000Y-158563000D01*
X140145000Y-163763000D02*
X140145000Y-162433000D01*
X141475000Y-163763000D02*
X140145000Y-163763000D01*
X142745000Y-161163000D02*
X140145000Y-161163000D01*
X142745000Y-163763000D02*
X142745000Y-161163000D01*
X142745000Y-163763000D02*
X147885000Y-163763000D01*
X147885000Y-163763000D02*
X147885000Y-158563000D01*
%TO.C,R1606*%
X130507859Y-156896000D02*
X130815141Y-156896000D01*
X130507859Y-157656000D02*
X130815141Y-157656000D01*
%TO.C,J701*%
X140145000Y-137563000D02*
X147885000Y-137563000D01*
X140145000Y-140163000D02*
X140145000Y-137563000D01*
X140145000Y-142763000D02*
X140145000Y-141433000D01*
X141475000Y-142763000D02*
X140145000Y-142763000D01*
X142745000Y-140163000D02*
X140145000Y-140163000D01*
X142745000Y-142763000D02*
X142745000Y-140163000D01*
X142745000Y-142763000D02*
X147885000Y-142763000D01*
X147885000Y-142763000D02*
X147885000Y-137563000D01*
%TO.C,J1301*%
X93322500Y-109440000D02*
X93322500Y-121560000D01*
X93322500Y-121560000D02*
X102742500Y-121560000D01*
X96632500Y-109440000D02*
X96632500Y-121560000D01*
X102742500Y-109440000D02*
X93322500Y-109440000D01*
X102742500Y-109440000D02*
X102742500Y-110950000D01*
X102742500Y-113050000D02*
X102742500Y-114450000D01*
X102742500Y-116550000D02*
X102742500Y-117950000D01*
X102742500Y-121560000D02*
X102742500Y-120050000D01*
X103432500Y-112000000D02*
X104032500Y-111700000D01*
X104032500Y-111700000D02*
X104032500Y-112300000D01*
X104032500Y-112300000D02*
X103432500Y-112000000D01*
%TO.C,SW601*%
X122770000Y-167270000D02*
X122770000Y-167300000D01*
X122770000Y-171800000D02*
X122770000Y-169200000D01*
X122770000Y-173730000D02*
X122770000Y-173700000D01*
X129230000Y-167270000D02*
X122770000Y-167270000D01*
X129230000Y-167270000D02*
X129230000Y-167300000D01*
X129230000Y-171800000D02*
X129230000Y-169200000D01*
X129230000Y-173700000D02*
X129230000Y-173730000D01*
X129230000Y-173730000D02*
X122770000Y-173730000D01*
%TO.C,R903*%
X116871758Y-114508500D02*
X116397242Y-114508500D01*
X116871758Y-115553500D02*
X116397242Y-115553500D01*
%TO.C,R1603*%
X130507859Y-159944000D02*
X130815141Y-159944000D01*
X130507859Y-160704000D02*
X130815141Y-160704000D01*
%TO.C,R202*%
X115317000Y-169458621D02*
X115317000Y-169123379D01*
X116077000Y-169458621D02*
X116077000Y-169123379D01*
%TO.C,R1604*%
X130507859Y-158928000D02*
X130815141Y-158928000D01*
X130507859Y-159688000D02*
X130815141Y-159688000D01*
%TO.C,R1617*%
X119912642Y-159132000D02*
X119605360Y-159132000D01*
X119912642Y-159892000D02*
X119605360Y-159892000D01*
%TO.C,J501*%
X141620000Y-109311000D02*
X147940000Y-109311000D01*
X141620000Y-135291000D02*
X141620000Y-109311000D01*
X141620000Y-135291000D02*
X147940000Y-135291000D01*
X142080000Y-135291000D02*
X142080000Y-109311000D01*
X147380000Y-135291000D02*
X147380000Y-109311000D01*
X147440000Y-135531000D02*
X148180000Y-135531000D01*
X147940000Y-135291000D02*
X147940000Y-109311000D01*
X148180000Y-135531000D02*
X148180000Y-135031000D01*
%TO.C,J901*%
X140145000Y-151563000D02*
X147885000Y-151563000D01*
X140145000Y-154163000D02*
X140145000Y-151563000D01*
X140145000Y-156763000D02*
X140145000Y-155433000D01*
X141475000Y-156763000D02*
X140145000Y-156763000D01*
X142745000Y-154163000D02*
X140145000Y-154163000D01*
X142745000Y-156763000D02*
X142745000Y-154163000D01*
X142745000Y-156763000D02*
X147885000Y-156763000D01*
X147885000Y-156763000D02*
X147885000Y-151563000D01*
%TO.C,R1614*%
X119912642Y-156084000D02*
X119605360Y-156084000D01*
X119912642Y-156844000D02*
X119605360Y-156844000D01*
%TO.C,R1612*%
X119912642Y-154052000D02*
X119605360Y-154052000D01*
X119912642Y-154812000D02*
X119605360Y-154812000D01*
%TO.C,R1610*%
X120168641Y-152020000D02*
X119861359Y-152020000D01*
X120168641Y-152780000D02*
X119861359Y-152780000D01*
%TO.C,C201*%
X133722000Y-137729420D02*
X133722000Y-138010580D01*
X134742000Y-137729420D02*
X134742000Y-138010580D01*
%TO.C,R203*%
X110415500Y-164972276D02*
X110415500Y-165481724D01*
X111460500Y-164972276D02*
X111460500Y-165481724D01*
%TO.C,U1001*%
X123959750Y-118289750D02*
X124249750Y-118289750D01*
X123959750Y-121709750D02*
X123959750Y-118289750D01*
X123959750Y-121709750D02*
X123959750Y-125129750D01*
X123959750Y-125129750D02*
X124249750Y-125129750D01*
X133039750Y-118289750D02*
X133039750Y-116009750D01*
X133329750Y-118289750D02*
X133039750Y-118289750D01*
X133329750Y-121709750D02*
X133329750Y-118289750D01*
X133329750Y-121709750D02*
X133329750Y-125129750D01*
X133329750Y-125129750D02*
X133039750Y-125129750D01*
%TO.C,J201*%
X101550000Y-173830000D02*
X101550000Y-172500000D01*
X102880000Y-173830000D02*
X101550000Y-173830000D01*
X104150000Y-171170000D02*
X116910000Y-171170000D01*
X104150000Y-173830000D02*
X104150000Y-171170000D01*
X104150000Y-173830000D02*
X116910000Y-173830000D01*
X116910000Y-173830000D02*
X116910000Y-171170000D01*
%TO.C,R901*%
X116397242Y-112857500D02*
X116871758Y-112857500D01*
X116397242Y-113902500D02*
X116871758Y-113902500D01*
%TO.C,R905*%
X138034500Y-152257276D02*
X138034500Y-152766724D01*
X139079500Y-152257276D02*
X139079500Y-152766724D01*
%TO.C,R1003*%
X127271474Y-128342250D02*
X126762026Y-128342250D01*
X127271474Y-129387250D02*
X126762026Y-129387250D01*
%TO.C,C901*%
X118553080Y-124681000D02*
X118271920Y-124681000D01*
X118553080Y-125701000D02*
X118271920Y-125701000D01*
%TO.C,C203*%
X131610580Y-134439000D02*
X131329420Y-134439000D01*
X131610580Y-135459000D02*
X131329420Y-135459000D01*
%TO.C,R1608*%
X130507859Y-154864000D02*
X130815141Y-154864000D01*
X130507859Y-155624000D02*
X130815141Y-155624000D01*
D10*
%TO.C,U202*%
X122873476Y-145500000D02*
X123103286Y-145270190D01*
X122873476Y-145500000D02*
X123103286Y-145729810D01*
X128000000Y-140373476D02*
X127770190Y-140603286D01*
X128000000Y-140373476D02*
X128229810Y-140603286D01*
X128000000Y-150626524D02*
X127770190Y-150396714D01*
X128000000Y-150626524D02*
X128229810Y-150396714D01*
X132967425Y-145340901D02*
X133975052Y-144333274D01*
X133126524Y-145500000D02*
X132896714Y-145729810D01*
X133126524Y-145500000D02*
X132967425Y-145340901D01*
D13*
%TO.C,D502*%
X108850000Y-113010000D02*
X108850000Y-107500000D01*
X108850000Y-113010000D02*
X112150000Y-113010000D01*
X112150000Y-113010000D02*
X112150000Y-107500000D01*
%TO.C,D503*%
X104900000Y-120510000D02*
X104900000Y-115000000D01*
X104900000Y-120510000D02*
X108200000Y-120510000D01*
X108200000Y-120510000D02*
X108200000Y-115000000D01*
%TO.C,R1611*%
X119912642Y-153036000D02*
X119605360Y-153036000D01*
X119912642Y-153796000D02*
X119605360Y-153796000D01*
%TO.C,U1101*%
X107640000Y-139115000D02*
X107640000Y-139360000D01*
X107640000Y-150885000D02*
X107640000Y-150640000D01*
X111500000Y-139115000D02*
X107640000Y-139115000D01*
X111500000Y-139115000D02*
X115360000Y-139115000D01*
X111500000Y-150885000D02*
X107640000Y-150885000D01*
X111500000Y-150885000D02*
X115360000Y-150885000D01*
X115360000Y-139115000D02*
X115360000Y-139360000D01*
X115360000Y-150885000D02*
X115360000Y-150640000D01*
X116552500Y-151110000D02*
X115872500Y-151110000D01*
X116212500Y-150640000D01*
X116552500Y-151110000D01*
G36*
X116552500Y-151110000D02*
G01*
X115872500Y-151110000D01*
X116212500Y-150640000D01*
X116552500Y-151110000D01*
G37*
%TO.C,C905*%
X115477920Y-120744000D02*
X115759080Y-120744000D01*
X115477920Y-121764000D02*
X115759080Y-121764000D01*
%TO.C,R904*%
X138034500Y-156195724D02*
X138034500Y-155686276D01*
X139079500Y-156195724D02*
X139079500Y-155686276D01*
%TO.C,D401*%
X122387000Y-139231000D02*
X119727000Y-139231000D01*
X122387000Y-140931000D02*
X119727000Y-140931000D01*
X122387000Y-140931000D02*
X122387000Y-139231000D01*
%TO.C,R701*%
X138034500Y-142195724D02*
X138034500Y-141686276D01*
X139079500Y-142195724D02*
X139079500Y-141686276D01*
%TO.C,Y201*%
X130281000Y-139427000D02*
X132781000Y-139427000D01*
X132781000Y-136227000D01*
X130281000Y-136227000D01*
X130281000Y-139427000D01*
%TO.C,D1001*%
X129007750Y-113409750D02*
X126347750Y-113409750D01*
X129007750Y-115109750D02*
X126347750Y-115109750D01*
X129007750Y-115109750D02*
X129007750Y-113409750D01*
%TO.C,C402*%
X120967580Y-141671000D02*
X120686420Y-141671000D01*
X120967580Y-142691000D02*
X120686420Y-142691000D01*
%TO.C,J1501*%
X93322500Y-154440000D02*
X93322500Y-166560000D01*
X93322500Y-166560000D02*
X102742500Y-166560000D01*
X96632500Y-154440000D02*
X96632500Y-166560000D01*
X102742500Y-154440000D02*
X93322500Y-154440000D01*
X102742500Y-154440000D02*
X102742500Y-155950000D01*
X102742500Y-158050000D02*
X102742500Y-159450000D01*
X102742500Y-161550000D02*
X102742500Y-162950000D01*
X102742500Y-166560000D02*
X102742500Y-165050000D01*
X103432500Y-157000000D02*
X104032500Y-156700000D01*
X104032500Y-156700000D02*
X104032500Y-157300000D01*
X104032500Y-157300000D02*
X103432500Y-157000000D01*
%TO.C,D501*%
X108850000Y-120510000D02*
X108850000Y-115000000D01*
X108850000Y-120510000D02*
X112150000Y-120510000D01*
X112150000Y-120510000D02*
X112150000Y-115000000D01*
%TO.C,R802*%
X138034500Y-145257276D02*
X138034500Y-145766724D01*
X139079500Y-145257276D02*
X139079500Y-145766724D01*
%TO.C,U1601*%
X122970500Y-154197000D02*
X122970500Y-154472000D01*
X122970500Y-164117000D02*
X122970500Y-163842000D01*
X125280500Y-154197000D02*
X122970500Y-154197000D01*
X125280500Y-154197000D02*
X127590500Y-154197000D01*
X125280500Y-164117000D02*
X122970500Y-164117000D01*
X125280500Y-164117000D02*
X127590500Y-164117000D01*
X127590500Y-154197000D02*
X127590500Y-154472000D01*
X127590500Y-164117000D02*
X127590500Y-163842000D01*
X128420500Y-164172000D02*
X127940500Y-164172000D01*
X128180500Y-163842000D01*
X128420500Y-164172000D01*
G36*
X128420500Y-164172000D02*
G01*
X127940500Y-164172000D01*
X128180500Y-163842000D01*
X128420500Y-164172000D01*
G37*
%TO.C,J101*%
X113135000Y-100822500D02*
X113135000Y-110242500D01*
X113135000Y-110242500D02*
X114645000Y-110242500D01*
X118145000Y-110242500D02*
X116745000Y-110242500D01*
X121645000Y-110242500D02*
X120245000Y-110242500D01*
X125145000Y-110242500D02*
X123745000Y-110242500D01*
X125895000Y-111532500D02*
X126195000Y-110932500D01*
X126195000Y-110932500D02*
X126495000Y-111532500D01*
X126495000Y-111532500D02*
X125895000Y-111532500D01*
X128755000Y-100822500D02*
X113135000Y-100822500D01*
X128755000Y-104132500D02*
X113135000Y-104132500D01*
X128755000Y-110242500D02*
X127245000Y-110242500D01*
X128755000Y-110242500D02*
X128755000Y-100822500D01*
%TO.C,R1616*%
X119912642Y-158116000D02*
X119605360Y-158116000D01*
X119912642Y-158876000D02*
X119605360Y-158876000D01*
%TO.C,R1613*%
X119912642Y-155068000D02*
X119605360Y-155068000D01*
X119912642Y-155828000D02*
X119605360Y-155828000D01*
%TO.C,R1004*%
X138034500Y-163195724D02*
X138034500Y-162686276D01*
X139079500Y-163195724D02*
X139079500Y-162686276D01*
%TO.C,C902*%
X120943664Y-124323000D02*
X121159336Y-124323000D01*
X120943664Y-125043000D02*
X121159336Y-125043000D01*
%TO.C,C903*%
X120943664Y-125466000D02*
X121159336Y-125466000D01*
X120943664Y-126186000D02*
X121159336Y-126186000D01*
%TO.C,L901*%
X117940000Y-135441000D02*
X120440000Y-135441000D01*
X120440000Y-127041000D02*
X117940000Y-127041000D01*
%TO.C,C401*%
X105140000Y-126704437D02*
X105140000Y-134360000D01*
X105140000Y-134360000D02*
X107990000Y-134360000D01*
X106204437Y-125640000D02*
X105140000Y-126704437D01*
X106204437Y-125640000D02*
X107990000Y-125640000D01*
X112010000Y-124400000D02*
X112010000Y-125400000D01*
X112510000Y-124900000D02*
X111510000Y-124900000D01*
X112795563Y-125640000D02*
X111010000Y-125640000D01*
X112795563Y-125640000D02*
X113860000Y-126704437D01*
X113860000Y-126704437D02*
X113860000Y-134360000D01*
X113860000Y-134360000D02*
X111010000Y-134360000D01*
%TO.C,C906*%
X115512664Y-117846000D02*
X115728336Y-117846000D01*
X115512664Y-118566000D02*
X115728336Y-118566000D01*
%TO.C,R902*%
X119572242Y-114000500D02*
X120046758Y-114000500D01*
X119572242Y-115045500D02*
X120046758Y-115045500D01*
%TO.C,R801*%
X138034500Y-149195724D02*
X138034500Y-148686276D01*
X139079500Y-149195724D02*
X139079500Y-148686276D01*
%TO.C,D504*%
X104850000Y-113010000D02*
X104850000Y-107500000D01*
X104850000Y-113010000D02*
X108150000Y-113010000D01*
X108150000Y-113010000D02*
X108150000Y-107500000D01*
%TO.C,R1005*%
X138034500Y-159257276D02*
X138034500Y-159766724D01*
X139079500Y-159257276D02*
X139079500Y-159766724D01*
%TO.C,C501*%
X108595580Y-120967000D02*
X108314420Y-120967000D01*
X108595580Y-121987000D02*
X108314420Y-121987000D01*
%TO.C,R201*%
X107941500Y-164972276D02*
X107941500Y-165481724D01*
X108986500Y-164972276D02*
X108986500Y-165481724D01*
%TD*%
%LPC*%
D14*
%TO.C,R508*%
X134827000Y-131064000D03*
X136652000Y-131064000D03*
%TD*%
%TO.C,R507*%
X134827000Y-128554000D03*
X136652000Y-128554000D03*
%TD*%
%TO.C,R506*%
X134827000Y-126044000D03*
X136652000Y-126044000D03*
%TD*%
%TO.C,R505*%
X134827000Y-123534000D03*
X136652000Y-123534000D03*
%TD*%
%TO.C,R504*%
X134827000Y-121024000D03*
X136652000Y-121024000D03*
%TD*%
%TO.C,R503*%
X134827000Y-118514000D03*
X136652000Y-118514000D03*
%TD*%
%TO.C,R502*%
X136652000Y-116004000D03*
X134827000Y-116004000D03*
%TD*%
%TO.C,R501*%
X136652000Y-113494000D03*
X134827000Y-113494000D03*
%TD*%
D15*
%TO.C,D512*%
X138412000Y-131064000D03*
X140462000Y-131064000D03*
%TD*%
%TO.C,D511*%
X138285000Y-128524000D03*
X140335000Y-128524000D03*
%TD*%
%TO.C,D510*%
X138285000Y-125984000D03*
X140335000Y-125984000D03*
%TD*%
%TO.C,D509*%
X138285000Y-123444000D03*
X140335000Y-123444000D03*
%TD*%
%TO.C,D508*%
X138285000Y-120904000D03*
X140335000Y-120904000D03*
%TD*%
%TO.C,D507*%
X138285000Y-118364000D03*
X140335000Y-118364000D03*
%TD*%
%TO.C,D506*%
X138285000Y-115824000D03*
X140335000Y-115824000D03*
%TD*%
%TO.C,D505*%
X140349000Y-113284000D03*
X138299000Y-113284000D03*
%TD*%
D16*
%TO.C,J801*%
X141475000Y-148433000D03*
D17*
X141475000Y-145893000D03*
X144015000Y-148433000D03*
X144015000Y-145893000D03*
X146555000Y-148433000D03*
X146555000Y-145893000D03*
%TD*%
D18*
%TO.C,C1601*%
X122527000Y-164719000D03*
X121567000Y-164719000D03*
%TD*%
D19*
%TO.C,R1002*%
X131739250Y-128864750D03*
X129914250Y-128864750D03*
%TD*%
D20*
%TO.C,U901*%
X118158500Y-122731500D03*
X119428500Y-122731500D03*
X120698500Y-122731500D03*
X121968500Y-122731500D03*
X121968500Y-117171500D03*
X120698500Y-117171500D03*
X119428500Y-117171500D03*
X118158500Y-117171500D03*
D21*
X119288500Y-120554000D03*
X120838500Y-120554000D03*
X119288500Y-119349000D03*
X120838500Y-119349000D03*
%TD*%
D19*
%TO.C,R1001*%
X131993250Y-114386750D03*
X130168250Y-114386750D03*
%TD*%
D22*
%TO.C,C904*%
X114843500Y-119588000D03*
X116393500Y-119588000D03*
%TD*%
D23*
%TO.C,D201*%
X108458000Y-170025000D03*
X108458000Y-167975000D03*
%TD*%
D24*
%TO.C,R1607*%
X130151500Y-156260000D03*
X131171500Y-156260000D03*
%TD*%
D23*
%TO.C,D202*%
X110871000Y-170025000D03*
X110871000Y-167975000D03*
%TD*%
D25*
%TO.C,SW602*%
X140475000Y-172750000D03*
X132525000Y-172750000D03*
X140475000Y-168250000D03*
X132525000Y-168250000D03*
%TD*%
D26*
%TO.C,J401*%
X101432500Y-127000000D03*
D27*
X101432500Y-130500000D03*
X101432500Y-134000000D03*
%TD*%
D28*
%TO.C,C202*%
X131470000Y-140537000D03*
X132148822Y-141215822D03*
%TD*%
D26*
%TO.C,J1401*%
X101432500Y-142000000D03*
D27*
X101432500Y-145500000D03*
X101432500Y-149000000D03*
%TD*%
D29*
%TO.C,R1601*%
X119888000Y-163726500D03*
X119888000Y-161901500D03*
%TD*%
D30*
%TO.C,R702*%
X138557000Y-137599500D03*
X138557000Y-139424500D03*
%TD*%
D24*
%TO.C,R1605*%
X130151500Y-158292000D03*
X131171500Y-158292000D03*
%TD*%
%TO.C,R1602*%
X130151500Y-161340000D03*
X131171500Y-161340000D03*
%TD*%
D31*
%TO.C,R1615*%
X120269000Y-157480000D03*
X119249002Y-157480000D03*
%TD*%
D24*
%TO.C,R1609*%
X130151500Y-154228000D03*
X131171500Y-154228000D03*
%TD*%
D16*
%TO.C,J1001*%
X141475000Y-162433000D03*
D17*
X141475000Y-159893000D03*
X144015000Y-162433000D03*
X144015000Y-159893000D03*
X146555000Y-162433000D03*
X146555000Y-159893000D03*
%TD*%
D24*
%TO.C,R1606*%
X130151500Y-157276000D03*
X131171500Y-157276000D03*
%TD*%
D16*
%TO.C,J701*%
X141475000Y-141433000D03*
D17*
X141475000Y-138893000D03*
X144015000Y-141433000D03*
X144015000Y-138893000D03*
X146555000Y-141433000D03*
X146555000Y-138893000D03*
%TD*%
D26*
%TO.C,J1301*%
X101432500Y-112000000D03*
D27*
X101432500Y-115500000D03*
X101432500Y-119000000D03*
%TD*%
D25*
%TO.C,SW601*%
X129975000Y-172750000D03*
X122025000Y-172750000D03*
X129975000Y-168250000D03*
X122025000Y-168250000D03*
%TD*%
D32*
%TO.C,REF\u002A\u002A*%
X145000000Y-171000000D03*
%TD*%
D33*
%TO.C,R903*%
X117459500Y-115031000D03*
X115809500Y-115031000D03*
%TD*%
D24*
%TO.C,R1603*%
X130151500Y-160324000D03*
X131171500Y-160324000D03*
%TD*%
D34*
%TO.C,R202*%
X115697000Y-169888500D03*
X115697000Y-168693500D03*
%TD*%
D24*
%TO.C,R1604*%
X130151500Y-159308000D03*
X131171500Y-159308000D03*
%TD*%
D31*
%TO.C,R1617*%
X120269000Y-159512000D03*
X119249002Y-159512000D03*
%TD*%
D35*
%TO.C,J501*%
X144780000Y-133731000D03*
D36*
X144780000Y-131191000D03*
X144780000Y-128651000D03*
X144780000Y-126111000D03*
X144780000Y-123571000D03*
X144780000Y-121031000D03*
X144780000Y-118491000D03*
X144780000Y-115951000D03*
X144780000Y-113411000D03*
X144780000Y-110871000D03*
%TD*%
D16*
%TO.C,J901*%
X141475000Y-155433000D03*
D17*
X141475000Y-152893000D03*
X144015000Y-155433000D03*
X144015000Y-152893000D03*
X146555000Y-155433000D03*
X146555000Y-152893000D03*
%TD*%
D31*
%TO.C,R1614*%
X120269000Y-156464000D03*
X119249002Y-156464000D03*
%TD*%
%TO.C,R1612*%
X120269000Y-154432000D03*
X119249002Y-154432000D03*
%TD*%
%TO.C,R1610*%
X120524999Y-152400000D03*
X119505001Y-152400000D03*
%TD*%
D37*
%TO.C,C201*%
X134232000Y-137095000D03*
X134232000Y-138645000D03*
%TD*%
D30*
%TO.C,R203*%
X110938000Y-164314500D03*
X110938000Y-166139500D03*
%TD*%
D38*
%TO.C,U1001*%
X132454750Y-117184750D03*
X129914750Y-117184750D03*
X127374750Y-117184750D03*
X124834750Y-117184750D03*
X124834750Y-126234750D03*
X127374750Y-126234750D03*
X129914750Y-126234750D03*
X132454750Y-126234750D03*
%TD*%
D16*
%TO.C,J201*%
X102880000Y-172500000D03*
D17*
X105420000Y-172500000D03*
X107960000Y-172500000D03*
X110500000Y-172500000D03*
X113040000Y-172500000D03*
X115580000Y-172500000D03*
%TD*%
D39*
%TO.C,R901*%
X115809500Y-113380000D03*
X117459500Y-113380000D03*
%TD*%
D30*
%TO.C,R905*%
X138557000Y-151599500D03*
X138557000Y-153424500D03*
%TD*%
D19*
%TO.C,R1003*%
X127929250Y-128864750D03*
X126104250Y-128864750D03*
%TD*%
D40*
%TO.C,C901*%
X119187500Y-125191000D03*
X117637500Y-125191000D03*
%TD*%
%TO.C,C203*%
X132245000Y-134949000D03*
X130695000Y-134949000D03*
%TD*%
D24*
%TO.C,R1608*%
X130151500Y-155244000D03*
X131171500Y-155244000D03*
%TD*%
D41*
%TO.C,U202*%
X132985103Y-144474695D03*
X132419417Y-143909010D03*
X131853732Y-143343324D03*
X131288047Y-142777639D03*
X130722361Y-142211953D03*
X130156676Y-141646268D03*
X129590990Y-141080583D03*
X129025305Y-140514897D03*
D42*
X126974695Y-140514897D03*
X126409010Y-141080583D03*
X125843324Y-141646268D03*
X125277639Y-142211953D03*
X124711953Y-142777639D03*
X124146268Y-143343324D03*
X123580583Y-143909010D03*
X123014897Y-144474695D03*
D41*
X123014897Y-146525305D03*
X123580583Y-147090990D03*
X124146268Y-147656676D03*
X124711953Y-148222361D03*
X125277639Y-148788047D03*
X125843324Y-149353732D03*
X126409010Y-149919417D03*
X126974695Y-150485103D03*
D42*
X129025305Y-150485103D03*
X129590990Y-149919417D03*
X130156676Y-149353732D03*
X130722361Y-148788047D03*
X131288047Y-148222361D03*
X131853732Y-147656676D03*
X132419417Y-147090990D03*
X132985103Y-146525305D03*
%TD*%
D43*
%TO.C,D502*%
X110500000Y-111500000D03*
X110500000Y-107500000D03*
%TD*%
%TO.C,D503*%
X106550000Y-119000000D03*
X106550000Y-115000000D03*
%TD*%
D31*
%TO.C,R1611*%
X120269000Y-153416000D03*
X119249002Y-153416000D03*
%TD*%
D44*
%TO.C,U1101*%
X116150000Y-150080000D03*
X116150000Y-148810000D03*
X116150000Y-147540000D03*
X116150000Y-146270000D03*
X116150000Y-145000000D03*
X116150000Y-143730000D03*
X116150000Y-142460000D03*
X116150000Y-141190000D03*
X116150000Y-139920000D03*
X106850000Y-139920000D03*
X106850000Y-141190000D03*
X106850000Y-142460000D03*
X106850000Y-143730000D03*
X106850000Y-145000000D03*
X106850000Y-146270000D03*
X106850000Y-147540000D03*
X106850000Y-148810000D03*
X106850000Y-150080000D03*
%TD*%
D22*
%TO.C,C905*%
X114843500Y-121254000D03*
X116393500Y-121254000D03*
%TD*%
D29*
%TO.C,R904*%
X138557000Y-156853500D03*
X138557000Y-155028500D03*
%TD*%
D32*
%TO.C,REF\u002A\u002A*%
X97500000Y-105000000D03*
%TD*%
D45*
%TO.C,D401*%
X121827000Y-140081000D03*
X119727000Y-140081000D03*
%TD*%
D29*
%TO.C,R701*%
X138557000Y-142853500D03*
X138557000Y-141028500D03*
%TD*%
D46*
%TO.C,Y201*%
X132481000Y-138927000D03*
X132481000Y-136727000D03*
X130581000Y-136727000D03*
X130581000Y-138927000D03*
%TD*%
D45*
%TO.C,D1001*%
X128447750Y-114259750D03*
X126347750Y-114259750D03*
%TD*%
D40*
%TO.C,C402*%
X121602000Y-142181000D03*
X120052000Y-142181000D03*
%TD*%
D32*
%TO.C,REF\u002A\u002A*%
X97500000Y-171000000D03*
%TD*%
D26*
%TO.C,J1501*%
X101432500Y-157000000D03*
D27*
X101432500Y-160500000D03*
X101432500Y-164000000D03*
%TD*%
D43*
%TO.C,D501*%
X110500000Y-119000000D03*
X110500000Y-115000000D03*
%TD*%
D30*
%TO.C,R802*%
X138557000Y-144599500D03*
X138557000Y-146424500D03*
%TD*%
D32*
%TO.C,REF\u002A\u002A*%
X145000000Y-105000000D03*
%TD*%
D47*
%TO.C,U1601*%
X128143000Y-163382000D03*
X128143000Y-162732000D03*
X128143000Y-162082000D03*
X128143000Y-161432000D03*
X128143000Y-160782000D03*
X128143000Y-160132000D03*
X128143000Y-159482000D03*
X128143000Y-158832000D03*
X128143000Y-158182000D03*
X128143000Y-157532000D03*
X128143000Y-156882000D03*
X128143000Y-156232000D03*
X128143000Y-155582000D03*
X128143000Y-154932000D03*
X122418000Y-154932000D03*
X122418000Y-155582000D03*
X122418000Y-156232000D03*
X122418000Y-156882000D03*
X122418000Y-157532000D03*
X122418000Y-158182000D03*
X122418000Y-158832000D03*
X122418000Y-159482000D03*
X122418000Y-160132000D03*
X122418000Y-160782000D03*
X122418000Y-161432000D03*
X122418000Y-162082000D03*
X122418000Y-162732000D03*
X122418000Y-163382000D03*
%TD*%
D48*
%TO.C,J101*%
X126195000Y-108932500D03*
D49*
X122695000Y-108932500D03*
X119195000Y-108932500D03*
X115695000Y-108932500D03*
%TD*%
D31*
%TO.C,R1616*%
X120269000Y-158496000D03*
X119249002Y-158496000D03*
%TD*%
%TO.C,R1613*%
X120269000Y-155448000D03*
X119249002Y-155448000D03*
%TD*%
D29*
%TO.C,R1004*%
X138557000Y-163853500D03*
X138557000Y-162028500D03*
%TD*%
D50*
%TO.C,C902*%
X120571500Y-124683000D03*
X121531500Y-124683000D03*
%TD*%
%TO.C,C903*%
X120571500Y-125826000D03*
X121531500Y-125826000D03*
%TD*%
D51*
%TO.C,L901*%
X121990000Y-131241000D03*
X116390000Y-131241000D03*
%TD*%
D52*
%TO.C,C401*%
X109500000Y-126300000D03*
X109500000Y-133700000D03*
%TD*%
D50*
%TO.C,C906*%
X115140500Y-118206000D03*
X116100500Y-118206000D03*
%TD*%
D39*
%TO.C,R902*%
X118984500Y-114523000D03*
X120634500Y-114523000D03*
%TD*%
D29*
%TO.C,R801*%
X138557000Y-149853500D03*
X138557000Y-148028500D03*
%TD*%
D43*
%TO.C,D504*%
X106500000Y-111500000D03*
X106500000Y-107500000D03*
%TD*%
D30*
%TO.C,R1005*%
X138557000Y-158599500D03*
X138557000Y-160424500D03*
%TD*%
D40*
%TO.C,C501*%
X109230000Y-121477000D03*
X107680000Y-121477000D03*
%TD*%
D30*
%TO.C,R201*%
X108464000Y-164314500D03*
X108464000Y-166139500D03*
%TD*%
%LPD*%
M02*
