%TF.GenerationSoftware,KiCad,Pcbnew,8.0.8*%
%TF.CreationDate,2025-06-27T13:45:21+02:00*%
%TF.ProjectId,OS-servo-decoder-8,4f532d73-6572-4766-9f2d-6465636f6465,rev?*%
%TF.SameCoordinates,Original*%
%TF.FileFunction,Soldermask,Bot*%
%TF.FilePolarity,Negative*%
%FSLAX46Y46*%
G04 Gerber Fmt 4.6, Leading zero omitted, Abs format (unit mm)*
G04 Created by KiCad (PCBNEW 8.0.8) date 2025-06-27 13:45:21*
%MOMM*%
%LPD*%
G01*
G04 APERTURE LIST*
G04 Aperture macros list*
%AMRoundRect*
0 Rectangle with rounded corners*
0 $1 Rounding radius*
0 $2 $3 $4 $5 $6 $7 $8 $9 X,Y pos of 4 corners*
0 Add a 4 corners polygon primitive as box body*
4,1,4,$2,$3,$4,$5,$6,$7,$8,$9,$2,$3,0*
0 Add four circle primitives for the rounded corners*
1,1,$1+$1,$2,$3*
1,1,$1+$1,$4,$5*
1,1,$1+$1,$6,$7*
1,1,$1+$1,$8,$9*
0 Add four rect primitives between the rounded corners*
20,1,$1+$1,$2,$3,$4,$5,0*
20,1,$1+$1,$4,$5,$6,$7,0*
20,1,$1+$1,$6,$7,$8,$9,0*
20,1,$1+$1,$8,$9,$2,$3,0*%
G04 Aperture macros list end*
%ADD10R,1.700000X1.700000*%
%ADD11O,1.700000X1.700000*%
%ADD12RoundRect,0.250000X-1.550000X0.650000X-1.550000X-0.650000X1.550000X-0.650000X1.550000X0.650000X0*%
%ADD13O,3.600000X1.800000*%
%ADD14C,3.200000*%
%ADD15R,2.200000X2.200000*%
%ADD16C,2.200000*%
%ADD17RoundRect,0.250000X0.650000X1.550000X-0.650000X1.550000X-0.650000X-1.550000X0.650000X-1.550000X0*%
%ADD18O,1.800000X3.600000*%
G04 APERTURE END LIST*
D10*
%TO.C,J801*%
X141475000Y-148433000D03*
D11*
X141475000Y-145893000D03*
X144015000Y-148433000D03*
X144015000Y-145893000D03*
X146555000Y-148433000D03*
X146555000Y-145893000D03*
%TD*%
D12*
%TO.C,J401*%
X101432500Y-127000000D03*
D13*
X101432500Y-130500000D03*
X101432500Y-134000000D03*
%TD*%
D12*
%TO.C,J1401*%
X101432500Y-142000000D03*
D13*
X101432500Y-145500000D03*
X101432500Y-149000000D03*
%TD*%
D10*
%TO.C,J1001*%
X141475000Y-162433000D03*
D11*
X141475000Y-159893000D03*
X144015000Y-162433000D03*
X144015000Y-159893000D03*
X146555000Y-162433000D03*
X146555000Y-159893000D03*
%TD*%
D10*
%TO.C,J701*%
X141475000Y-141433000D03*
D11*
X141475000Y-138893000D03*
X144015000Y-141433000D03*
X144015000Y-138893000D03*
X146555000Y-141433000D03*
X146555000Y-138893000D03*
%TD*%
D12*
%TO.C,J1301*%
X101432500Y-112000000D03*
D13*
X101432500Y-115500000D03*
X101432500Y-119000000D03*
%TD*%
D14*
%TO.C,REF\u002A\u002A*%
X145000000Y-171000000D03*
%TD*%
D15*
%TO.C,J501*%
X144780000Y-133731000D03*
D16*
X144780000Y-131191000D03*
X144780000Y-128651000D03*
X144780000Y-126111000D03*
X144780000Y-123571000D03*
X144780000Y-121031000D03*
X144780000Y-118491000D03*
X144780000Y-115951000D03*
X144780000Y-113411000D03*
X144780000Y-110871000D03*
%TD*%
D10*
%TO.C,J901*%
X141475000Y-155433000D03*
D11*
X141475000Y-152893000D03*
X144015000Y-155433000D03*
X144015000Y-152893000D03*
X146555000Y-155433000D03*
X146555000Y-152893000D03*
%TD*%
D10*
%TO.C,J201*%
X102880000Y-172500000D03*
D11*
X105420000Y-172500000D03*
X107960000Y-172500000D03*
X110500000Y-172500000D03*
X113040000Y-172500000D03*
X115580000Y-172500000D03*
%TD*%
D14*
%TO.C,REF\u002A\u002A*%
X97500000Y-105000000D03*
%TD*%
%TO.C,REF\u002A\u002A*%
X97500000Y-171000000D03*
%TD*%
D12*
%TO.C,J1501*%
X101432500Y-157000000D03*
D13*
X101432500Y-160500000D03*
X101432500Y-164000000D03*
%TD*%
D14*
%TO.C,REF\u002A\u002A*%
X145000000Y-105000000D03*
%TD*%
D17*
%TO.C,J101*%
X126195000Y-108932500D03*
D18*
X122695000Y-108932500D03*
X119195000Y-108932500D03*
X115695000Y-108932500D03*
%TD*%
M02*
