%TF.GenerationSoftware,KiCad,Pcbnew,8.0.8*%
%TF.CreationDate,2025-06-27T13:45:21+02:00*%
%TF.ProjectId,OS-servo-decoder-8,4f532d73-6572-4766-9f2d-6465636f6465,rev?*%
%TF.SameCoordinates,Original*%
%TF.FileFunction,Legend,Bot*%
%TF.FilePolarity,Positive*%
%FSLAX46Y46*%
G04 Gerber Fmt 4.6, Leading zero omitted, Abs format (unit mm)*
G04 Created by KiCad (PCBNEW 8.0.8) date 2025-06-27 13:45:21*
%MOMM*%
%LPD*%
G01*
G04 APERTURE LIST*
G04 Aperture macros list*
%AMRoundRect*
0 Rectangle with rounded corners*
0 $1 Rounding radius*
0 $2 $3 $4 $5 $6 $7 $8 $9 X,Y pos of 4 corners*
0 Add a 4 corners polygon primitive as box body*
4,1,4,$2,$3,$4,$5,$6,$7,$8,$9,$2,$3,0*
0 Add four circle primitives for the rounded corners*
1,1,$1+$1,$2,$3*
1,1,$1+$1,$4,$5*
1,1,$1+$1,$6,$7*
1,1,$1+$1,$8,$9*
0 Add four rect primitives between the rounded corners*
20,1,$1+$1,$2,$3,$4,$5,0*
20,1,$1+$1,$4,$5,$6,$7,0*
20,1,$1+$1,$6,$7,$8,$9,0*
20,1,$1+$1,$8,$9,$2,$3,0*%
G04 Aperture macros list end*
%ADD10C,0.150000*%
%ADD11C,0.000000*%
%ADD12R,1.700000X1.700000*%
%ADD13O,1.700000X1.700000*%
%ADD14RoundRect,0.250000X-1.550000X0.650000X-1.550000X-0.650000X1.550000X-0.650000X1.550000X0.650000X0*%
%ADD15O,3.600000X1.800000*%
%ADD16C,3.200000*%
%ADD17R,2.200000X2.200000*%
%ADD18C,2.200000*%
%ADD19RoundRect,0.250000X0.650000X1.550000X-0.650000X1.550000X-0.650000X-1.550000X0.650000X-1.550000X0*%
%ADD20O,1.800000X3.600000*%
G04 APERTURE END LIST*
D10*
X120139411Y-105869819D02*
X120710839Y-105869819D01*
X120425125Y-105869819D02*
X120425125Y-104869819D01*
X120425125Y-104869819D02*
X120520363Y-105012676D01*
X120520363Y-105012676D02*
X120615601Y-105107914D01*
X120615601Y-105107914D02*
X120710839Y-105155533D01*
X119567982Y-105298390D02*
X119663220Y-105250771D01*
X119663220Y-105250771D02*
X119710839Y-105203152D01*
X119710839Y-105203152D02*
X119758458Y-105107914D01*
X119758458Y-105107914D02*
X119758458Y-105060295D01*
X119758458Y-105060295D02*
X119710839Y-104965057D01*
X119710839Y-104965057D02*
X119663220Y-104917438D01*
X119663220Y-104917438D02*
X119567982Y-104869819D01*
X119567982Y-104869819D02*
X119377506Y-104869819D01*
X119377506Y-104869819D02*
X119282268Y-104917438D01*
X119282268Y-104917438D02*
X119234649Y-104965057D01*
X119234649Y-104965057D02*
X119187030Y-105060295D01*
X119187030Y-105060295D02*
X119187030Y-105107914D01*
X119187030Y-105107914D02*
X119234649Y-105203152D01*
X119234649Y-105203152D02*
X119282268Y-105250771D01*
X119282268Y-105250771D02*
X119377506Y-105298390D01*
X119377506Y-105298390D02*
X119567982Y-105298390D01*
X119567982Y-105298390D02*
X119663220Y-105346009D01*
X119663220Y-105346009D02*
X119710839Y-105393628D01*
X119710839Y-105393628D02*
X119758458Y-105488866D01*
X119758458Y-105488866D02*
X119758458Y-105679342D01*
X119758458Y-105679342D02*
X119710839Y-105774580D01*
X119710839Y-105774580D02*
X119663220Y-105822200D01*
X119663220Y-105822200D02*
X119567982Y-105869819D01*
X119567982Y-105869819D02*
X119377506Y-105869819D01*
X119377506Y-105869819D02*
X119282268Y-105822200D01*
X119282268Y-105822200D02*
X119234649Y-105774580D01*
X119234649Y-105774580D02*
X119187030Y-105679342D01*
X119187030Y-105679342D02*
X119187030Y-105488866D01*
X119187030Y-105488866D02*
X119234649Y-105393628D01*
X119234649Y-105393628D02*
X119282268Y-105346009D01*
X119282268Y-105346009D02*
X119377506Y-105298390D01*
X118901315Y-104869819D02*
X118567982Y-105869819D01*
X118567982Y-105869819D02*
X118234649Y-104869819D01*
X117139410Y-105869819D02*
X117139410Y-104869819D01*
X117139410Y-104869819D02*
X116901315Y-104869819D01*
X116901315Y-104869819D02*
X116758458Y-104917438D01*
X116758458Y-104917438D02*
X116663220Y-105012676D01*
X116663220Y-105012676D02*
X116615601Y-105107914D01*
X116615601Y-105107914D02*
X116567982Y-105298390D01*
X116567982Y-105298390D02*
X116567982Y-105441247D01*
X116567982Y-105441247D02*
X116615601Y-105631723D01*
X116615601Y-105631723D02*
X116663220Y-105726961D01*
X116663220Y-105726961D02*
X116758458Y-105822200D01*
X116758458Y-105822200D02*
X116901315Y-105869819D01*
X116901315Y-105869819D02*
X117139410Y-105869819D01*
X115567982Y-105774580D02*
X115615601Y-105822200D01*
X115615601Y-105822200D02*
X115758458Y-105869819D01*
X115758458Y-105869819D02*
X115853696Y-105869819D01*
X115853696Y-105869819D02*
X115996553Y-105822200D01*
X115996553Y-105822200D02*
X116091791Y-105726961D01*
X116091791Y-105726961D02*
X116139410Y-105631723D01*
X116139410Y-105631723D02*
X116187029Y-105441247D01*
X116187029Y-105441247D02*
X116187029Y-105298390D01*
X116187029Y-105298390D02*
X116139410Y-105107914D01*
X116139410Y-105107914D02*
X116091791Y-105012676D01*
X116091791Y-105012676D02*
X115996553Y-104917438D01*
X115996553Y-104917438D02*
X115853696Y-104869819D01*
X115853696Y-104869819D02*
X115758458Y-104869819D01*
X115758458Y-104869819D02*
X115615601Y-104917438D01*
X115615601Y-104917438D02*
X115567982Y-104965057D01*
X114425125Y-104822200D02*
X115282267Y-106107914D01*
X114091791Y-105869819D02*
X114091791Y-104869819D01*
X114091791Y-104869819D02*
X113853696Y-104869819D01*
X113853696Y-104869819D02*
X113710839Y-104917438D01*
X113710839Y-104917438D02*
X113615601Y-105012676D01*
X113615601Y-105012676D02*
X113567982Y-105107914D01*
X113567982Y-105107914D02*
X113520363Y-105298390D01*
X113520363Y-105298390D02*
X113520363Y-105441247D01*
X113520363Y-105441247D02*
X113567982Y-105631723D01*
X113567982Y-105631723D02*
X113615601Y-105726961D01*
X113615601Y-105726961D02*
X113710839Y-105822200D01*
X113710839Y-105822200D02*
X113853696Y-105869819D01*
X113853696Y-105869819D02*
X114091791Y-105869819D01*
X112520363Y-105774580D02*
X112567982Y-105822200D01*
X112567982Y-105822200D02*
X112710839Y-105869819D01*
X112710839Y-105869819D02*
X112806077Y-105869819D01*
X112806077Y-105869819D02*
X112948934Y-105822200D01*
X112948934Y-105822200D02*
X113044172Y-105726961D01*
X113044172Y-105726961D02*
X113091791Y-105631723D01*
X113091791Y-105631723D02*
X113139410Y-105441247D01*
X113139410Y-105441247D02*
X113139410Y-105298390D01*
X113139410Y-105298390D02*
X113091791Y-105107914D01*
X113091791Y-105107914D02*
X113044172Y-105012676D01*
X113044172Y-105012676D02*
X112948934Y-104917438D01*
X112948934Y-104917438D02*
X112806077Y-104869819D01*
X112806077Y-104869819D02*
X112710839Y-104869819D01*
X112710839Y-104869819D02*
X112567982Y-104917438D01*
X112567982Y-104917438D02*
X112520363Y-104965057D01*
X111520363Y-105774580D02*
X111567982Y-105822200D01*
X111567982Y-105822200D02*
X111710839Y-105869819D01*
X111710839Y-105869819D02*
X111806077Y-105869819D01*
X111806077Y-105869819D02*
X111948934Y-105822200D01*
X111948934Y-105822200D02*
X112044172Y-105726961D01*
X112044172Y-105726961D02*
X112091791Y-105631723D01*
X112091791Y-105631723D02*
X112139410Y-105441247D01*
X112139410Y-105441247D02*
X112139410Y-105298390D01*
X112139410Y-105298390D02*
X112091791Y-105107914D01*
X112091791Y-105107914D02*
X112044172Y-105012676D01*
X112044172Y-105012676D02*
X111948934Y-104917438D01*
X111948934Y-104917438D02*
X111806077Y-104869819D01*
X111806077Y-104869819D02*
X111710839Y-104869819D01*
X111710839Y-104869819D02*
X111567982Y-104917438D01*
X111567982Y-104917438D02*
X111520363Y-104965057D01*
X137777353Y-122774152D02*
X137777353Y-123583676D01*
X137777353Y-123583676D02*
X137824972Y-123678914D01*
X137824972Y-123678914D02*
X137872591Y-123726533D01*
X137872591Y-123726533D02*
X137967829Y-123774152D01*
X137967829Y-123774152D02*
X138110686Y-123774152D01*
X138110686Y-123774152D02*
X138205924Y-123726533D01*
X137777353Y-123393200D02*
X137872591Y-123440819D01*
X137872591Y-123440819D02*
X138063067Y-123440819D01*
X138063067Y-123440819D02*
X138158305Y-123393200D01*
X138158305Y-123393200D02*
X138205924Y-123345580D01*
X138205924Y-123345580D02*
X138253543Y-123250342D01*
X138253543Y-123250342D02*
X138253543Y-122964628D01*
X138253543Y-122964628D02*
X138205924Y-122869390D01*
X138205924Y-122869390D02*
X138158305Y-122821771D01*
X138158305Y-122821771D02*
X138063067Y-122774152D01*
X138063067Y-122774152D02*
X137872591Y-122774152D01*
X137872591Y-122774152D02*
X137777353Y-122821771D01*
X137301162Y-123440819D02*
X137301162Y-122774152D01*
X137301162Y-122440819D02*
X137348781Y-122488438D01*
X137348781Y-122488438D02*
X137301162Y-122536057D01*
X137301162Y-122536057D02*
X137253543Y-122488438D01*
X137253543Y-122488438D02*
X137301162Y-122440819D01*
X137301162Y-122440819D02*
X137301162Y-122536057D01*
X136967829Y-122774152D02*
X136586877Y-122774152D01*
X136824972Y-122440819D02*
X136824972Y-123297961D01*
X136824972Y-123297961D02*
X136777353Y-123393200D01*
X136777353Y-123393200D02*
X136682115Y-123440819D01*
X136682115Y-123440819D02*
X136586877Y-123440819D01*
X136253543Y-123440819D02*
X136253543Y-122440819D01*
X135824972Y-123440819D02*
X135824972Y-122917009D01*
X135824972Y-122917009D02*
X135872591Y-122821771D01*
X135872591Y-122821771D02*
X135967829Y-122774152D01*
X135967829Y-122774152D02*
X136110686Y-122774152D01*
X136110686Y-122774152D02*
X136205924Y-122821771D01*
X136205924Y-122821771D02*
X136253543Y-122869390D01*
X134920210Y-122774152D02*
X134920210Y-123440819D01*
X135348781Y-122774152D02*
X135348781Y-123297961D01*
X135348781Y-123297961D02*
X135301162Y-123393200D01*
X135301162Y-123393200D02*
X135205924Y-123440819D01*
X135205924Y-123440819D02*
X135063067Y-123440819D01*
X135063067Y-123440819D02*
X134967829Y-123393200D01*
X134967829Y-123393200D02*
X134920210Y-123345580D01*
X134444019Y-123440819D02*
X134444019Y-122440819D01*
X134444019Y-122821771D02*
X134348781Y-122774152D01*
X134348781Y-122774152D02*
X134158305Y-122774152D01*
X134158305Y-122774152D02*
X134063067Y-122821771D01*
X134063067Y-122821771D02*
X134015448Y-122869390D01*
X134015448Y-122869390D02*
X133967829Y-122964628D01*
X133967829Y-122964628D02*
X133967829Y-123250342D01*
X133967829Y-123250342D02*
X134015448Y-123345580D01*
X134015448Y-123345580D02*
X134063067Y-123393200D01*
X134063067Y-123393200D02*
X134158305Y-123440819D01*
X134158305Y-123440819D02*
X134348781Y-123440819D01*
X134348781Y-123440819D02*
X134444019Y-123393200D01*
X133539257Y-123345580D02*
X133491638Y-123393200D01*
X133491638Y-123393200D02*
X133539257Y-123440819D01*
X133539257Y-123440819D02*
X133586876Y-123393200D01*
X133586876Y-123393200D02*
X133539257Y-123345580D01*
X133539257Y-123345580D02*
X133539257Y-123440819D01*
X132634496Y-123393200D02*
X132729734Y-123440819D01*
X132729734Y-123440819D02*
X132920210Y-123440819D01*
X132920210Y-123440819D02*
X133015448Y-123393200D01*
X133015448Y-123393200D02*
X133063067Y-123345580D01*
X133063067Y-123345580D02*
X133110686Y-123250342D01*
X133110686Y-123250342D02*
X133110686Y-122964628D01*
X133110686Y-122964628D02*
X133063067Y-122869390D01*
X133063067Y-122869390D02*
X133015448Y-122821771D01*
X133015448Y-122821771D02*
X132920210Y-122774152D01*
X132920210Y-122774152D02*
X132729734Y-122774152D01*
X132729734Y-122774152D02*
X132634496Y-122821771D01*
X132063067Y-123440819D02*
X132158305Y-123393200D01*
X132158305Y-123393200D02*
X132205924Y-123345580D01*
X132205924Y-123345580D02*
X132253543Y-123250342D01*
X132253543Y-123250342D02*
X132253543Y-122964628D01*
X132253543Y-122964628D02*
X132205924Y-122869390D01*
X132205924Y-122869390D02*
X132158305Y-122821771D01*
X132158305Y-122821771D02*
X132063067Y-122774152D01*
X132063067Y-122774152D02*
X131920210Y-122774152D01*
X131920210Y-122774152D02*
X131824972Y-122821771D01*
X131824972Y-122821771D02*
X131777353Y-122869390D01*
X131777353Y-122869390D02*
X131729734Y-122964628D01*
X131729734Y-122964628D02*
X131729734Y-123250342D01*
X131729734Y-123250342D02*
X131777353Y-123345580D01*
X131777353Y-123345580D02*
X131824972Y-123393200D01*
X131824972Y-123393200D02*
X131920210Y-123440819D01*
X131920210Y-123440819D02*
X132063067Y-123440819D01*
X131301162Y-123440819D02*
X131301162Y-122774152D01*
X131301162Y-122869390D02*
X131253543Y-122821771D01*
X131253543Y-122821771D02*
X131158305Y-122774152D01*
X131158305Y-122774152D02*
X131015448Y-122774152D01*
X131015448Y-122774152D02*
X130920210Y-122821771D01*
X130920210Y-122821771D02*
X130872591Y-122917009D01*
X130872591Y-122917009D02*
X130872591Y-123440819D01*
X130872591Y-122917009D02*
X130824972Y-122821771D01*
X130824972Y-122821771D02*
X130729734Y-122774152D01*
X130729734Y-122774152D02*
X130586877Y-122774152D01*
X130586877Y-122774152D02*
X130491638Y-122821771D01*
X130491638Y-122821771D02*
X130444019Y-122917009D01*
X130444019Y-122917009D02*
X130444019Y-123440819D01*
X129253544Y-122393200D02*
X130110686Y-123678914D01*
X128729734Y-122440819D02*
X128539258Y-122440819D01*
X128539258Y-122440819D02*
X128444020Y-122488438D01*
X128444020Y-122488438D02*
X128348782Y-122583676D01*
X128348782Y-122583676D02*
X128301163Y-122774152D01*
X128301163Y-122774152D02*
X128301163Y-123107485D01*
X128301163Y-123107485D02*
X128348782Y-123297961D01*
X128348782Y-123297961D02*
X128444020Y-123393200D01*
X128444020Y-123393200D02*
X128539258Y-123440819D01*
X128539258Y-123440819D02*
X128729734Y-123440819D01*
X128729734Y-123440819D02*
X128824972Y-123393200D01*
X128824972Y-123393200D02*
X128920210Y-123297961D01*
X128920210Y-123297961D02*
X128967829Y-123107485D01*
X128967829Y-123107485D02*
X128967829Y-122774152D01*
X128967829Y-122774152D02*
X128920210Y-122583676D01*
X128920210Y-122583676D02*
X128824972Y-122488438D01*
X128824972Y-122488438D02*
X128729734Y-122440819D01*
X127872591Y-122774152D02*
X127872591Y-123774152D01*
X127872591Y-122821771D02*
X127777353Y-122774152D01*
X127777353Y-122774152D02*
X127586877Y-122774152D01*
X127586877Y-122774152D02*
X127491639Y-122821771D01*
X127491639Y-122821771D02*
X127444020Y-122869390D01*
X127444020Y-122869390D02*
X127396401Y-122964628D01*
X127396401Y-122964628D02*
X127396401Y-123250342D01*
X127396401Y-123250342D02*
X127444020Y-123345580D01*
X127444020Y-123345580D02*
X127491639Y-123393200D01*
X127491639Y-123393200D02*
X127586877Y-123440819D01*
X127586877Y-123440819D02*
X127777353Y-123440819D01*
X127777353Y-123440819D02*
X127872591Y-123393200D01*
X126586877Y-123393200D02*
X126682115Y-123440819D01*
X126682115Y-123440819D02*
X126872591Y-123440819D01*
X126872591Y-123440819D02*
X126967829Y-123393200D01*
X126967829Y-123393200D02*
X127015448Y-123297961D01*
X127015448Y-123297961D02*
X127015448Y-122917009D01*
X127015448Y-122917009D02*
X126967829Y-122821771D01*
X126967829Y-122821771D02*
X126872591Y-122774152D01*
X126872591Y-122774152D02*
X126682115Y-122774152D01*
X126682115Y-122774152D02*
X126586877Y-122821771D01*
X126586877Y-122821771D02*
X126539258Y-122917009D01*
X126539258Y-122917009D02*
X126539258Y-123012247D01*
X126539258Y-123012247D02*
X127015448Y-123107485D01*
X126110686Y-122774152D02*
X126110686Y-123440819D01*
X126110686Y-122869390D02*
X126063067Y-122821771D01*
X126063067Y-122821771D02*
X125967829Y-122774152D01*
X125967829Y-122774152D02*
X125824972Y-122774152D01*
X125824972Y-122774152D02*
X125729734Y-122821771D01*
X125729734Y-122821771D02*
X125682115Y-122917009D01*
X125682115Y-122917009D02*
X125682115Y-123440819D01*
X125205924Y-123059866D02*
X124444020Y-123059866D01*
X124015448Y-123393200D02*
X123872591Y-123440819D01*
X123872591Y-123440819D02*
X123634496Y-123440819D01*
X123634496Y-123440819D02*
X123539258Y-123393200D01*
X123539258Y-123393200D02*
X123491639Y-123345580D01*
X123491639Y-123345580D02*
X123444020Y-123250342D01*
X123444020Y-123250342D02*
X123444020Y-123155104D01*
X123444020Y-123155104D02*
X123491639Y-123059866D01*
X123491639Y-123059866D02*
X123539258Y-123012247D01*
X123539258Y-123012247D02*
X123634496Y-122964628D01*
X123634496Y-122964628D02*
X123824972Y-122917009D01*
X123824972Y-122917009D02*
X123920210Y-122869390D01*
X123920210Y-122869390D02*
X123967829Y-122821771D01*
X123967829Y-122821771D02*
X124015448Y-122726533D01*
X124015448Y-122726533D02*
X124015448Y-122631295D01*
X124015448Y-122631295D02*
X123967829Y-122536057D01*
X123967829Y-122536057D02*
X123920210Y-122488438D01*
X123920210Y-122488438D02*
X123824972Y-122440819D01*
X123824972Y-122440819D02*
X123586877Y-122440819D01*
X123586877Y-122440819D02*
X123444020Y-122488438D01*
X122872591Y-123440819D02*
X122967829Y-123393200D01*
X122967829Y-123393200D02*
X123015448Y-123345580D01*
X123015448Y-123345580D02*
X123063067Y-123250342D01*
X123063067Y-123250342D02*
X123063067Y-122964628D01*
X123063067Y-122964628D02*
X123015448Y-122869390D01*
X123015448Y-122869390D02*
X122967829Y-122821771D01*
X122967829Y-122821771D02*
X122872591Y-122774152D01*
X122872591Y-122774152D02*
X122729734Y-122774152D01*
X122729734Y-122774152D02*
X122634496Y-122821771D01*
X122634496Y-122821771D02*
X122586877Y-122869390D01*
X122586877Y-122869390D02*
X122539258Y-122964628D01*
X122539258Y-122964628D02*
X122539258Y-123250342D01*
X122539258Y-123250342D02*
X122586877Y-123345580D01*
X122586877Y-123345580D02*
X122634496Y-123393200D01*
X122634496Y-123393200D02*
X122729734Y-123440819D01*
X122729734Y-123440819D02*
X122872591Y-123440819D01*
X121682115Y-122774152D02*
X121682115Y-123440819D01*
X122110686Y-122774152D02*
X122110686Y-123297961D01*
X122110686Y-123297961D02*
X122063067Y-123393200D01*
X122063067Y-123393200D02*
X121967829Y-123440819D01*
X121967829Y-123440819D02*
X121824972Y-123440819D01*
X121824972Y-123440819D02*
X121729734Y-123393200D01*
X121729734Y-123393200D02*
X121682115Y-123345580D01*
X121205924Y-123440819D02*
X121205924Y-122774152D01*
X121205924Y-122964628D02*
X121158305Y-122869390D01*
X121158305Y-122869390D02*
X121110686Y-122821771D01*
X121110686Y-122821771D02*
X121015448Y-122774152D01*
X121015448Y-122774152D02*
X120920210Y-122774152D01*
X120158305Y-123393200D02*
X120253543Y-123440819D01*
X120253543Y-123440819D02*
X120444019Y-123440819D01*
X120444019Y-123440819D02*
X120539257Y-123393200D01*
X120539257Y-123393200D02*
X120586876Y-123345580D01*
X120586876Y-123345580D02*
X120634495Y-123250342D01*
X120634495Y-123250342D02*
X120634495Y-122964628D01*
X120634495Y-122964628D02*
X120586876Y-122869390D01*
X120586876Y-122869390D02*
X120539257Y-122821771D01*
X120539257Y-122821771D02*
X120444019Y-122774152D01*
X120444019Y-122774152D02*
X120253543Y-122774152D01*
X120253543Y-122774152D02*
X120158305Y-122821771D01*
X119348781Y-123393200D02*
X119444019Y-123440819D01*
X119444019Y-123440819D02*
X119634495Y-123440819D01*
X119634495Y-123440819D02*
X119729733Y-123393200D01*
X119729733Y-123393200D02*
X119777352Y-123297961D01*
X119777352Y-123297961D02*
X119777352Y-122917009D01*
X119777352Y-122917009D02*
X119729733Y-122821771D01*
X119729733Y-122821771D02*
X119634495Y-122774152D01*
X119634495Y-122774152D02*
X119444019Y-122774152D01*
X119444019Y-122774152D02*
X119348781Y-122821771D01*
X119348781Y-122821771D02*
X119301162Y-122917009D01*
X119301162Y-122917009D02*
X119301162Y-123012247D01*
X119301162Y-123012247D02*
X119777352Y-123107485D01*
X118872590Y-123059866D02*
X118110686Y-123059866D01*
X117634495Y-123440819D02*
X117634495Y-122440819D01*
X117634495Y-122440819D02*
X117301162Y-123155104D01*
X117301162Y-123155104D02*
X116967829Y-122440819D01*
X116967829Y-122440819D02*
X116967829Y-123440819D01*
X116348781Y-123440819D02*
X116444019Y-123393200D01*
X116444019Y-123393200D02*
X116491638Y-123345580D01*
X116491638Y-123345580D02*
X116539257Y-123250342D01*
X116539257Y-123250342D02*
X116539257Y-122964628D01*
X116539257Y-122964628D02*
X116491638Y-122869390D01*
X116491638Y-122869390D02*
X116444019Y-122821771D01*
X116444019Y-122821771D02*
X116348781Y-122774152D01*
X116348781Y-122774152D02*
X116205924Y-122774152D01*
X116205924Y-122774152D02*
X116110686Y-122821771D01*
X116110686Y-122821771D02*
X116063067Y-122869390D01*
X116063067Y-122869390D02*
X116015448Y-122964628D01*
X116015448Y-122964628D02*
X116015448Y-123250342D01*
X116015448Y-123250342D02*
X116063067Y-123345580D01*
X116063067Y-123345580D02*
X116110686Y-123393200D01*
X116110686Y-123393200D02*
X116205924Y-123440819D01*
X116205924Y-123440819D02*
X116348781Y-123440819D01*
X115158305Y-123440819D02*
X115158305Y-122440819D01*
X115158305Y-123393200D02*
X115253543Y-123440819D01*
X115253543Y-123440819D02*
X115444019Y-123440819D01*
X115444019Y-123440819D02*
X115539257Y-123393200D01*
X115539257Y-123393200D02*
X115586876Y-123345580D01*
X115586876Y-123345580D02*
X115634495Y-123250342D01*
X115634495Y-123250342D02*
X115634495Y-122964628D01*
X115634495Y-122964628D02*
X115586876Y-122869390D01*
X115586876Y-122869390D02*
X115539257Y-122821771D01*
X115539257Y-122821771D02*
X115444019Y-122774152D01*
X115444019Y-122774152D02*
X115253543Y-122774152D01*
X115253543Y-122774152D02*
X115158305Y-122821771D01*
X114301162Y-123393200D02*
X114396400Y-123440819D01*
X114396400Y-123440819D02*
X114586876Y-123440819D01*
X114586876Y-123440819D02*
X114682114Y-123393200D01*
X114682114Y-123393200D02*
X114729733Y-123297961D01*
X114729733Y-123297961D02*
X114729733Y-122917009D01*
X114729733Y-122917009D02*
X114682114Y-122821771D01*
X114682114Y-122821771D02*
X114586876Y-122774152D01*
X114586876Y-122774152D02*
X114396400Y-122774152D01*
X114396400Y-122774152D02*
X114301162Y-122821771D01*
X114301162Y-122821771D02*
X114253543Y-122917009D01*
X114253543Y-122917009D02*
X114253543Y-123012247D01*
X114253543Y-123012247D02*
X114729733Y-123107485D01*
X113682114Y-123440819D02*
X113777352Y-123393200D01*
X113777352Y-123393200D02*
X113824971Y-123297961D01*
X113824971Y-123297961D02*
X113824971Y-122440819D01*
X113301161Y-123059866D02*
X112539257Y-123059866D01*
X111491638Y-123440819D02*
X111824971Y-122964628D01*
X112063066Y-123440819D02*
X112063066Y-122440819D01*
X112063066Y-122440819D02*
X111682114Y-122440819D01*
X111682114Y-122440819D02*
X111586876Y-122488438D01*
X111586876Y-122488438D02*
X111539257Y-122536057D01*
X111539257Y-122536057D02*
X111491638Y-122631295D01*
X111491638Y-122631295D02*
X111491638Y-122774152D01*
X111491638Y-122774152D02*
X111539257Y-122869390D01*
X111539257Y-122869390D02*
X111586876Y-122917009D01*
X111586876Y-122917009D02*
X111682114Y-122964628D01*
X111682114Y-122964628D02*
X112063066Y-122964628D01*
X110634495Y-123440819D02*
X110634495Y-122917009D01*
X110634495Y-122917009D02*
X110682114Y-122821771D01*
X110682114Y-122821771D02*
X110777352Y-122774152D01*
X110777352Y-122774152D02*
X110967828Y-122774152D01*
X110967828Y-122774152D02*
X111063066Y-122821771D01*
X110634495Y-123393200D02*
X110729733Y-123440819D01*
X110729733Y-123440819D02*
X110967828Y-123440819D01*
X110967828Y-123440819D02*
X111063066Y-123393200D01*
X111063066Y-123393200D02*
X111110685Y-123297961D01*
X111110685Y-123297961D02*
X111110685Y-123202723D01*
X111110685Y-123202723D02*
X111063066Y-123107485D01*
X111063066Y-123107485D02*
X110967828Y-123059866D01*
X110967828Y-123059866D02*
X110729733Y-123059866D01*
X110729733Y-123059866D02*
X110634495Y-123012247D01*
X110158304Y-123440819D02*
X110158304Y-122774152D01*
X110158304Y-122440819D02*
X110205923Y-122488438D01*
X110205923Y-122488438D02*
X110158304Y-122536057D01*
X110158304Y-122536057D02*
X110110685Y-122488438D01*
X110110685Y-122488438D02*
X110158304Y-122440819D01*
X110158304Y-122440819D02*
X110158304Y-122536057D01*
X109539257Y-123440819D02*
X109634495Y-123393200D01*
X109634495Y-123393200D02*
X109682114Y-123297961D01*
X109682114Y-123297961D02*
X109682114Y-122440819D01*
X109253542Y-122774152D02*
X109063066Y-123440819D01*
X109063066Y-123440819D02*
X108872590Y-122964628D01*
X108872590Y-122964628D02*
X108682114Y-123440819D01*
X108682114Y-123440819D02*
X108491638Y-122774152D01*
X107682114Y-123440819D02*
X107682114Y-122917009D01*
X107682114Y-122917009D02*
X107729733Y-122821771D01*
X107729733Y-122821771D02*
X107824971Y-122774152D01*
X107824971Y-122774152D02*
X108015447Y-122774152D01*
X108015447Y-122774152D02*
X108110685Y-122821771D01*
X107682114Y-123393200D02*
X107777352Y-123440819D01*
X107777352Y-123440819D02*
X108015447Y-123440819D01*
X108015447Y-123440819D02*
X108110685Y-123393200D01*
X108110685Y-123393200D02*
X108158304Y-123297961D01*
X108158304Y-123297961D02*
X108158304Y-123202723D01*
X108158304Y-123202723D02*
X108110685Y-123107485D01*
X108110685Y-123107485D02*
X108015447Y-123059866D01*
X108015447Y-123059866D02*
X107777352Y-123059866D01*
X107777352Y-123059866D02*
X107682114Y-123012247D01*
X107301161Y-122774152D02*
X107063066Y-123440819D01*
X106824971Y-122774152D02*
X107063066Y-123440819D01*
X107063066Y-123440819D02*
X107158304Y-123678914D01*
X107158304Y-123678914D02*
X107205923Y-123726533D01*
X107205923Y-123726533D02*
X107301161Y-123774152D01*
X106444018Y-123059866D02*
X105682114Y-123059866D01*
X105205923Y-122917009D02*
X104872590Y-122917009D01*
X104729733Y-123440819D02*
X105205923Y-123440819D01*
X105205923Y-123440819D02*
X105205923Y-122440819D01*
X105205923Y-122440819D02*
X104729733Y-122440819D01*
X104158304Y-123440819D02*
X104253542Y-123393200D01*
X104253542Y-123393200D02*
X104301161Y-123297961D01*
X104301161Y-123297961D02*
X104301161Y-122440819D01*
X103396399Y-123393200D02*
X103491637Y-123440819D01*
X103491637Y-123440819D02*
X103682113Y-123440819D01*
X103682113Y-123440819D02*
X103777351Y-123393200D01*
X103777351Y-123393200D02*
X103824970Y-123297961D01*
X103824970Y-123297961D02*
X103824970Y-122917009D01*
X103824970Y-122917009D02*
X103777351Y-122821771D01*
X103777351Y-122821771D02*
X103682113Y-122774152D01*
X103682113Y-122774152D02*
X103491637Y-122774152D01*
X103491637Y-122774152D02*
X103396399Y-122821771D01*
X103396399Y-122821771D02*
X103348780Y-122917009D01*
X103348780Y-122917009D02*
X103348780Y-123012247D01*
X103348780Y-123012247D02*
X103824970Y-123107485D01*
X102491637Y-123393200D02*
X102586875Y-123440819D01*
X102586875Y-123440819D02*
X102777351Y-123440819D01*
X102777351Y-123440819D02*
X102872589Y-123393200D01*
X102872589Y-123393200D02*
X102920208Y-123345580D01*
X102920208Y-123345580D02*
X102967827Y-123250342D01*
X102967827Y-123250342D02*
X102967827Y-122964628D01*
X102967827Y-122964628D02*
X102920208Y-122869390D01*
X102920208Y-122869390D02*
X102872589Y-122821771D01*
X102872589Y-122821771D02*
X102777351Y-122774152D01*
X102777351Y-122774152D02*
X102586875Y-122774152D01*
X102586875Y-122774152D02*
X102491637Y-122821771D01*
X102205922Y-122774152D02*
X101824970Y-122774152D01*
X102063065Y-122440819D02*
X102063065Y-123297961D01*
X102063065Y-123297961D02*
X102015446Y-123393200D01*
X102015446Y-123393200D02*
X101920208Y-123440819D01*
X101920208Y-123440819D02*
X101824970Y-123440819D01*
X101491636Y-123440819D02*
X101491636Y-122774152D01*
X101491636Y-122964628D02*
X101444017Y-122869390D01*
X101444017Y-122869390D02*
X101396398Y-122821771D01*
X101396398Y-122821771D02*
X101301160Y-122774152D01*
X101301160Y-122774152D02*
X101205922Y-122774152D01*
X100729731Y-123440819D02*
X100824969Y-123393200D01*
X100824969Y-123393200D02*
X100872588Y-123345580D01*
X100872588Y-123345580D02*
X100920207Y-123250342D01*
X100920207Y-123250342D02*
X100920207Y-122964628D01*
X100920207Y-122964628D02*
X100872588Y-122869390D01*
X100872588Y-122869390D02*
X100824969Y-122821771D01*
X100824969Y-122821771D02*
X100729731Y-122774152D01*
X100729731Y-122774152D02*
X100586874Y-122774152D01*
X100586874Y-122774152D02*
X100491636Y-122821771D01*
X100491636Y-122821771D02*
X100444017Y-122869390D01*
X100444017Y-122869390D02*
X100396398Y-122964628D01*
X100396398Y-122964628D02*
X100396398Y-123250342D01*
X100396398Y-123250342D02*
X100444017Y-123345580D01*
X100444017Y-123345580D02*
X100491636Y-123393200D01*
X100491636Y-123393200D02*
X100586874Y-123440819D01*
X100586874Y-123440819D02*
X100729731Y-123440819D01*
X99967826Y-122774152D02*
X99967826Y-123440819D01*
X99967826Y-122869390D02*
X99920207Y-122821771D01*
X99920207Y-122821771D02*
X99824969Y-122774152D01*
X99824969Y-122774152D02*
X99682112Y-122774152D01*
X99682112Y-122774152D02*
X99586874Y-122821771D01*
X99586874Y-122821771D02*
X99539255Y-122917009D01*
X99539255Y-122917009D02*
X99539255Y-123440819D01*
X99063064Y-123440819D02*
X99063064Y-122774152D01*
X99063064Y-122440819D02*
X99110683Y-122488438D01*
X99110683Y-122488438D02*
X99063064Y-122536057D01*
X99063064Y-122536057D02*
X99015445Y-122488438D01*
X99015445Y-122488438D02*
X99063064Y-122440819D01*
X99063064Y-122440819D02*
X99063064Y-122536057D01*
X98158303Y-123393200D02*
X98253541Y-123440819D01*
X98253541Y-123440819D02*
X98444017Y-123440819D01*
X98444017Y-123440819D02*
X98539255Y-123393200D01*
X98539255Y-123393200D02*
X98586874Y-123345580D01*
X98586874Y-123345580D02*
X98634493Y-123250342D01*
X98634493Y-123250342D02*
X98634493Y-122964628D01*
X98634493Y-122964628D02*
X98586874Y-122869390D01*
X98586874Y-122869390D02*
X98539255Y-122821771D01*
X98539255Y-122821771D02*
X98444017Y-122774152D01*
X98444017Y-122774152D02*
X98253541Y-122774152D01*
X98253541Y-122774152D02*
X98158303Y-122821771D01*
X97777350Y-123393200D02*
X97682112Y-123440819D01*
X97682112Y-123440819D02*
X97491636Y-123440819D01*
X97491636Y-123440819D02*
X97396398Y-123393200D01*
X97396398Y-123393200D02*
X97348779Y-123297961D01*
X97348779Y-123297961D02*
X97348779Y-123250342D01*
X97348779Y-123250342D02*
X97396398Y-123155104D01*
X97396398Y-123155104D02*
X97491636Y-123107485D01*
X97491636Y-123107485D02*
X97634493Y-123107485D01*
X97634493Y-123107485D02*
X97729731Y-123059866D01*
X97729731Y-123059866D02*
X97777350Y-122964628D01*
X97777350Y-122964628D02*
X97777350Y-122917009D01*
X97777350Y-122917009D02*
X97729731Y-122821771D01*
X97729731Y-122821771D02*
X97634493Y-122774152D01*
X97634493Y-122774152D02*
X97491636Y-122774152D01*
X97491636Y-122774152D02*
X97396398Y-122821771D01*
X96205922Y-122393200D02*
X97063064Y-123678914D01*
X125997220Y-105615819D02*
X125997220Y-104615819D01*
X125997220Y-104615819D02*
X125759125Y-104615819D01*
X125759125Y-104615819D02*
X125616268Y-104663438D01*
X125616268Y-104663438D02*
X125521030Y-104758676D01*
X125521030Y-104758676D02*
X125473411Y-104853914D01*
X125473411Y-104853914D02*
X125425792Y-105044390D01*
X125425792Y-105044390D02*
X125425792Y-105187247D01*
X125425792Y-105187247D02*
X125473411Y-105377723D01*
X125473411Y-105377723D02*
X125521030Y-105472961D01*
X125521030Y-105472961D02*
X125616268Y-105568200D01*
X125616268Y-105568200D02*
X125759125Y-105615819D01*
X125759125Y-105615819D02*
X125997220Y-105615819D01*
X124425792Y-105520580D02*
X124473411Y-105568200D01*
X124473411Y-105568200D02*
X124616268Y-105615819D01*
X124616268Y-105615819D02*
X124711506Y-105615819D01*
X124711506Y-105615819D02*
X124854363Y-105568200D01*
X124854363Y-105568200D02*
X124949601Y-105472961D01*
X124949601Y-105472961D02*
X124997220Y-105377723D01*
X124997220Y-105377723D02*
X125044839Y-105187247D01*
X125044839Y-105187247D02*
X125044839Y-105044390D01*
X125044839Y-105044390D02*
X124997220Y-104853914D01*
X124997220Y-104853914D02*
X124949601Y-104758676D01*
X124949601Y-104758676D02*
X124854363Y-104663438D01*
X124854363Y-104663438D02*
X124711506Y-104615819D01*
X124711506Y-104615819D02*
X124616268Y-104615819D01*
X124616268Y-104615819D02*
X124473411Y-104663438D01*
X124473411Y-104663438D02*
X124425792Y-104711057D01*
X123425792Y-105520580D02*
X123473411Y-105568200D01*
X123473411Y-105568200D02*
X123616268Y-105615819D01*
X123616268Y-105615819D02*
X123711506Y-105615819D01*
X123711506Y-105615819D02*
X123854363Y-105568200D01*
X123854363Y-105568200D02*
X123949601Y-105472961D01*
X123949601Y-105472961D02*
X123997220Y-105377723D01*
X123997220Y-105377723D02*
X124044839Y-105187247D01*
X124044839Y-105187247D02*
X124044839Y-105044390D01*
X124044839Y-105044390D02*
X123997220Y-104853914D01*
X123997220Y-104853914D02*
X123949601Y-104758676D01*
X123949601Y-104758676D02*
X123854363Y-104663438D01*
X123854363Y-104663438D02*
X123711506Y-104615819D01*
X123711506Y-104615819D02*
X123616268Y-104615819D01*
X123616268Y-104615819D02*
X123473411Y-104663438D01*
X123473411Y-104663438D02*
X123425792Y-104711057D01*
D11*
%TO.C,G\u002A\u002A\u002A*%
G36*
X108702714Y-150557911D02*
G01*
X108702714Y-150963370D01*
X108297255Y-150963370D01*
X107891797Y-150963370D01*
X107891797Y-150557911D01*
X107891797Y-150152453D01*
X108297255Y-150152453D01*
X108702714Y-150152453D01*
X108702714Y-150557911D01*
G37*
G36*
X109513630Y-152179745D02*
G01*
X109513630Y-152585203D01*
X109108172Y-152585203D01*
X108702714Y-152585203D01*
X108702714Y-152179745D01*
X108702714Y-151774286D01*
X109108172Y-151774286D01*
X109513630Y-151774286D01*
X109513630Y-152179745D01*
G37*
G36*
X111946380Y-128663164D02*
G01*
X111946380Y-129879539D01*
X110730005Y-129879539D01*
X109513630Y-129879539D01*
X109513630Y-128663164D01*
X109513630Y-127446789D01*
X110730005Y-127446789D01*
X111946380Y-127446789D01*
X111946380Y-128663164D01*
G37*
G36*
X111135463Y-140015996D02*
G01*
X111135463Y-140421454D01*
X110730005Y-140421454D01*
X110324547Y-140421454D01*
X110324547Y-140015996D01*
X110324547Y-139610538D01*
X110730005Y-139610538D01*
X111135463Y-139610538D01*
X111135463Y-140015996D01*
G37*
G36*
X113568213Y-147314245D02*
G01*
X113568213Y-147719703D01*
X113162755Y-147719703D01*
X112757297Y-147719703D01*
X112757297Y-147314245D01*
X112757297Y-146908787D01*
X113162755Y-146908787D01*
X113568213Y-146908787D01*
X113568213Y-147314245D01*
G37*
G36*
X116000963Y-137988704D02*
G01*
X116000963Y-138799621D01*
X115595505Y-138799621D01*
X115190046Y-138799621D01*
X115190046Y-137988704D01*
X115190046Y-137177788D01*
X115595505Y-137177788D01*
X116000963Y-137177788D01*
X116000963Y-137988704D01*
G37*
G36*
X116811880Y-136772330D02*
G01*
X116811880Y-137177788D01*
X116406421Y-137177788D01*
X116000963Y-137177788D01*
X116000963Y-136772330D01*
X116000963Y-136366871D01*
X116406421Y-136366871D01*
X116811880Y-136366871D01*
X116811880Y-136772330D01*
G37*
G36*
X117622796Y-151368828D02*
G01*
X117622796Y-152585203D01*
X117217338Y-152585203D01*
X116811880Y-152585203D01*
X116811880Y-151368828D01*
X116811880Y-150152453D01*
X117217338Y-150152453D01*
X117622796Y-150152453D01*
X117622796Y-151368828D01*
G37*
G36*
X120055546Y-143259662D02*
G01*
X120055546Y-143665120D01*
X119650088Y-143665120D01*
X119244629Y-143665120D01*
X119244629Y-143259662D01*
X119244629Y-142854204D01*
X119650088Y-142854204D01*
X120055546Y-142854204D01*
X120055546Y-143259662D01*
G37*
G36*
X124921045Y-135961413D02*
G01*
X124921045Y-136366871D01*
X124515587Y-136366871D01*
X124110129Y-136366871D01*
X124110129Y-135961413D01*
X124110129Y-135555955D01*
X124515587Y-135555955D01*
X124921045Y-135555955D01*
X124921045Y-135961413D01*
G37*
G36*
X126542879Y-138394163D02*
G01*
X126542879Y-138799621D01*
X126137420Y-138799621D01*
X125731962Y-138799621D01*
X125731962Y-138394163D01*
X125731962Y-137988704D01*
X126137420Y-137988704D01*
X126542879Y-137988704D01*
X126542879Y-138394163D01*
G37*
G36*
X127353795Y-126230414D02*
G01*
X127353795Y-126635872D01*
X126948337Y-126635872D01*
X126542879Y-126635872D01*
X126542879Y-126230414D01*
X126542879Y-125824956D01*
X126948337Y-125824956D01*
X127353795Y-125824956D01*
X127353795Y-126230414D01*
G37*
G36*
X127353795Y-127852247D02*
G01*
X127353795Y-128257705D01*
X126948337Y-128257705D01*
X126542879Y-128257705D01*
X126542879Y-127852247D01*
X126542879Y-127446789D01*
X126948337Y-127446789D01*
X127353795Y-127446789D01*
X127353795Y-127852247D01*
G37*
G36*
X127353795Y-140015996D02*
G01*
X127353795Y-140421454D01*
X126948337Y-140421454D01*
X126542879Y-140421454D01*
X126542879Y-140015996D01*
X126542879Y-139610538D01*
X126948337Y-139610538D01*
X127353795Y-139610538D01*
X127353795Y-140015996D01*
G37*
G36*
X128164712Y-146503328D02*
G01*
X128164712Y-146908787D01*
X127353795Y-146908787D01*
X126542879Y-146908787D01*
X126542879Y-146503328D01*
X126542879Y-146097870D01*
X127353795Y-146097870D01*
X128164712Y-146097870D01*
X128164712Y-146503328D01*
G37*
G36*
X128164712Y-148125162D02*
G01*
X128164712Y-148530620D01*
X127759253Y-148530620D01*
X127353795Y-148530620D01*
X127353795Y-148125162D01*
X127353795Y-147719703D01*
X127759253Y-147719703D01*
X128164712Y-147719703D01*
X128164712Y-148125162D01*
G37*
G36*
X133030211Y-128663164D02*
G01*
X133030211Y-129879539D01*
X131813836Y-129879539D01*
X130597461Y-129879539D01*
X130597461Y-128663164D01*
X130597461Y-127446789D01*
X131813836Y-127446789D01*
X133030211Y-127446789D01*
X133030211Y-128663164D01*
G37*
G36*
X133030211Y-149746995D02*
G01*
X133030211Y-150963370D01*
X131813836Y-150963370D01*
X130597461Y-150963370D01*
X130597461Y-149746995D01*
X130597461Y-148530620D01*
X131813836Y-148530620D01*
X133030211Y-148530620D01*
X133030211Y-149746995D01*
G37*
G36*
X112757297Y-142043287D02*
G01*
X112757297Y-142854204D01*
X111946380Y-142854204D01*
X111135463Y-142854204D01*
X111135463Y-142448746D01*
X111135463Y-142043287D01*
X111540922Y-142043287D01*
X111946380Y-142043287D01*
X111946380Y-141637829D01*
X111946380Y-141232371D01*
X112351838Y-141232371D01*
X112757297Y-141232371D01*
X112757297Y-142043287D01*
G37*
G36*
X115190046Y-151774286D02*
G01*
X115190046Y-152585203D01*
X114784588Y-152585203D01*
X114379130Y-152585203D01*
X114379130Y-152179745D01*
X114379130Y-151774286D01*
X113568213Y-151774286D01*
X112757297Y-151774286D01*
X112757297Y-151368828D01*
X112757297Y-150963370D01*
X113973672Y-150963370D01*
X115190046Y-150963370D01*
X115190046Y-151774286D01*
G37*
G36*
X112351838Y-139610538D02*
G01*
X112757297Y-139610538D01*
X112757297Y-140015996D01*
X112757297Y-140421454D01*
X112351838Y-140421454D01*
X111946380Y-140421454D01*
X111946380Y-140015996D01*
X111946380Y-139610538D01*
X112351838Y-139610538D01*
G37*
G36*
X111946380Y-139205079D02*
G01*
X111946380Y-139610538D01*
X111540922Y-139610538D01*
X111135463Y-139610538D01*
X111135463Y-139205079D01*
X111135463Y-138799621D01*
X111540922Y-138799621D01*
X111946380Y-138799621D01*
X111946380Y-139205079D01*
G37*
G36*
X122082837Y-144476037D02*
G01*
X122488296Y-144476037D01*
X122488296Y-144881495D01*
X122488296Y-145286954D01*
X122082837Y-145286954D01*
X121677379Y-145286954D01*
X121677379Y-144881495D01*
X121677379Y-144476037D01*
X122082837Y-144476037D01*
G37*
G36*
X121677379Y-144070579D02*
G01*
X121677379Y-144476037D01*
X121271921Y-144476037D01*
X120866462Y-144476037D01*
X120866462Y-144070579D01*
X120866462Y-143665120D01*
X121271921Y-143665120D01*
X121677379Y-143665120D01*
X121677379Y-144070579D01*
G37*
G36*
X113568213Y-131501372D02*
G01*
X110730005Y-131501372D01*
X107891797Y-131501372D01*
X107891797Y-128663164D01*
X107891797Y-126688189D01*
X108755031Y-126688189D01*
X108755031Y-128663164D01*
X108755031Y-130638138D01*
X110730005Y-130638138D01*
X112704979Y-130638138D01*
X112704979Y-128663164D01*
X112704979Y-126688189D01*
X110730005Y-126688189D01*
X108755031Y-126688189D01*
X107891797Y-126688189D01*
X107891797Y-125824956D01*
X110730005Y-125824956D01*
X113568213Y-125824956D01*
X113568213Y-128663164D01*
X113568213Y-131501372D01*
G37*
G36*
X134652044Y-131501372D02*
G01*
X131813836Y-131501372D01*
X128975628Y-131501372D01*
X128975628Y-128663164D01*
X128975628Y-126688189D01*
X129838862Y-126688189D01*
X129838862Y-128663164D01*
X129838862Y-130638138D01*
X131813836Y-130638138D01*
X133788811Y-130638138D01*
X133788811Y-128663164D01*
X133788811Y-126688189D01*
X131813836Y-126688189D01*
X129838862Y-126688189D01*
X128975628Y-126688189D01*
X128975628Y-125824956D01*
X131813836Y-125824956D01*
X134652044Y-125824956D01*
X134652044Y-128663164D01*
X134652044Y-131501372D01*
G37*
G36*
X134652044Y-152585203D02*
G01*
X131813836Y-152585203D01*
X128975628Y-152585203D01*
X128975628Y-149746995D01*
X128975628Y-147772021D01*
X129838862Y-147772021D01*
X129838862Y-149746995D01*
X129838862Y-151721969D01*
X131813836Y-151721969D01*
X133788811Y-151721969D01*
X133788811Y-149746995D01*
X133788811Y-147772021D01*
X131813836Y-147772021D01*
X129838862Y-147772021D01*
X128975628Y-147772021D01*
X128975628Y-146908787D01*
X131813836Y-146908787D01*
X134652044Y-146908787D01*
X134652044Y-149746995D01*
X134652044Y-152585203D01*
G37*
G36*
X120866462Y-135555955D02*
G01*
X121677379Y-135555955D01*
X121677379Y-135961413D01*
X121677379Y-136366871D01*
X120866462Y-136366871D01*
X120055546Y-136366871D01*
X120055546Y-135961413D01*
X120055546Y-135555955D01*
X120866462Y-135555955D01*
G37*
G36*
X120055546Y-134745038D02*
G01*
X120055546Y-135555955D01*
X119650088Y-135555955D01*
X119244629Y-135555955D01*
X119244629Y-135150496D01*
X119244629Y-134745038D01*
X118839171Y-134745038D01*
X118433713Y-134745038D01*
X118433713Y-134339580D01*
X118433713Y-133934121D01*
X119244629Y-133934121D01*
X120055546Y-133934121D01*
X120055546Y-134745038D01*
G37*
G36*
X116811880Y-134339580D02*
G01*
X116811880Y-134745038D01*
X117217338Y-134745038D01*
X117622796Y-134745038D01*
X117622796Y-135150496D01*
X117622796Y-135555955D01*
X118433713Y-135555955D01*
X119244629Y-135555955D01*
X119244629Y-136366871D01*
X119244629Y-137177788D01*
X118433713Y-137177788D01*
X117622796Y-137177788D01*
X117622796Y-136772330D01*
X117622796Y-136366871D01*
X117217338Y-136366871D01*
X116811880Y-136366871D01*
X116811880Y-135961413D01*
X116811880Y-135555955D01*
X116406421Y-135555955D01*
X116000963Y-135555955D01*
X116000963Y-134745038D01*
X116000963Y-133934121D01*
X116406421Y-133934121D01*
X116811880Y-133934121D01*
X116811880Y-134339580D01*
G37*
G36*
X133030211Y-142854204D02*
G01*
X133841128Y-142854204D01*
X133841128Y-143259662D01*
X133841128Y-143665120D01*
X134246586Y-143665120D01*
X134652044Y-143665120D01*
X134652044Y-144070579D01*
X134652044Y-144476037D01*
X134246586Y-144476037D01*
X133841128Y-144476037D01*
X133841128Y-144881495D01*
X133841128Y-145286954D01*
X132219295Y-145286954D01*
X130597461Y-145286954D01*
X130597461Y-145692412D01*
X130597461Y-146097870D01*
X129381087Y-146097870D01*
X128164712Y-146097870D01*
X128164712Y-144881495D01*
X128164712Y-143665120D01*
X128975628Y-143665120D01*
X129786545Y-143665120D01*
X129786545Y-144070579D01*
X129786545Y-144476037D01*
X129381087Y-144476037D01*
X128975628Y-144476037D01*
X128975628Y-144881495D01*
X128975628Y-145286954D01*
X129786545Y-145286954D01*
X130597461Y-145286954D01*
X130597461Y-144881495D01*
X130597461Y-144476037D01*
X131813836Y-144476037D01*
X133030211Y-144476037D01*
X133030211Y-144070579D01*
X133030211Y-143665120D01*
X132624753Y-143665120D01*
X132219295Y-143665120D01*
X132219295Y-143259662D01*
X132219295Y-142854204D01*
X133030211Y-142854204D01*
G37*
G36*
X134246586Y-145286954D02*
G01*
X134652044Y-145286954D01*
X134652044Y-145692412D01*
X134652044Y-146097870D01*
X134246586Y-146097870D01*
X133841128Y-146097870D01*
X133841128Y-145692412D01*
X133841128Y-145286954D01*
X134246586Y-145286954D01*
G37*
G36*
X132219295Y-142448746D02*
G01*
X132219295Y-142854204D01*
X131813836Y-142854204D01*
X131408378Y-142854204D01*
X131408378Y-142448746D01*
X131408378Y-142043287D01*
X131813836Y-142043287D01*
X132219295Y-142043287D01*
X132219295Y-142448746D01*
G37*
G36*
X115190046Y-149341537D02*
G01*
X115595505Y-149341537D01*
X116000963Y-149341537D01*
X116000963Y-148530620D01*
X116000963Y-147719703D01*
X116811880Y-147719703D01*
X117622796Y-147719703D01*
X117622796Y-147314245D01*
X117622796Y-146908787D01*
X118028254Y-146908787D01*
X118433713Y-146908787D01*
X118433713Y-147314245D01*
X118433713Y-147719703D01*
X118839171Y-147719703D01*
X119244629Y-147719703D01*
X119244629Y-147314245D01*
X119244629Y-146908787D01*
X118839171Y-146908787D01*
X118433713Y-146908787D01*
X118433713Y-146503328D01*
X118433713Y-146097870D01*
X119650088Y-146097870D01*
X120866462Y-146097870D01*
X120866462Y-146503328D01*
X120866462Y-146908787D01*
X120461004Y-146908787D01*
X120055546Y-146908787D01*
X120055546Y-147314245D01*
X120055546Y-147719703D01*
X120866462Y-147719703D01*
X121677379Y-147719703D01*
X121677379Y-148125162D01*
X121677379Y-148530620D01*
X122488296Y-148530620D01*
X123299212Y-148530620D01*
X123299212Y-148125162D01*
X123299212Y-147719703D01*
X124110129Y-147719703D01*
X124921045Y-147719703D01*
X124921045Y-148125162D01*
X124921045Y-148530620D01*
X125326504Y-148530620D01*
X125731962Y-148530620D01*
X125731962Y-148125162D01*
X125731962Y-147719703D01*
X126137420Y-147719703D01*
X126542879Y-147719703D01*
X126542879Y-148125162D01*
X126542879Y-148530620D01*
X126137420Y-148530620D01*
X125731962Y-148530620D01*
X125731962Y-148936078D01*
X125731962Y-149341537D01*
X126137420Y-149341537D01*
X126542879Y-149341537D01*
X126542879Y-149746995D01*
X126542879Y-150152453D01*
X126948337Y-150152453D01*
X127353795Y-150152453D01*
X127353795Y-149746995D01*
X127353795Y-149341537D01*
X127759253Y-149341537D01*
X128164712Y-149341537D01*
X128164712Y-149746995D01*
X128164712Y-150152453D01*
X127759253Y-150152453D01*
X127353795Y-150152453D01*
X127353795Y-150963370D01*
X127353795Y-151774286D01*
X127759253Y-151774286D01*
X128164712Y-151774286D01*
X128164712Y-152179745D01*
X128164712Y-152585203D01*
X126948337Y-152585203D01*
X125731962Y-152585203D01*
X125731962Y-151774286D01*
X125731962Y-150963370D01*
X126137420Y-150963370D01*
X126542879Y-150963370D01*
X126542879Y-150557911D01*
X126542879Y-150152453D01*
X125731962Y-150152453D01*
X124921045Y-150152453D01*
X124921045Y-149341537D01*
X124921045Y-148530620D01*
X124110129Y-148530620D01*
X123299212Y-148530620D01*
X123299212Y-148936078D01*
X123299212Y-149341537D01*
X123704670Y-149341537D01*
X124110129Y-149341537D01*
X124110129Y-149746995D01*
X124110129Y-150152453D01*
X123704670Y-150152453D01*
X123299212Y-150152453D01*
X123299212Y-150557911D01*
X123299212Y-150963370D01*
X122082837Y-150963370D01*
X120866462Y-150963370D01*
X120866462Y-151368828D01*
X120866462Y-151774286D01*
X119650088Y-151774286D01*
X118433713Y-151774286D01*
X118433713Y-151368828D01*
X118433713Y-150963370D01*
X118839171Y-150963370D01*
X119244629Y-150963370D01*
X119244629Y-150557911D01*
X119244629Y-150152453D01*
X120055546Y-150152453D01*
X120866462Y-150152453D01*
X120866462Y-149746995D01*
X120866462Y-149341537D01*
X121271921Y-149341537D01*
X121677379Y-149341537D01*
X121677379Y-148936078D01*
X121677379Y-148530620D01*
X120866462Y-148530620D01*
X120055546Y-148530620D01*
X120055546Y-148936078D01*
X120055546Y-149341537D01*
X119650088Y-149341537D01*
X119244629Y-149341537D01*
X119244629Y-148936078D01*
X119244629Y-148530620D01*
X118433713Y-148530620D01*
X117622796Y-148530620D01*
X117622796Y-148936078D01*
X117622796Y-149341537D01*
X116811880Y-149341537D01*
X116000963Y-149341537D01*
X116000963Y-149746995D01*
X116000963Y-150152453D01*
X115595505Y-150152453D01*
X115190046Y-150152453D01*
X115190046Y-149746995D01*
X115190046Y-149341537D01*
X114379130Y-149341537D01*
X113568213Y-149341537D01*
X113568213Y-149746995D01*
X113568213Y-150152453D01*
X113162755Y-150152453D01*
X112757297Y-150152453D01*
X112757297Y-149746995D01*
X112757297Y-149341537D01*
X112351838Y-149341537D01*
X111946380Y-149341537D01*
X111946380Y-150152453D01*
X111946380Y-150557911D01*
X111946380Y-150963370D01*
X111540922Y-150963370D01*
X111135463Y-150963370D01*
X111135463Y-151368828D01*
X111135463Y-151774286D01*
X111540922Y-151774286D01*
X111946380Y-151774286D01*
X111946380Y-152179745D01*
X111946380Y-152585203D01*
X111135463Y-152585203D01*
X110324547Y-152585203D01*
X110324547Y-151774286D01*
X110324547Y-150963370D01*
X109919089Y-150963370D01*
X109513630Y-150963370D01*
X109513630Y-150152453D01*
X110324547Y-150152453D01*
X110324547Y-150557911D01*
X110324547Y-150963370D01*
X110730005Y-150963370D01*
X111135463Y-150963370D01*
X111135463Y-150557911D01*
X111135463Y-150152453D01*
X110730005Y-150152453D01*
X110324547Y-150152453D01*
X109513630Y-150152453D01*
X109513630Y-149341537D01*
X109919089Y-149341537D01*
X110324547Y-149341537D01*
X110324547Y-148936078D01*
X110324547Y-148530620D01*
X110730005Y-148530620D01*
X111135463Y-148530620D01*
X111135463Y-148125162D01*
X111135463Y-147719703D01*
X109919089Y-147719703D01*
X108702714Y-147719703D01*
X108702714Y-147314245D01*
X108702714Y-146908787D01*
X109513630Y-146908787D01*
X110324547Y-146908787D01*
X110324547Y-146503328D01*
X110324547Y-146097870D01*
X110730005Y-146097870D01*
X111135463Y-146097870D01*
X111946380Y-146097870D01*
X111946380Y-147314245D01*
X111946380Y-148530620D01*
X113162755Y-148530620D01*
X114379130Y-148530620D01*
X114379130Y-147314245D01*
X114379130Y-146097870D01*
X113162755Y-146097870D01*
X111946380Y-146097870D01*
X111135463Y-146097870D01*
X111135463Y-145692412D01*
X111135463Y-145286954D01*
X110730005Y-145286954D01*
X110324547Y-145286954D01*
X110324547Y-144881495D01*
X110324547Y-144476037D01*
X109919089Y-144476037D01*
X109513630Y-144476037D01*
X109513630Y-144881495D01*
X109513630Y-145286954D01*
X108702714Y-145286954D01*
X107891797Y-145286954D01*
X107891797Y-143665120D01*
X107891797Y-142043287D01*
X108297255Y-142043287D01*
X108702714Y-142043287D01*
X108702714Y-141637829D01*
X108702714Y-141232371D01*
X108297255Y-141232371D01*
X107891797Y-141232371D01*
X107891797Y-140826912D01*
X107891797Y-140421454D01*
X108297255Y-140421454D01*
X108702714Y-140421454D01*
X108702714Y-138799621D01*
X108702714Y-137177788D01*
X108297255Y-137177788D01*
X107891797Y-137177788D01*
X107891797Y-136772330D01*
X107891797Y-136366871D01*
X108297255Y-136366871D01*
X108702714Y-136366871D01*
X108702714Y-135961413D01*
X108702714Y-135555955D01*
X109108172Y-135555955D01*
X109513630Y-135555955D01*
X109513630Y-136366871D01*
X109513630Y-137177788D01*
X110324547Y-137177788D01*
X111135463Y-137177788D01*
X111135463Y-136772330D01*
X111135463Y-136366871D01*
X111540922Y-136366871D01*
X111946380Y-136366871D01*
X111946380Y-136772330D01*
X111946380Y-137177788D01*
X111540922Y-137177788D01*
X111135463Y-137177788D01*
X111135463Y-137583246D01*
X111135463Y-137988704D01*
X110324547Y-137988704D01*
X109513630Y-137988704D01*
X109513630Y-139205079D01*
X109513630Y-140421454D01*
X109919089Y-140421454D01*
X110324547Y-140421454D01*
X110324547Y-140826912D01*
X110324547Y-141232371D01*
X109919089Y-141232371D01*
X109513630Y-141232371D01*
X109513630Y-142448746D01*
X109513630Y-143665120D01*
X109108172Y-143665120D01*
X108702714Y-143665120D01*
X108702714Y-144070579D01*
X108702714Y-144476037D01*
X109108172Y-144476037D01*
X109513630Y-144476037D01*
X109513630Y-144070579D01*
X109513630Y-143665120D01*
X110324547Y-143665120D01*
X111135463Y-143665120D01*
X111135463Y-144070579D01*
X111135463Y-144476037D01*
X111540922Y-144476037D01*
X111946380Y-144476037D01*
X111946380Y-144881495D01*
X111946380Y-145286954D01*
X113162755Y-145286954D01*
X114379130Y-145286954D01*
X114379130Y-144881495D01*
X114379130Y-144476037D01*
X115595505Y-144476037D01*
X116811880Y-144476037D01*
X116811880Y-143259662D01*
X116811880Y-142043287D01*
X116406421Y-142043287D01*
X116000963Y-142043287D01*
X116000963Y-142448746D01*
X116000963Y-142854204D01*
X115595505Y-142854204D01*
X115190046Y-142854204D01*
X115190046Y-143259662D01*
X115190046Y-143665120D01*
X114379130Y-143665120D01*
X113568213Y-143665120D01*
X113568213Y-144070579D01*
X113568213Y-144476037D01*
X112757297Y-144476037D01*
X111946380Y-144476037D01*
X111946380Y-144070579D01*
X111946380Y-143665120D01*
X112351838Y-143665120D01*
X112757297Y-143665120D01*
X112757297Y-143259662D01*
X112757297Y-142854204D01*
X113162755Y-142854204D01*
X113568213Y-142854204D01*
X113568213Y-142043287D01*
X113568213Y-141232371D01*
X113973672Y-141232371D01*
X114379130Y-141232371D01*
X114379130Y-140826912D01*
X114379130Y-140421454D01*
X113973672Y-140421454D01*
X113568213Y-140421454D01*
X113568213Y-140015996D01*
X113568213Y-139610538D01*
X113973672Y-139610538D01*
X114379130Y-139610538D01*
X114379130Y-139205079D01*
X114379130Y-138799621D01*
X114784588Y-138799621D01*
X115190046Y-138799621D01*
X115190046Y-139205079D01*
X115190046Y-139610538D01*
X115595505Y-139610538D01*
X116000963Y-139610538D01*
X116000963Y-140015996D01*
X116000963Y-140421454D01*
X115595505Y-140421454D01*
X115190046Y-140421454D01*
X115190046Y-140826912D01*
X115190046Y-141232371D01*
X117217338Y-141232371D01*
X119244629Y-141232371D01*
X119244629Y-140826912D01*
X119244629Y-140421454D01*
X120055546Y-140421454D01*
X120866462Y-140421454D01*
X120866462Y-141232371D01*
X120866462Y-142043287D01*
X120055546Y-142043287D01*
X119244629Y-142043287D01*
X119244629Y-142448746D01*
X119244629Y-142854204D01*
X118839171Y-142854204D01*
X118433713Y-142854204D01*
X118433713Y-143259662D01*
X118433713Y-143665120D01*
X118839171Y-143665120D01*
X119244629Y-143665120D01*
X119244629Y-144070579D01*
X119244629Y-144476037D01*
X119650088Y-144476037D01*
X120055546Y-144476037D01*
X120055546Y-144881495D01*
X120055546Y-145286954D01*
X119244629Y-145286954D01*
X118433713Y-145286954D01*
X118433713Y-144881495D01*
X118433713Y-144476037D01*
X118028254Y-144476037D01*
X117622796Y-144476037D01*
X117622796Y-144881495D01*
X117622796Y-145286954D01*
X118028254Y-145286954D01*
X118433713Y-145286954D01*
X118433713Y-145692412D01*
X118433713Y-146097870D01*
X118028254Y-146097870D01*
X117622796Y-146097870D01*
X117622796Y-146503328D01*
X117622796Y-146908787D01*
X116811880Y-146908787D01*
X116000963Y-146908787D01*
X116000963Y-146503328D01*
X116000963Y-146097870D01*
X116406421Y-146097870D01*
X116811880Y-146097870D01*
X116811880Y-145692412D01*
X116811880Y-145286954D01*
X116000963Y-145286954D01*
X115190046Y-145286954D01*
X115190046Y-147314245D01*
X115190046Y-149341537D01*
G37*
G36*
X121677379Y-151774286D02*
G01*
X122488296Y-151774286D01*
X122488296Y-152179745D01*
X122488296Y-152585203D01*
X121677379Y-152585203D01*
X120866462Y-152585203D01*
X120866462Y-152179745D01*
X120866462Y-151774286D01*
X121677379Y-151774286D01*
G37*
G36*
X124110129Y-150963370D02*
G01*
X124921045Y-150963370D01*
X124921045Y-151368828D01*
X124921045Y-151774286D01*
X124110129Y-151774286D01*
X123299212Y-151774286D01*
X123299212Y-151368828D01*
X123299212Y-150963370D01*
X124110129Y-150963370D01*
G37*
G36*
X125326504Y-146908787D02*
G01*
X125731962Y-146908787D01*
X125731962Y-147314245D01*
X125731962Y-147719703D01*
X125326504Y-147719703D01*
X124921045Y-147719703D01*
X124921045Y-147314245D01*
X124921045Y-146908787D01*
X125326504Y-146908787D01*
G37*
G36*
X124110129Y-144881495D02*
G01*
X124110129Y-145286954D01*
X124921045Y-145286954D01*
X125731962Y-145286954D01*
X125731962Y-145692412D01*
X125731962Y-146097870D01*
X125326504Y-146097870D01*
X124921045Y-146097870D01*
X124921045Y-146503328D01*
X124921045Y-146908787D01*
X123704670Y-146908787D01*
X122488296Y-146908787D01*
X122488296Y-146097870D01*
X122488296Y-145286954D01*
X122893754Y-145286954D01*
X123299212Y-145286954D01*
X123299212Y-144881495D01*
X123299212Y-144476037D01*
X123704670Y-144476037D01*
X124110129Y-144476037D01*
X124110129Y-144881495D01*
G37*
G36*
X112757297Y-132717747D02*
G01*
X112757297Y-133123205D01*
X113162755Y-133123205D01*
X113568213Y-133123205D01*
X113568213Y-132717747D01*
X113568213Y-132312288D01*
X113973672Y-132312288D01*
X114379130Y-132312288D01*
X114379130Y-132717747D01*
X114379130Y-133123205D01*
X114784588Y-133123205D01*
X115190046Y-133123205D01*
X115190046Y-133934121D01*
X115190046Y-134745038D01*
X114379130Y-134745038D01*
X113568213Y-134745038D01*
X113568213Y-135150496D01*
X113568213Y-135555955D01*
X113973672Y-135555955D01*
X114379130Y-135555955D01*
X114379130Y-135961413D01*
X114379130Y-136366871D01*
X114784588Y-136366871D01*
X115190046Y-136366871D01*
X115190046Y-135961413D01*
X115190046Y-135555955D01*
X115595505Y-135555955D01*
X116000963Y-135555955D01*
X116000963Y-135961413D01*
X116000963Y-136366871D01*
X115595505Y-136366871D01*
X115190046Y-136366871D01*
X115190046Y-136772330D01*
X115190046Y-137177788D01*
X114784588Y-137177788D01*
X114379130Y-137177788D01*
X114379130Y-136772330D01*
X114379130Y-136366871D01*
X113973672Y-136366871D01*
X113568213Y-136366871D01*
X113568213Y-136772330D01*
X113568213Y-137177788D01*
X113973672Y-137177788D01*
X114379130Y-137177788D01*
X114379130Y-137583246D01*
X114379130Y-137988704D01*
X113973672Y-137988704D01*
X113568213Y-137988704D01*
X113568213Y-138799621D01*
X113568213Y-139610538D01*
X113162755Y-139610538D01*
X112757297Y-139610538D01*
X112757297Y-139205079D01*
X112757297Y-138799621D01*
X112351838Y-138799621D01*
X111946380Y-138799621D01*
X111946380Y-138394163D01*
X111946380Y-137988704D01*
X112351838Y-137988704D01*
X112757297Y-137988704D01*
X112757297Y-136366871D01*
X112757297Y-134745038D01*
X112351838Y-134745038D01*
X111946380Y-134745038D01*
X111946380Y-135150496D01*
X111946380Y-135555955D01*
X111540922Y-135555955D01*
X111135463Y-135555955D01*
X111135463Y-135961413D01*
X111135463Y-136366871D01*
X110730005Y-136366871D01*
X110324547Y-136366871D01*
X110324547Y-135555955D01*
X110324547Y-134745038D01*
X109919089Y-134745038D01*
X109513630Y-134745038D01*
X109513630Y-134339580D01*
X109513630Y-133934121D01*
X109919089Y-133934121D01*
X110324547Y-133934121D01*
X110324547Y-134339580D01*
X110324547Y-134745038D01*
X110730005Y-134745038D01*
X111135463Y-134745038D01*
X111135463Y-134339580D01*
X111135463Y-133934121D01*
X111540922Y-133934121D01*
X111946380Y-133934121D01*
X111946380Y-133123205D01*
X111946380Y-132312288D01*
X112351838Y-132312288D01*
X112757297Y-132312288D01*
X112757297Y-132717747D01*
G37*
G36*
X109513630Y-133528663D02*
G01*
X109513630Y-133934121D01*
X109108172Y-133934121D01*
X108702714Y-133934121D01*
X108702714Y-134339580D01*
X108702714Y-134745038D01*
X108297255Y-134745038D01*
X107891797Y-134745038D01*
X107891797Y-133934121D01*
X107891797Y-133123205D01*
X108702714Y-133123205D01*
X109513630Y-133123205D01*
X109513630Y-133528663D01*
G37*
G36*
X131408378Y-140421454D02*
G01*
X131002920Y-140421454D01*
X130597461Y-140421454D01*
X130597461Y-141637829D01*
X130597461Y-142854204D01*
X131002920Y-142854204D01*
X131408378Y-142854204D01*
X131408378Y-143259662D01*
X131408378Y-143665120D01*
X130597461Y-143665120D01*
X129786545Y-143665120D01*
X129786545Y-143259662D01*
X129786545Y-142854204D01*
X129381087Y-142854204D01*
X128975628Y-142854204D01*
X128975628Y-142448746D01*
X128975628Y-142043287D01*
X128570170Y-142043287D01*
X128164712Y-142043287D01*
X128164712Y-142448746D01*
X128164712Y-142854204D01*
X127759253Y-142854204D01*
X127353795Y-142854204D01*
X127353795Y-142448746D01*
X127353795Y-142043287D01*
X126542879Y-142043287D01*
X125731962Y-142043287D01*
X125731962Y-141637829D01*
X125731962Y-141232371D01*
X125326504Y-141232371D01*
X124921045Y-141232371D01*
X124921045Y-142448746D01*
X124921045Y-143665120D01*
X125326504Y-143665120D01*
X125731962Y-143665120D01*
X125731962Y-143259662D01*
X125731962Y-142854204D01*
X126137420Y-142854204D01*
X126542879Y-142854204D01*
X126542879Y-143259662D01*
X126542879Y-143665120D01*
X126948337Y-143665120D01*
X127353795Y-143665120D01*
X127353795Y-144070579D01*
X127353795Y-144476037D01*
X125731962Y-144476037D01*
X124110129Y-144476037D01*
X124110129Y-144070579D01*
X124110129Y-143665120D01*
X122893754Y-143665120D01*
X121677379Y-143665120D01*
X121677379Y-143259662D01*
X121677379Y-142854204D01*
X122488296Y-142854204D01*
X123299212Y-142854204D01*
X123299212Y-142448746D01*
X123299212Y-142043287D01*
X122488296Y-142043287D01*
X121677379Y-142043287D01*
X121677379Y-141637829D01*
X121677379Y-141232371D01*
X122488296Y-141232371D01*
X123299212Y-141232371D01*
X123299212Y-140421454D01*
X123299212Y-139610538D01*
X123704670Y-139610538D01*
X124110129Y-139610538D01*
X124110129Y-140421454D01*
X124110129Y-141232371D01*
X124515587Y-141232371D01*
X124921045Y-141232371D01*
X124921045Y-140421454D01*
X124921045Y-139610538D01*
X124515587Y-139610538D01*
X124110129Y-139610538D01*
X124110129Y-138799621D01*
X124110129Y-137988704D01*
X123704670Y-137988704D01*
X123299212Y-137988704D01*
X123299212Y-137583246D01*
X123299212Y-137177788D01*
X122893754Y-137177788D01*
X122488296Y-137177788D01*
X122488296Y-137583246D01*
X122488296Y-137988704D01*
X122082837Y-137988704D01*
X121677379Y-137988704D01*
X121677379Y-138394163D01*
X121677379Y-138799621D01*
X122488296Y-138799621D01*
X123299212Y-138799621D01*
X123299212Y-139205079D01*
X123299212Y-139610538D01*
X122488296Y-139610538D01*
X121677379Y-139610538D01*
X121677379Y-140015996D01*
X121677379Y-140421454D01*
X121271921Y-140421454D01*
X120866462Y-140421454D01*
X120866462Y-140015996D01*
X120866462Y-139610538D01*
X120055546Y-139610538D01*
X119244629Y-139610538D01*
X119244629Y-140015996D01*
X119244629Y-140421454D01*
X118839171Y-140421454D01*
X118433713Y-140421454D01*
X118433713Y-140015996D01*
X118433713Y-139610538D01*
X117217338Y-139610538D01*
X116000963Y-139610538D01*
X116000963Y-139205079D01*
X116000963Y-138799621D01*
X116406421Y-138799621D01*
X116811880Y-138799621D01*
X116811880Y-137988704D01*
X116811880Y-137177788D01*
X117217338Y-137177788D01*
X117622796Y-137177788D01*
X117622796Y-137988704D01*
X117622796Y-138799621D01*
X118839171Y-138799621D01*
X120055546Y-138799621D01*
X120055546Y-138394163D01*
X120055546Y-137988704D01*
X120461004Y-137988704D01*
X120866462Y-137988704D01*
X120866462Y-137583246D01*
X120866462Y-137177788D01*
X121271921Y-137177788D01*
X121677379Y-137177788D01*
X121677379Y-136772330D01*
X121677379Y-136366871D01*
X122082837Y-136366871D01*
X122488296Y-136366871D01*
X122488296Y-135961413D01*
X122488296Y-135555955D01*
X122893754Y-135555955D01*
X123299212Y-135555955D01*
X123299212Y-135961413D01*
X123299212Y-136366871D01*
X123704670Y-136366871D01*
X124110129Y-136366871D01*
X124110129Y-136772330D01*
X124110129Y-137177788D01*
X124515587Y-137177788D01*
X124921045Y-137177788D01*
X124921045Y-136772330D01*
X124921045Y-136366871D01*
X125326504Y-136366871D01*
X125731962Y-136366871D01*
X125731962Y-137177788D01*
X125731962Y-137988704D01*
X125326504Y-137988704D01*
X124921045Y-137988704D01*
X124921045Y-138394163D01*
X124921045Y-138799621D01*
X125326504Y-138799621D01*
X125731962Y-138799621D01*
X125731962Y-139610538D01*
X125731962Y-140421454D01*
X126137420Y-140421454D01*
X126542879Y-140421454D01*
X126542879Y-140826912D01*
X126542879Y-141232371D01*
X126948337Y-141232371D01*
X127353795Y-141232371D01*
X128975628Y-141232371D01*
X128975628Y-141637829D01*
X128975628Y-142043287D01*
X129381087Y-142043287D01*
X129786545Y-142043287D01*
X129786545Y-141637829D01*
X129786545Y-141232371D01*
X129381087Y-141232371D01*
X128975628Y-141232371D01*
X127353795Y-141232371D01*
X127353795Y-140826912D01*
X127353795Y-140421454D01*
X127759253Y-140421454D01*
X128164712Y-140421454D01*
X128164712Y-140015996D01*
X128164712Y-139610538D01*
X128975628Y-139610538D01*
X128975628Y-140015996D01*
X128975628Y-140421454D01*
X129381087Y-140421454D01*
X129786545Y-140421454D01*
X129786545Y-140015996D01*
X129786545Y-139610538D01*
X129381087Y-139610538D01*
X128975628Y-139610538D01*
X128164712Y-139610538D01*
X127759253Y-139610538D01*
X127353795Y-139610538D01*
X127353795Y-139205079D01*
X127353795Y-138799621D01*
X128570170Y-138799621D01*
X129786545Y-138799621D01*
X129786545Y-139205079D01*
X129786545Y-139610538D01*
X130192003Y-139610538D01*
X130597461Y-139610538D01*
X130597461Y-138799621D01*
X130597461Y-137988704D01*
X131002920Y-137988704D01*
X131408378Y-137988704D01*
X131408378Y-138394163D01*
X131408378Y-138799621D01*
X131813836Y-138799621D01*
X132219295Y-138799621D01*
X132219295Y-138394163D01*
X132219295Y-137988704D01*
X132624753Y-137988704D01*
X133030211Y-137988704D01*
X133030211Y-138394163D01*
X133030211Y-138799621D01*
X133435669Y-138799621D01*
X133841128Y-138799621D01*
X133841128Y-138394163D01*
X133841128Y-137988704D01*
X134246586Y-137988704D01*
X134652044Y-137988704D01*
X134652044Y-138394163D01*
X134652044Y-138799621D01*
X134246586Y-138799621D01*
X133841128Y-138799621D01*
X133841128Y-139610538D01*
X133841128Y-140421454D01*
X133435669Y-140421454D01*
X133030211Y-140421454D01*
X133030211Y-139610538D01*
X133030211Y-138799621D01*
X132624753Y-138799621D01*
X132219295Y-138799621D01*
X132219295Y-139205079D01*
X132219295Y-139610538D01*
X131813836Y-139610538D01*
X131408378Y-139610538D01*
X131408378Y-140015996D01*
X131408378Y-140421454D01*
G37*
G36*
X132624753Y-141232371D02*
G01*
X133030211Y-141232371D01*
X133030211Y-141637829D01*
X133030211Y-142043287D01*
X132624753Y-142043287D01*
X132219295Y-142043287D01*
X132219295Y-141637829D01*
X132219295Y-141232371D01*
X132624753Y-141232371D01*
G37*
G36*
X134246586Y-140421454D02*
G01*
X134652044Y-140421454D01*
X134652044Y-141232371D01*
X134652044Y-142043287D01*
X134246586Y-142043287D01*
X133841128Y-142043287D01*
X133841128Y-141232371D01*
X133841128Y-140421454D01*
X134246586Y-140421454D01*
G37*
G36*
X131813836Y-140421454D02*
G01*
X132219295Y-140421454D01*
X132219295Y-140826912D01*
X132219295Y-141232371D01*
X131813836Y-141232371D01*
X131408378Y-141232371D01*
X131408378Y-140826912D01*
X131408378Y-140421454D01*
X131813836Y-140421454D01*
G37*
G36*
X125731962Y-127446789D02*
G01*
X125731962Y-127852247D01*
X125731962Y-128663164D01*
X125731962Y-129068622D01*
X125326504Y-129068622D01*
X124921045Y-129068622D01*
X124921045Y-129474080D01*
X124921045Y-129879539D01*
X125731962Y-129879539D01*
X126542879Y-129879539D01*
X126542879Y-129474080D01*
X126542879Y-129068622D01*
X126948337Y-129068622D01*
X127353795Y-129068622D01*
X127353795Y-129474080D01*
X127353795Y-129879539D01*
X126948337Y-129879539D01*
X126542879Y-129879539D01*
X126542879Y-130690455D01*
X126542879Y-131501372D01*
X126948337Y-131501372D01*
X127353795Y-131501372D01*
X127353795Y-130690455D01*
X127353795Y-129879539D01*
X127759253Y-129879539D01*
X128164712Y-129879539D01*
X128164712Y-130690455D01*
X128164712Y-131501372D01*
X127759253Y-131501372D01*
X127353795Y-131501372D01*
X127353795Y-131906830D01*
X127353795Y-132312288D01*
X127759253Y-132312288D01*
X128164712Y-132312288D01*
X128164712Y-132717747D01*
X128164712Y-133123205D01*
X128570170Y-133123205D01*
X128975628Y-133123205D01*
X128975628Y-132717747D01*
X128975628Y-132312288D01*
X129786545Y-132312288D01*
X130597461Y-132312288D01*
X130597461Y-132717747D01*
X130597461Y-133123205D01*
X131002920Y-133123205D01*
X131408378Y-133123205D01*
X131408378Y-132717747D01*
X131408378Y-132312288D01*
X131813836Y-132312288D01*
X132219295Y-132312288D01*
X132219295Y-132717747D01*
X132219295Y-133123205D01*
X133030211Y-133123205D01*
X133841128Y-133123205D01*
X133841128Y-132717747D01*
X133841128Y-132312288D01*
X134246586Y-132312288D01*
X134652044Y-132312288D01*
X134652044Y-132717747D01*
X134652044Y-133123205D01*
X134246586Y-133123205D01*
X133841128Y-133123205D01*
X133841128Y-133528663D01*
X133841128Y-133934121D01*
X133435669Y-133934121D01*
X133030211Y-133934121D01*
X133030211Y-134339580D01*
X133030211Y-134745038D01*
X132624753Y-134745038D01*
X132219295Y-134745038D01*
X132219295Y-134339580D01*
X132219295Y-133934121D01*
X131813836Y-133934121D01*
X131408378Y-133934121D01*
X131408378Y-134339580D01*
X131408378Y-134745038D01*
X131002920Y-134745038D01*
X130597461Y-134745038D01*
X130597461Y-133934121D01*
X130597461Y-133123205D01*
X129786545Y-133123205D01*
X128975628Y-133123205D01*
X128975628Y-133528663D01*
X128975628Y-133934121D01*
X128570170Y-133934121D01*
X128164712Y-133934121D01*
X128164712Y-133528663D01*
X128164712Y-133123205D01*
X127759253Y-133123205D01*
X127353795Y-133123205D01*
X127353795Y-133934121D01*
X127353795Y-134745038D01*
X127759253Y-134745038D01*
X128164712Y-134745038D01*
X128164712Y-135150496D01*
X128164712Y-135555955D01*
X127759253Y-135555955D01*
X127353795Y-135555955D01*
X127353795Y-135961413D01*
X127353795Y-136366871D01*
X127759253Y-136366871D01*
X128164712Y-136366871D01*
X128164712Y-135961413D01*
X128164712Y-135555955D01*
X129381087Y-135555955D01*
X130597461Y-135555955D01*
X130597461Y-135961413D01*
X130597461Y-136366871D01*
X129786545Y-136366871D01*
X128975628Y-136366871D01*
X128975628Y-136772330D01*
X128975628Y-137177788D01*
X129786545Y-137177788D01*
X130597461Y-137177788D01*
X130597461Y-137583246D01*
X130597461Y-137988704D01*
X129381087Y-137988704D01*
X128164712Y-137988704D01*
X128164712Y-137583246D01*
X128164712Y-137177788D01*
X127759253Y-137177788D01*
X127353795Y-137177788D01*
X127353795Y-137583246D01*
X127353795Y-137988704D01*
X126948337Y-137988704D01*
X126542879Y-137988704D01*
X126542879Y-136772330D01*
X126542879Y-135555955D01*
X126137420Y-135555955D01*
X125731962Y-135555955D01*
X125731962Y-135150496D01*
X125731962Y-134745038D01*
X124921045Y-134745038D01*
X124110129Y-134745038D01*
X124110129Y-135150496D01*
X124110129Y-135555955D01*
X123704670Y-135555955D01*
X123299212Y-135555955D01*
X123299212Y-135150496D01*
X123299212Y-134745038D01*
X122893754Y-134745038D01*
X122488296Y-134745038D01*
X122488296Y-134339580D01*
X122488296Y-133934121D01*
X122893754Y-133934121D01*
X123299212Y-133934121D01*
X123299212Y-133123205D01*
X123299212Y-132312288D01*
X123704670Y-132312288D01*
X124110129Y-132312288D01*
X124110129Y-132717747D01*
X124110129Y-133123205D01*
X124515587Y-133123205D01*
X124921045Y-133123205D01*
X125731962Y-133123205D01*
X125731962Y-133934121D01*
X125731962Y-134745038D01*
X126137420Y-134745038D01*
X126542879Y-134745038D01*
X126542879Y-133934121D01*
X126542879Y-133123205D01*
X126137420Y-133123205D01*
X125731962Y-133123205D01*
X124921045Y-133123205D01*
X124921045Y-132717747D01*
X124921045Y-132312288D01*
X125326504Y-132312288D01*
X125731962Y-132312288D01*
X125731962Y-131501372D01*
X125731962Y-130690455D01*
X125326504Y-130690455D01*
X124921045Y-130690455D01*
X124921045Y-131095913D01*
X124921045Y-131501372D01*
X124515587Y-131501372D01*
X124110129Y-131501372D01*
X124110129Y-131095913D01*
X124110129Y-130690455D01*
X123704670Y-130690455D01*
X123299212Y-130690455D01*
X123299212Y-131095913D01*
X123299212Y-131501372D01*
X123299212Y-132312288D01*
X122488296Y-132312288D01*
X121677379Y-132312288D01*
X121677379Y-133123205D01*
X121677379Y-133934121D01*
X121271921Y-133934121D01*
X120866462Y-133934121D01*
X120866462Y-133123205D01*
X120866462Y-132312288D01*
X120055546Y-132312288D01*
X119244629Y-132312288D01*
X119244629Y-132717747D01*
X119244629Y-133123205D01*
X118839171Y-133123205D01*
X118433713Y-133123205D01*
X118433713Y-133528663D01*
X118433713Y-133934121D01*
X117622796Y-133934121D01*
X116811880Y-133934121D01*
X116811880Y-133528663D01*
X116811880Y-133123205D01*
X116406421Y-133123205D01*
X116000963Y-133123205D01*
X116000963Y-132717747D01*
X116000963Y-132312288D01*
X115595505Y-132312288D01*
X115190046Y-132312288D01*
X115190046Y-131906830D01*
X115190046Y-131501372D01*
X114784588Y-131501372D01*
X114379130Y-131501372D01*
X114379130Y-130284997D01*
X114379130Y-129068622D01*
X114784588Y-129068622D01*
X115190046Y-129068622D01*
X115190046Y-128257705D01*
X115190046Y-127446789D01*
X114784588Y-127446789D01*
X114379130Y-127446789D01*
X114379130Y-127041331D01*
X114379130Y-126635872D01*
X114784588Y-126635872D01*
X115190046Y-126635872D01*
X115190046Y-126230414D01*
X115190046Y-125824956D01*
X116406421Y-125824956D01*
X117622796Y-125824956D01*
X117622796Y-126635872D01*
X117622796Y-127446789D01*
X117217338Y-127446789D01*
X116811880Y-127446789D01*
X116811880Y-127041331D01*
X116811880Y-126635872D01*
X116406421Y-126635872D01*
X116000963Y-126635872D01*
X116000963Y-127446789D01*
X116000963Y-128257705D01*
X116811880Y-128257705D01*
X117622796Y-128257705D01*
X117622796Y-128663164D01*
X117622796Y-129068622D01*
X116811880Y-129068622D01*
X116000963Y-129068622D01*
X116000963Y-129474080D01*
X116000963Y-129879539D01*
X115595505Y-129879539D01*
X115190046Y-129879539D01*
X115190046Y-130690455D01*
X115190046Y-131501372D01*
X115595505Y-131501372D01*
X116000963Y-131501372D01*
X116000963Y-131095913D01*
X116000963Y-130690455D01*
X116406421Y-130690455D01*
X116811880Y-130690455D01*
X116811880Y-131095913D01*
X116811880Y-131501372D01*
X117217338Y-131501372D01*
X117622796Y-131501372D01*
X117622796Y-131095913D01*
X117622796Y-130690455D01*
X118028254Y-130690455D01*
X118433713Y-130690455D01*
X118433713Y-131095913D01*
X118433713Y-131501372D01*
X118839171Y-131501372D01*
X119244629Y-131501372D01*
X119244629Y-131095913D01*
X119244629Y-130690455D01*
X118839171Y-130690455D01*
X118433713Y-130690455D01*
X118433713Y-130284997D01*
X118433713Y-129879539D01*
X118839171Y-129879539D01*
X119244629Y-129879539D01*
X119244629Y-129474080D01*
X119244629Y-129068622D01*
X118839171Y-129068622D01*
X118433713Y-129068622D01*
X118433713Y-128663164D01*
X118433713Y-128257705D01*
X118839171Y-128257705D01*
X119244629Y-128257705D01*
X120055546Y-128257705D01*
X120055546Y-129879539D01*
X120055546Y-131501372D01*
X120461004Y-131501372D01*
X120866462Y-131501372D01*
X120866462Y-130690455D01*
X120866462Y-129879539D01*
X121677379Y-129879539D01*
X122488296Y-129879539D01*
X122488296Y-130284997D01*
X122488296Y-130690455D01*
X122082837Y-130690455D01*
X121677379Y-130690455D01*
X121677379Y-131095913D01*
X121677379Y-131501372D01*
X122082837Y-131501372D01*
X122488296Y-131501372D01*
X122488296Y-131095913D01*
X122488296Y-130690455D01*
X122893754Y-130690455D01*
X123299212Y-130690455D01*
X123299212Y-130284997D01*
X123299212Y-129879539D01*
X122893754Y-129879539D01*
X122488296Y-129879539D01*
X122488296Y-129474080D01*
X122488296Y-129068622D01*
X121677379Y-129068622D01*
X120866462Y-129068622D01*
X120866462Y-128663164D01*
X120866462Y-128257705D01*
X120461004Y-128257705D01*
X120055546Y-128257705D01*
X119244629Y-128257705D01*
X119244629Y-127446789D01*
X119244629Y-126635872D01*
X118839171Y-126635872D01*
X118433713Y-126635872D01*
X118433713Y-126230414D01*
X118433713Y-125824956D01*
X119650088Y-125824956D01*
X120866462Y-125824956D01*
X120866462Y-126230414D01*
X120866462Y-126635872D01*
X120461004Y-126635872D01*
X120055546Y-126635872D01*
X120055546Y-127041331D01*
X120055546Y-127446789D01*
X120866462Y-127446789D01*
X121677379Y-127446789D01*
X122488296Y-127446789D01*
X122488296Y-127852247D01*
X122488296Y-128257705D01*
X122893754Y-128257705D01*
X123299212Y-128257705D01*
X124110129Y-128257705D01*
X124110129Y-128663164D01*
X124110129Y-129068622D01*
X124515587Y-129068622D01*
X124921045Y-129068622D01*
X124921045Y-128663164D01*
X124921045Y-128257705D01*
X124515587Y-128257705D01*
X124110129Y-128257705D01*
X123299212Y-128257705D01*
X123299212Y-127852247D01*
X123299212Y-127446789D01*
X122893754Y-127446789D01*
X122488296Y-127446789D01*
X121677379Y-127446789D01*
X121677379Y-126635872D01*
X124110129Y-126635872D01*
X124110129Y-127041331D01*
X124110129Y-127446789D01*
X124515587Y-127446789D01*
X124921045Y-127446789D01*
X124921045Y-127041331D01*
X124921045Y-126635872D01*
X124515587Y-126635872D01*
X124110129Y-126635872D01*
X121677379Y-126635872D01*
X121677379Y-125824956D01*
X123704670Y-125824956D01*
X125731962Y-125824956D01*
X125731962Y-127041331D01*
X125731962Y-127446789D01*
G37*
G36*
X131813836Y-134745038D02*
G01*
X132219295Y-134745038D01*
X132219295Y-135150496D01*
X132219295Y-135555955D01*
X132624753Y-135555955D01*
X133030211Y-135555955D01*
X133030211Y-135150496D01*
X133030211Y-134745038D01*
X133435669Y-134745038D01*
X133841128Y-134745038D01*
X133841128Y-135150496D01*
X133841128Y-135555955D01*
X134246586Y-135555955D01*
X134652044Y-135555955D01*
X134652044Y-135961413D01*
X134652044Y-136366871D01*
X133435669Y-136366871D01*
X132219295Y-136366871D01*
X132219295Y-135961413D01*
X132219295Y-135555955D01*
X131813836Y-135555955D01*
X131408378Y-135555955D01*
X131408378Y-135150496D01*
X131408378Y-134745038D01*
X131813836Y-134745038D01*
G37*
G36*
X129381087Y-133934121D02*
G01*
X129786545Y-133934121D01*
X129786545Y-134339580D01*
X129786545Y-134745038D01*
X129381087Y-134745038D01*
X128975628Y-134745038D01*
X128975628Y-134339580D01*
X128975628Y-133934121D01*
X129381087Y-133934121D01*
G37*
G36*
X134246586Y-133934121D02*
G01*
X134652044Y-133934121D01*
X134652044Y-134339580D01*
X134652044Y-134745038D01*
X134246586Y-134745038D01*
X133841128Y-134745038D01*
X133841128Y-134339580D01*
X133841128Y-133934121D01*
X134246586Y-133934121D01*
G37*
%TD*%
%LPC*%
D12*
%TO.C,J801*%
X141475000Y-148433000D03*
D13*
X141475000Y-145893000D03*
X144015000Y-148433000D03*
X144015000Y-145893000D03*
X146555000Y-148433000D03*
X146555000Y-145893000D03*
%TD*%
D14*
%TO.C,J401*%
X101432500Y-127000000D03*
D15*
X101432500Y-130500000D03*
X101432500Y-134000000D03*
%TD*%
D14*
%TO.C,J1401*%
X101432500Y-142000000D03*
D15*
X101432500Y-145500000D03*
X101432500Y-149000000D03*
%TD*%
D12*
%TO.C,J1001*%
X141475000Y-162433000D03*
D13*
X141475000Y-159893000D03*
X144015000Y-162433000D03*
X144015000Y-159893000D03*
X146555000Y-162433000D03*
X146555000Y-159893000D03*
%TD*%
D12*
%TO.C,J701*%
X141475000Y-141433000D03*
D13*
X141475000Y-138893000D03*
X144015000Y-141433000D03*
X144015000Y-138893000D03*
X146555000Y-141433000D03*
X146555000Y-138893000D03*
%TD*%
D14*
%TO.C,J1301*%
X101432500Y-112000000D03*
D15*
X101432500Y-115500000D03*
X101432500Y-119000000D03*
%TD*%
D16*
%TO.C,REF\u002A\u002A*%
X145000000Y-171000000D03*
%TD*%
D17*
%TO.C,J501*%
X144780000Y-133731000D03*
D18*
X144780000Y-131191000D03*
X144780000Y-128651000D03*
X144780000Y-126111000D03*
X144780000Y-123571000D03*
X144780000Y-121031000D03*
X144780000Y-118491000D03*
X144780000Y-115951000D03*
X144780000Y-113411000D03*
X144780000Y-110871000D03*
%TD*%
D12*
%TO.C,J901*%
X141475000Y-155433000D03*
D13*
X141475000Y-152893000D03*
X144015000Y-155433000D03*
X144015000Y-152893000D03*
X146555000Y-155433000D03*
X146555000Y-152893000D03*
%TD*%
D12*
%TO.C,J201*%
X102880000Y-172500000D03*
D13*
X105420000Y-172500000D03*
X107960000Y-172500000D03*
X110500000Y-172500000D03*
X113040000Y-172500000D03*
X115580000Y-172500000D03*
%TD*%
D16*
%TO.C,REF\u002A\u002A*%
X97500000Y-105000000D03*
%TD*%
%TO.C,REF\u002A\u002A*%
X97500000Y-171000000D03*
%TD*%
D14*
%TO.C,J1501*%
X101432500Y-157000000D03*
D15*
X101432500Y-160500000D03*
X101432500Y-164000000D03*
%TD*%
D16*
%TO.C,REF\u002A\u002A*%
X145000000Y-105000000D03*
%TD*%
D19*
%TO.C,J101*%
X126195000Y-108932500D03*
D20*
X122695000Y-108932500D03*
X119195000Y-108932500D03*
X115695000Y-108932500D03*
%TD*%
%LPD*%
M02*
