M48
; DRILL file {KiCad 8.0.8} date 2025-06-27T13:45:21+0200
; FORMAT={-:-/ absolute / inch / decimal}
; #@! TF.CreationDate,2025-06-27T13:45:21+02:00
; #@! TF.GenerationSoftware,Kicad,Pcbnew,8.0.8
; #@! TF.FileFunction,Plated,1,2,PTH
FMAT,2
INCH
; #@! TA.AperFunction,Plated,PTH,ViaDrill
T1C0.0118
; #@! TA.AperFunction,Plated,PTH,ViaDrill
T2C0.0157
; #@! TA.AperFunction,Plated,PTH,ComponentDrill
T3C0.0394
; #@! TA.AperFunction,Plated,PTH,ComponentDrill
T4C0.0433
; #@! TA.AperFunction,Plated,PTH,ComponentDrill
T5C0.0472
%
G90
G05
T1
X3.785Y-6.13
X3.795Y-5.465
X3.81Y-5.775
X3.83Y-4.68
X3.83Y-6.445
X3.84Y-5.1
X3.86Y-4.485
X3.9658Y-5.45
X4.025Y-4.31
X4.07Y-4.2
X4.095Y-4.255
X4.11Y-4.165
X4.11Y-4.315
X4.11Y-6.29
X4.12Y-6.615
X4.125Y-5.675
X4.125Y-5.7362
X4.135Y-6.52
X4.145Y-6.19
X4.145Y-6.71
X4.15Y-4.13
X4.16Y-4.315
X4.165Y-5.955
X4.195Y-4.13
X4.2Y-5.245
X4.205Y-5.48
X4.215Y-5.31
X4.225Y-5.38
X4.23Y-5.19
X4.255Y-4.13
X4.255Y-5.135
X4.265Y-5.965
X4.265Y-6.225
X4.27Y-4.18
X4.27Y-4.23
X4.27Y-4.275
X4.295Y-5.395
X4.31Y-4.13
X4.32Y-5.135
X4.325Y-6.475
X4.365Y-5.395
X4.4Y-4.135
X4.4Y-5.17
X4.4Y-6.505
X4.4Y-6.75
X4.41Y-5.26
X4.42Y-5.325
X4.43Y-6.64
X4.435Y-4.195
X4.445Y-6.55
X4.46Y-4.135
X4.46Y-6.44
X4.475Y-5.565
X4.495Y-5.51
X4.5Y-5.475
X4.53Y-6.125
X4.535Y-5.99
X4.565Y-6.235
X4.5694Y-4.6075
X4.57Y-5.455
X4.5994Y-4.5875
X4.6094Y-4.6175
X4.645Y-6.465
X4.65Y-5.51
X4.655Y-5.565
X4.665Y-6.79
X4.68Y-5.59
X4.685Y-4.075
X4.695Y-5.37
X4.71Y-6.5917
X4.715Y-6.5011
X4.75Y-6.485
X4.7547Y-5.845
X4.77Y-6.345
X4.77Y-6.41
X4.7725Y-6.3775
X4.78Y-6.455
X4.78Y-6.715
X4.83Y-5.375
X4.8576Y-4.9776
X4.87Y-6.705
X4.87Y-6.805
X4.885Y-5.9
X4.8904Y-5.3974
X4.895Y-5.4526
X4.8989Y-6.4623
X4.9126Y-5.0576
X4.915Y-5.375
X4.9169Y-6.5
X4.9195Y-5.7505
X4.925Y-6.005
X4.925Y-6.615
X4.945Y-5.22
X4.9455Y-5.3555
X4.955Y-5.325
X4.9576Y-5.7274
X4.967Y-5.412
X4.975Y-5.815
X4.976Y-5.2354
X4.9783Y-6.3763
X4.9783Y-6.4137
X5.0Y-5.41
X5.005Y-5.375
X5.02Y-6.795
X5.0231Y-6.505
X5.027Y-5.352
X5.035Y-5.715
X5.035Y-5.89
X5.04Y-5.53
X5.04Y-5.94
X5.06Y-5.34
X5.065Y-5.41
X5.065Y-6.07
X5.0653Y-5.6853
X5.075Y-5.84
X5.09Y-6.515
X5.095Y-4.215
X5.1Y-5.64
X5.105Y-6.39
X5.105Y-6.43
X5.11Y-6.725
X5.135Y-5.155
X5.14Y-5.695
X5.1618Y-5.9482
X5.2Y-6.725
X5.2247Y-5.9053
X5.23Y-5.59
X5.25Y-5.54
X5.255Y-5.14
X5.265Y-5.1859
X5.265Y-5.29
X5.2848Y-5.695
X5.285Y-5.55
X5.295Y-6.805
X5.31Y-6.215
X5.31Y-6.675
X5.315Y-5.355
X5.3233Y-5.51
X5.3439Y-5.695
X5.345Y-4.395
X5.355Y-6.405
X5.3629Y-5.2017
X5.38Y-5.305
X5.38Y-6.58
X5.3929Y-5.2174
X5.3992Y-6.4258
X5.4017Y-5.28
X5.4173Y-6.3827
X5.425Y-5.305
X5.445Y-4.105
X5.445Y-6.8
X5.4467Y-5.275
X5.455Y-5.52
X5.47Y-5.3
X5.47Y-5.37
X5.485Y-4.35
X5.4898Y-5.7145
X5.4911Y-5.6025
X5.4914Y-5.9901
X5.4914Y-5.8781
X5.495Y-5.455
X5.495Y-6.1537
X5.495Y-6.2657
X5.5Y-5.34
X5.505Y-5.515
X5.505Y-6.065
X5.51Y-5.795
X5.51Y-6.345
X5.52Y-6.72
X5.565Y-5.395
X5.575Y-5.27
X5.58Y-4.395
X5.585Y-5.925
X5.585Y-6.205
X5.585Y-6.475
X5.61Y-5.65
X5.63Y-6.565
X5.71Y-5.38
X5.725Y-6.48
X5.735Y-5.65
X5.78Y-5.125
X5.79Y-4.47
X5.795Y-4.815
T2
X4.1325Y-4.605
X4.485Y-4.565
X4.5969Y-4.8988
X4.6319Y-4.9788
X4.6369Y-4.6838
X4.6369Y-4.7238
X4.6369Y-4.7638
X4.6892Y-4.5538
X4.7019Y-4.8888
X4.7519Y-4.4538
X4.7969Y-4.5088
X4.8119Y-4.6838
X4.8119Y-4.7238
X4.8119Y-4.7638
X4.8319Y-4.8838
X4.8419Y-4.8338
X4.9107Y-4.8834
X4.9657Y-4.9684
X5.181Y-5.423
X5.261Y-5.348
T3
X4.0504Y-6.7913
X4.1504Y-6.7913
X4.2504Y-6.7913
X4.3504Y-6.7913
X4.4504Y-6.7913
X4.5504Y-6.7913
X5.5699Y-5.4682
X5.5699Y-5.5682
X5.5699Y-5.7438
X5.5699Y-5.8438
X5.5699Y-6.0194
X5.5699Y-6.1194
X5.5699Y-6.295
X5.5699Y-6.395
X5.6699Y-5.4682
X5.6699Y-5.5682
X5.6699Y-5.7438
X5.6699Y-5.8438
X5.6699Y-6.0194
X5.6699Y-6.1194
X5.6699Y-6.295
X5.6699Y-6.395
X5.7699Y-5.4682
X5.7699Y-5.5682
X5.7699Y-5.7438
X5.7699Y-5.8438
X5.7699Y-6.0194
X5.7699Y-6.1194
X5.7699Y-6.295
X5.7699Y-6.395
T4
X5.7Y-4.365
X5.7Y-4.465
X5.7Y-4.565
X5.7Y-4.665
X5.7Y-4.765
X5.7Y-4.865
X5.7Y-4.965
X5.7Y-5.065
X5.7Y-5.165
X5.7Y-5.265
T5
X3.9934Y-4.4094
X3.9934Y-4.5472
X3.9934Y-4.685
X3.9934Y-5.0
X3.9934Y-5.1378
X3.9934Y-5.2756
X3.9934Y-5.5906
X3.9934Y-5.7283
X3.9934Y-5.8661
X3.9934Y-6.1811
X3.9934Y-6.3189
X3.9934Y-6.4567
X4.5549Y-4.2887
X4.6927Y-4.2887
X4.8305Y-4.2887
X4.9683Y-4.2887
M30
