%TF.GenerationSoftware,KiCad,Pcbnew,8.0.8*%
%TF.CreationDate,2025-06-27T13:45:21+02:00*%
%TF.ProjectId,OS-servo-decoder-8,4f532d73-6572-4766-9f2d-6465636f6465,rev?*%
%TF.SameCoordinates,Original*%
%TF.FileFunction,Paste,Top*%
%TF.FilePolarity,Positive*%
%FSLAX46Y46*%
G04 Gerber Fmt 4.6, Leading zero omitted, Abs format (unit mm)*
G04 Created by KiCad (PCBNEW 8.0.8) date 2025-06-27 13:45:21*
%MOMM*%
%LPD*%
G01*
G04 APERTURE LIST*
G04 Aperture macros list*
%AMRoundRect*
0 Rectangle with rounded corners*
0 $1 Rounding radius*
0 $2 $3 $4 $5 $6 $7 $8 $9 X,Y pos of 4 corners*
0 Add a 4 corners polygon primitive as box body*
4,1,4,$2,$3,$4,$5,$6,$7,$8,$9,$2,$3,0*
0 Add four circle primitives for the rounded corners*
1,1,$1+$1,$2,$3*
1,1,$1+$1,$4,$5*
1,1,$1+$1,$6,$7*
1,1,$1+$1,$8,$9*
0 Add four rect primitives between the rounded corners*
20,1,$1+$1,$2,$3,$4,$5,0*
20,1,$1+$1,$4,$5,$6,$7,0*
20,1,$1+$1,$6,$7,$8,$9,0*
20,1,$1+$1,$8,$9,$2,$3,0*%
%AMRotRect*
0 Rectangle, with rotation*
0 The origin of the aperture is its center*
0 $1 length*
0 $2 width*
0 $3 Rotation angle, in degrees counterclockwise*
0 Add horizontal line*
21,1,$1,$2,0,0,$3*%
G04 Aperture macros list end*
%ADD10RoundRect,0.237500X-0.250000X-0.237500X0.250000X-0.237500X0.250000X0.237500X-0.250000X0.237500X0*%
%ADD11RoundRect,0.250000X0.325000X0.450000X-0.325000X0.450000X-0.325000X-0.450000X0.325000X-0.450000X0*%
%ADD12RoundRect,0.140000X0.140000X0.170000X-0.140000X0.170000X-0.140000X-0.170000X0.140000X-0.170000X0*%
%ADD13RoundRect,0.237500X0.250000X0.237500X-0.250000X0.237500X-0.250000X-0.237500X0.250000X-0.237500X0*%
%ADD14R,0.610000X1.910000*%
%ADD15R,0.930000X0.723000*%
%ADD16RoundRect,0.225000X-0.225000X-0.250000X0.225000X-0.250000X0.225000X0.250000X-0.225000X0.250000X0*%
%ADD17RoundRect,0.250000X0.450000X-0.325000X0.450000X0.325000X-0.450000X0.325000X-0.450000X-0.325000X0*%
%ADD18RoundRect,0.135000X-0.135000X-0.185000X0.135000X-0.185000X0.135000X0.185000X-0.135000X0.185000X0*%
%ADD19R,1.550000X1.300000*%
%ADD20RoundRect,0.140000X-0.219203X-0.021213X-0.021213X-0.219203X0.219203X0.021213X0.021213X0.219203X0*%
%ADD21RoundRect,0.237500X0.237500X-0.250000X0.237500X0.250000X-0.237500X0.250000X-0.237500X-0.250000X0*%
%ADD22RoundRect,0.237500X-0.237500X0.250000X-0.237500X-0.250000X0.237500X-0.250000X0.237500X0.250000X0*%
%ADD23RoundRect,0.135000X0.135000X0.185000X-0.135000X0.185000X-0.135000X-0.185000X0.135000X-0.185000X0*%
%ADD24RoundRect,0.200000X0.200000X0.275000X-0.200000X0.275000X-0.200000X-0.275000X0.200000X-0.275000X0*%
%ADD25RoundRect,0.160000X0.160000X-0.197500X0.160000X0.197500X-0.160000X0.197500X-0.160000X-0.197500X0*%
%ADD26RoundRect,0.225000X-0.250000X0.225000X-0.250000X-0.225000X0.250000X-0.225000X0.250000X0.225000X0*%
%ADD27RoundRect,0.162500X-0.162500X1.012500X-0.162500X-1.012500X0.162500X-1.012500X0.162500X1.012500X0*%
%ADD28RoundRect,0.200000X-0.200000X-0.275000X0.200000X-0.275000X0.200000X0.275000X-0.200000X0.275000X0*%
%ADD29RoundRect,0.225000X0.225000X0.250000X-0.225000X0.250000X-0.225000X-0.250000X0.225000X-0.250000X0*%
%ADD30RotRect,1.600000X0.550000X225.000000*%
%ADD31RotRect,1.600000X0.550000X315.000000*%
%ADD32RoundRect,0.250000X0.650000X-1.000000X0.650000X1.000000X-0.650000X1.000000X-0.650000X-1.000000X0*%
%ADD33RoundRect,0.150000X0.875000X0.150000X-0.875000X0.150000X-0.875000X-0.150000X0.875000X-0.150000X0*%
%ADD34RoundRect,0.112500X0.187500X0.112500X-0.187500X0.112500X-0.187500X-0.112500X0.187500X-0.112500X0*%
%ADD35RoundRect,0.300000X0.300000X-0.400000X0.300000X0.400000X-0.300000X0.400000X-0.300000X-0.400000X0*%
%ADD36RoundRect,0.100000X0.637500X0.100000X-0.637500X0.100000X-0.637500X-0.100000X0.637500X-0.100000X0*%
%ADD37RoundRect,0.140000X-0.140000X-0.170000X0.140000X-0.170000X0.140000X0.170000X-0.140000X0.170000X0*%
%ADD38R,2.600000X8.200000*%
%ADD39RoundRect,0.250000X-1.000000X1.950000X-1.000000X-1.950000X1.000000X-1.950000X1.000000X1.950000X0*%
G04 APERTURE END LIST*
D10*
%TO.C,R508*%
X134827000Y-131064000D03*
X136652000Y-131064000D03*
%TD*%
%TO.C,R507*%
X134827000Y-128554000D03*
X136652000Y-128554000D03*
%TD*%
%TO.C,R506*%
X134827000Y-126044000D03*
X136652000Y-126044000D03*
%TD*%
%TO.C,R505*%
X134827000Y-123534000D03*
X136652000Y-123534000D03*
%TD*%
%TO.C,R504*%
X134827000Y-121024000D03*
X136652000Y-121024000D03*
%TD*%
%TO.C,R503*%
X134827000Y-118514000D03*
X136652000Y-118514000D03*
%TD*%
%TO.C,R502*%
X136652000Y-116004000D03*
X134827000Y-116004000D03*
%TD*%
%TO.C,R501*%
X136652000Y-113494000D03*
X134827000Y-113494000D03*
%TD*%
D11*
%TO.C,D512*%
X138412000Y-131064000D03*
X140462000Y-131064000D03*
%TD*%
%TO.C,D511*%
X138285000Y-128524000D03*
X140335000Y-128524000D03*
%TD*%
%TO.C,D510*%
X138285000Y-125984000D03*
X140335000Y-125984000D03*
%TD*%
%TO.C,D509*%
X138285000Y-123444000D03*
X140335000Y-123444000D03*
%TD*%
%TO.C,D508*%
X138285000Y-120904000D03*
X140335000Y-120904000D03*
%TD*%
%TO.C,D507*%
X138285000Y-118364000D03*
X140335000Y-118364000D03*
%TD*%
%TO.C,D506*%
X138285000Y-115824000D03*
X140335000Y-115824000D03*
%TD*%
%TO.C,D505*%
X140349000Y-113284000D03*
X138299000Y-113284000D03*
%TD*%
D12*
%TO.C,C1601*%
X122527000Y-164719000D03*
X121567000Y-164719000D03*
%TD*%
D13*
%TO.C,R1002*%
X131739250Y-128864750D03*
X129914250Y-128864750D03*
%TD*%
D14*
%TO.C,U901*%
X118158500Y-122731500D03*
X119428500Y-122731500D03*
X120698500Y-122731500D03*
X121968500Y-122731500D03*
X121968500Y-117171500D03*
X120698500Y-117171500D03*
X119428500Y-117171500D03*
X118158500Y-117171500D03*
D15*
X119288500Y-120554000D03*
X120838500Y-120554000D03*
X119288500Y-119349000D03*
X120838500Y-119349000D03*
%TD*%
D13*
%TO.C,R1001*%
X131993250Y-114386750D03*
X130168250Y-114386750D03*
%TD*%
D16*
%TO.C,C904*%
X114843500Y-119588000D03*
X116393500Y-119588000D03*
%TD*%
D17*
%TO.C,D201*%
X108458000Y-170025000D03*
X108458000Y-167975000D03*
%TD*%
D18*
%TO.C,R1607*%
X130151500Y-156260000D03*
X131171500Y-156260000D03*
%TD*%
D17*
%TO.C,D202*%
X110871000Y-170025000D03*
X110871000Y-167975000D03*
%TD*%
D19*
%TO.C,SW602*%
X140475000Y-172750000D03*
X132525000Y-172750000D03*
X140475000Y-168250000D03*
X132525000Y-168250000D03*
%TD*%
D20*
%TO.C,C202*%
X131470000Y-140537000D03*
X132148822Y-141215822D03*
%TD*%
D21*
%TO.C,R1601*%
X119888000Y-163726500D03*
X119888000Y-161901500D03*
%TD*%
D22*
%TO.C,R702*%
X138557000Y-137599500D03*
X138557000Y-139424500D03*
%TD*%
D18*
%TO.C,R1605*%
X130151500Y-158292000D03*
X131171500Y-158292000D03*
%TD*%
%TO.C,R1602*%
X130151500Y-161340000D03*
X131171500Y-161340000D03*
%TD*%
D23*
%TO.C,R1615*%
X120269000Y-157480000D03*
X119249002Y-157480000D03*
%TD*%
D18*
%TO.C,R1609*%
X130151500Y-154228000D03*
X131171500Y-154228000D03*
%TD*%
%TO.C,R1606*%
X130151500Y-157276000D03*
X131171500Y-157276000D03*
%TD*%
D19*
%TO.C,SW601*%
X129975000Y-172750000D03*
X122025000Y-172750000D03*
X129975000Y-168250000D03*
X122025000Y-168250000D03*
%TD*%
D24*
%TO.C,R903*%
X117459500Y-115031000D03*
X115809500Y-115031000D03*
%TD*%
D18*
%TO.C,R1603*%
X130151500Y-160324000D03*
X131171500Y-160324000D03*
%TD*%
D25*
%TO.C,R202*%
X115697000Y-169888500D03*
X115697000Y-168693500D03*
%TD*%
D18*
%TO.C,R1604*%
X130151500Y-159308000D03*
X131171500Y-159308000D03*
%TD*%
D23*
%TO.C,R1617*%
X120269000Y-159512000D03*
X119249002Y-159512000D03*
%TD*%
%TO.C,R1614*%
X120269000Y-156464000D03*
X119249002Y-156464000D03*
%TD*%
%TO.C,R1612*%
X120269000Y-154432000D03*
X119249002Y-154432000D03*
%TD*%
%TO.C,R1610*%
X120524999Y-152400000D03*
X119505001Y-152400000D03*
%TD*%
D26*
%TO.C,C201*%
X134232000Y-137095000D03*
X134232000Y-138645000D03*
%TD*%
D22*
%TO.C,R203*%
X110938000Y-164314500D03*
X110938000Y-166139500D03*
%TD*%
D27*
%TO.C,U1001*%
X132454750Y-117184750D03*
X129914750Y-117184750D03*
X127374750Y-117184750D03*
X124834750Y-117184750D03*
X124834750Y-126234750D03*
X127374750Y-126234750D03*
X129914750Y-126234750D03*
X132454750Y-126234750D03*
%TD*%
D28*
%TO.C,R901*%
X115809500Y-113380000D03*
X117459500Y-113380000D03*
%TD*%
D22*
%TO.C,R905*%
X138557000Y-151599500D03*
X138557000Y-153424500D03*
%TD*%
D13*
%TO.C,R1003*%
X127929250Y-128864750D03*
X126104250Y-128864750D03*
%TD*%
D29*
%TO.C,C901*%
X119187500Y-125191000D03*
X117637500Y-125191000D03*
%TD*%
%TO.C,C203*%
X132245000Y-134949000D03*
X130695000Y-134949000D03*
%TD*%
D18*
%TO.C,R1608*%
X130151500Y-155244000D03*
X131171500Y-155244000D03*
%TD*%
D30*
%TO.C,U202*%
X132985103Y-144474695D03*
X132419417Y-143909010D03*
X131853732Y-143343324D03*
X131288047Y-142777639D03*
X130722361Y-142211953D03*
X130156676Y-141646268D03*
X129590990Y-141080583D03*
X129025305Y-140514897D03*
D31*
X126974695Y-140514897D03*
X126409010Y-141080583D03*
X125843324Y-141646268D03*
X125277639Y-142211953D03*
X124711953Y-142777639D03*
X124146268Y-143343324D03*
X123580583Y-143909010D03*
X123014897Y-144474695D03*
D30*
X123014897Y-146525305D03*
X123580583Y-147090990D03*
X124146268Y-147656676D03*
X124711953Y-148222361D03*
X125277639Y-148788047D03*
X125843324Y-149353732D03*
X126409010Y-149919417D03*
X126974695Y-150485103D03*
D31*
X129025305Y-150485103D03*
X129590990Y-149919417D03*
X130156676Y-149353732D03*
X130722361Y-148788047D03*
X131288047Y-148222361D03*
X131853732Y-147656676D03*
X132419417Y-147090990D03*
X132985103Y-146525305D03*
%TD*%
D32*
%TO.C,D502*%
X110500000Y-111500000D03*
X110500000Y-107500000D03*
%TD*%
%TO.C,D503*%
X106550000Y-119000000D03*
X106550000Y-115000000D03*
%TD*%
D23*
%TO.C,R1611*%
X120269000Y-153416000D03*
X119249002Y-153416000D03*
%TD*%
D33*
%TO.C,U1101*%
X116150000Y-150080000D03*
X116150000Y-148810000D03*
X116150000Y-147540000D03*
X116150000Y-146270000D03*
X116150000Y-145000000D03*
X116150000Y-143730000D03*
X116150000Y-142460000D03*
X116150000Y-141190000D03*
X116150000Y-139920000D03*
X106850000Y-139920000D03*
X106850000Y-141190000D03*
X106850000Y-142460000D03*
X106850000Y-143730000D03*
X106850000Y-145000000D03*
X106850000Y-146270000D03*
X106850000Y-147540000D03*
X106850000Y-148810000D03*
X106850000Y-150080000D03*
%TD*%
D16*
%TO.C,C905*%
X114843500Y-121254000D03*
X116393500Y-121254000D03*
%TD*%
D21*
%TO.C,R904*%
X138557000Y-156853500D03*
X138557000Y-155028500D03*
%TD*%
D34*
%TO.C,D401*%
X121827000Y-140081000D03*
X119727000Y-140081000D03*
%TD*%
D21*
%TO.C,R701*%
X138557000Y-142853500D03*
X138557000Y-141028500D03*
%TD*%
D35*
%TO.C,Y201*%
X132481000Y-138927000D03*
X132481000Y-136727000D03*
X130581000Y-136727000D03*
X130581000Y-138927000D03*
%TD*%
D34*
%TO.C,D1001*%
X128447750Y-114259750D03*
X126347750Y-114259750D03*
%TD*%
D29*
%TO.C,C402*%
X121602000Y-142181000D03*
X120052000Y-142181000D03*
%TD*%
D32*
%TO.C,D501*%
X110500000Y-119000000D03*
X110500000Y-115000000D03*
%TD*%
D22*
%TO.C,R802*%
X138557000Y-144599500D03*
X138557000Y-146424500D03*
%TD*%
D36*
%TO.C,U1601*%
X128143000Y-163382000D03*
X128143000Y-162732000D03*
X128143000Y-162082000D03*
X128143000Y-161432000D03*
X128143000Y-160782000D03*
X128143000Y-160132000D03*
X128143000Y-159482000D03*
X128143000Y-158832000D03*
X128143000Y-158182000D03*
X128143000Y-157532000D03*
X128143000Y-156882000D03*
X128143000Y-156232000D03*
X128143000Y-155582000D03*
X128143000Y-154932000D03*
X122418000Y-154932000D03*
X122418000Y-155582000D03*
X122418000Y-156232000D03*
X122418000Y-156882000D03*
X122418000Y-157532000D03*
X122418000Y-158182000D03*
X122418000Y-158832000D03*
X122418000Y-159482000D03*
X122418000Y-160132000D03*
X122418000Y-160782000D03*
X122418000Y-161432000D03*
X122418000Y-162082000D03*
X122418000Y-162732000D03*
X122418000Y-163382000D03*
%TD*%
D23*
%TO.C,R1616*%
X120269000Y-158496000D03*
X119249002Y-158496000D03*
%TD*%
%TO.C,R1613*%
X120269000Y-155448000D03*
X119249002Y-155448000D03*
%TD*%
D21*
%TO.C,R1004*%
X138557000Y-163853500D03*
X138557000Y-162028500D03*
%TD*%
D37*
%TO.C,C902*%
X120571500Y-124683000D03*
X121531500Y-124683000D03*
%TD*%
%TO.C,C903*%
X120571500Y-125826000D03*
X121531500Y-125826000D03*
%TD*%
D38*
%TO.C,L901*%
X121990000Y-131241000D03*
X116390000Y-131241000D03*
%TD*%
D39*
%TO.C,C401*%
X109500000Y-126300000D03*
X109500000Y-133700000D03*
%TD*%
D37*
%TO.C,C906*%
X115140500Y-118206000D03*
X116100500Y-118206000D03*
%TD*%
D28*
%TO.C,R902*%
X118984500Y-114523000D03*
X120634500Y-114523000D03*
%TD*%
D21*
%TO.C,R801*%
X138557000Y-149853500D03*
X138557000Y-148028500D03*
%TD*%
D32*
%TO.C,D504*%
X106500000Y-111500000D03*
X106500000Y-107500000D03*
%TD*%
D22*
%TO.C,R1005*%
X138557000Y-158599500D03*
X138557000Y-160424500D03*
%TD*%
D29*
%TO.C,C501*%
X109230000Y-121477000D03*
X107680000Y-121477000D03*
%TD*%
D22*
%TO.C,R201*%
X108464000Y-164314500D03*
X108464000Y-166139500D03*
%TD*%
M02*
